<svg width="1440" height="754" viewBox="0 0 1440 754" fill="none" xmlns="http://www.w3.org/2000/svg">
<g clip-path="url(#clip0_962_1587)">
<path d="M311.818 24.0422L281.185 25.4005L276.636 -6.58847L275.724 -6.4585L280.22 25.1622L245.535 11.5282L257.83 -7.73525L257.052 -8.22964L244.529 11.3906L215.57 24.8424L235.259 -8.9037L234.463 -9.36751L214.413 24.9953L200.841 3.82306L200.837 3.82561C200.832 3.81669 200.83 3.8065 200.825 3.79758L191.915 -8.25768L191.173 -7.71104L199.842 4.01802L183.247 19.9443L153.152 -8.32011L152.522 -7.64861L181.452 19.5238L138.688 5.90639L127.565 -10.3181L126.805 -9.79692L137.657 6.03126L105.879 15.1189L108.138 -16.935L107.219 -17L104.941 15.3215L34.9554 22.0926L57.6629 -7.70467L56.9288 -8.26277L33.8415 22.034L-10.4979 -6.75794L-11 -5.98577L33.3993 22.8457L18.9402 66.2133L-10.5297 50.1978L-10.9694 51.0069L18.6993 67.132L14.8861 92.4734L-10.7782 94.0636L-10.7222 94.9835L15.0467 93.3882L29.6739 115.661L-6.01294 152.558L-5.3502 153.199L29.8001 116.855V168.066L-10.61 155.129L-10.8904 156.007L29.1042 168.811L-9.13033 189.948L-8.68426 190.754L30.2118 169.251L52.6465 187.445L-9.25013 256.385L-8.56446 257L53.5731 187.793L92.5953 174.67C92.5966 174.67 92.5979 174.669 92.5991 174.669L92.617 174.662C92.6272 174.658 92.6335 174.651 92.6425 174.647C92.6769 174.633 92.7113 174.621 92.7406 174.598C92.7508 174.591 92.7559 174.581 92.7648 174.573C92.7814 174.559 92.7941 174.544 92.8082 174.527C92.8362 174.495 92.8591 174.461 92.8782 174.424C92.8833 174.412 92.8935 174.406 92.8986 174.395L123.254 97.1433L158.9 76.1253C172.091 79.2293 205.999 87.2924 207.465 88.0251C207.475 88.0302 207.497 88.0315 207.511 88.0353C207.597 88.0684 207.689 88.0837 207.78 88.0608C207.792 88.0582 207.801 88.0468 207.813 88.0429C212.974 87.5027 267.341 65.478 284.337 58.5553C284.363 58.5451 284.381 58.5209 284.404 58.5056C284.43 58.489 284.451 58.4763 284.473 58.4546C284.487 58.4419 284.506 58.4368 284.518 58.4215L312.277 24.8411L354 -4.45672L353.484 -5.21997L311.818 24.0422ZM310.953 25.0016L284.08 57.5066L252.923 35.8489L280.876 26.3344L310.953 25.0016ZM251.237 35.0538L215.785 25.756L244.552 12.3921L251.237 35.0538ZM217.109 54.4192L159.185 34.5314L183.173 21.151L217.109 54.4192ZM156.144 34.4346L59.1706 48.0316L105.44 16.2555L156.144 34.4346ZM30.7228 116.781L91.5948 174.034L53.4074 186.875L30.7216 168.477L30.7228 116.781ZM92.4322 173.064L69.1205 123.749L77.1409 100.032L122.191 97.3294L92.4322 173.064ZM123.059 96.1877L104.021 61.477L136.108 56.542L158.043 75.5634L123.059 96.1877ZM281.382 58.7617C270.144 63.3297 257.038 68.5998 245.019 73.3526L236.933 61.5305L281.382 58.7617ZM236.959 60.6067L252.045 36.3612L282.816 57.7487L236.959 60.6067ZM244.139 73.7005C226.604 80.6271 211.57 86.3725 208.342 87.0937L219.172 56.0948L235.804 61.5114L244.139 73.7005ZM58.0504 49.4383L102.99 61.5153L122.13 96.4094L77.1129 99.1094L58.0504 49.4383ZM59.6001 48.9019L156.74 35.2819L136.031 55.6208L103.325 60.6513L59.6001 48.9019ZM158.017 35.3176L177.988 60.3506L158.846 75.0397L136.927 56.0336L158.017 35.3176ZM159.406 35.5814L216.844 55.3035L178.842 59.9429L159.406 35.5814ZM218.207 56.0642L207.471 86.7929L179.677 60.7686L218.207 56.0642ZM205.907 86.5903C197.706 84.3363 165.941 76.8363 159.878 75.4079L178.613 61.0336L205.907 86.5903ZM68.3062 124.182L91.015 172.223L31.773 116.504L68.3062 124.182ZM30.8949 115.378L57.2857 50.0168L76.3138 99.6L68.3189 123.243L30.8949 115.378ZM219.3 55.1659L214.991 26.5001L251.189 35.9929L235.895 60.5711L219.3 55.1659ZM19.6221 67.1906L56.4254 49.683L30.1646 114.726L15.768 92.8046L19.6221 67.1906ZM34.1346 23.5516L56.5426 48.6076L19.9827 66.0005L34.1346 23.5516ZM103.641 16.3727L57.3698 48.1501L34.8981 23.0241L103.641 16.3727ZM106.877 15.7917L138.391 6.77922L182.096 20.6961L158.017 34.1275L106.877 15.7917ZM200.368 4.79146L213.99 26.0439L218.225 54.2243L183.912 20.584L200.368 4.79146ZM245.553 12.5233L279.449 25.8464L252.216 35.1163L245.553 12.5233Z" fill="#AC04FF"/>
<path d="M1117.18 729.958L1147.82 728.6L1152.36 760.588L1153.28 760.458L1148.78 728.838L1183.47 742.472L1171.17 761.735L1171.95 762.23L1184.47 742.609L1213.43 729.158L1193.74 762.904L1194.54 763.368L1214.59 729.005L1228.16 750.177L1228.16 750.174C1228.17 750.183 1228.17 750.194 1228.18 750.202L1237.09 762.258L1237.83 761.711L1229.16 749.982L1245.75 734.056L1275.85 762.32L1276.48 761.649L1247.55 734.476L1290.31 748.094L1301.44 764.318L1302.19 763.797L1291.34 747.969L1323.12 738.881L1320.86 770.935L1321.78 771L1324.06 738.679L1394.04 731.907L1371.34 761.705L1372.07 762.263L1395.16 731.966L1439.5 760.758L1440 759.986L1395.6 731.154L1410.06 687.787L1439.53 703.802L1439.97 702.993L1410.3 686.868L1414.11 661.527L1439.78 659.936L1439.72 659.016L1413.95 660.612L1399.33 638.339L1435.01 601.442L1434.35 600.801L1399.2 637.145V585.934L1439.61 598.871L1439.89 597.993L1399.9 585.189L1438.13 564.052L1437.68 563.246L1398.79 584.749L1376.35 566.555L1438.25 497.615L1437.56 497L1375.43 566.207L1336.4 579.33C1336.4 579.33 1336.4 579.331 1336.4 579.331L1336.38 579.338C1336.37 579.342 1336.37 579.349 1336.36 579.353C1336.32 579.367 1336.29 579.379 1336.26 579.402C1336.25 579.409 1336.24 579.419 1336.24 579.427C1336.22 579.441 1336.21 579.456 1336.19 579.473C1336.16 579.505 1336.14 579.539 1336.12 579.576C1336.12 579.588 1336.11 579.594 1336.1 579.605L1305.75 656.857L1270.1 677.875C1256.91 674.771 1223 666.708 1221.54 665.975C1221.53 665.97 1221.5 665.969 1221.49 665.965C1221.4 665.932 1221.31 665.916 1221.22 665.939C1221.21 665.942 1221.2 665.953 1221.19 665.957C1216.03 666.497 1161.66 688.522 1144.66 695.445C1144.64 695.455 1144.62 695.479 1144.6 695.494C1144.57 695.511 1144.55 695.524 1144.53 695.545C1144.51 695.558 1144.49 695.563 1144.48 695.579L1116.72 729.159L1075 758.457L1075.52 759.22L1117.18 729.958ZM1118.05 728.998L1144.92 696.493L1176.08 718.151L1148.12 727.666L1118.05 728.998ZM1177.76 718.946L1213.22 728.244L1184.45 741.608L1177.76 718.946ZM1211.89 699.581L1269.82 719.469L1245.83 732.849L1211.89 699.581ZM1272.86 719.565L1369.83 705.968L1323.56 737.745L1272.86 719.565ZM1398.28 637.219L1337.41 579.966L1375.59 567.125L1398.28 585.523L1398.28 637.219ZM1336.57 580.936L1359.88 630.251L1351.86 653.968L1306.81 656.671L1336.57 580.936ZM1305.94 657.812L1324.98 692.523L1292.89 697.458L1270.96 678.437L1305.94 657.812ZM1147.62 695.238C1158.86 690.67 1171.96 685.4 1183.98 680.647L1192.07 692.469L1147.62 695.238ZM1192.04 693.393L1176.96 717.639L1146.18 696.251L1192.04 693.393ZM1184.86 680.3C1202.4 673.373 1217.43 667.628 1220.66 666.906L1209.83 697.905L1193.2 692.489L1184.86 680.3ZM1370.95 704.562L1326.01 692.485L1306.87 657.591L1351.89 654.891L1370.95 704.562ZM1369.4 705.098L1272.26 718.718L1292.97 698.379L1325.67 693.349L1369.4 705.098ZM1270.98 718.682L1251.01 693.649L1270.15 678.96L1292.07 697.966L1270.98 718.682ZM1269.59 718.419L1212.16 698.696L1250.16 694.057L1269.59 718.419ZM1210.79 697.936L1221.53 667.207L1249.32 693.231L1210.79 697.936ZM1223.09 667.41C1231.29 669.664 1263.06 677.164 1269.12 678.592L1250.39 692.966L1223.09 667.41ZM1360.69 629.818L1337.99 581.777L1397.23 637.496L1360.69 629.818ZM1398.11 638.622L1371.71 703.983L1352.69 654.4L1360.68 630.757L1398.11 638.622ZM1209.7 698.834L1214.01 727.5L1177.81 718.007L1193.11 693.429L1209.7 698.834ZM1409.38 686.809L1372.57 704.317L1398.84 639.274L1413.23 661.195L1409.38 686.809ZM1394.87 730.448L1372.46 705.392L1409.02 688L1394.87 730.448ZM1325.36 737.627L1371.63 705.85L1394.1 730.976L1325.36 737.627ZM1322.12 738.208L1290.61 747.221L1246.9 733.304L1270.98 719.873L1322.12 738.208ZM1228.63 749.209L1215.01 727.956L1210.77 699.776L1245.09 733.416L1228.63 749.209ZM1183.45 741.477L1149.55 728.154L1176.78 718.884L1183.45 741.477Z" fill="#AC04FF"/>
</g>
<defs>
<clipPath id="clip0_962_1587">
<rect width="1440" height="754" fill="white"/>
</clipPath>
</defs>
</svg>
