<svg width="375" height="1028" viewBox="0 0 375 1028" fill="none" xmlns="http://www.w3.org/2000/svg">
<path d="M290.094 1016.27L298.151 1015.91L299.348 1024.33L299.588 1024.29L298.405 1015.98L307.528 1019.56L304.294 1024.63L304.499 1024.76L307.792 1019.6L315.409 1016.06L310.231 1024.94L310.44 1025.06L315.713 1016.02L319.283 1021.59L319.284 1021.59C319.285 1021.59 319.286 1021.59 319.287 1021.6L321.631 1024.77L321.826 1024.62L319.546 1021.54L323.91 1017.35L331.826 1024.78L331.992 1024.61L324.382 1017.46L335.63 1021.04L338.556 1025.31L338.755 1025.17L335.901 1021.01L344.259 1018.62L343.665 1027.05L343.907 1027.07L344.506 1018.57L362.913 1016.78L356.941 1024.62L357.134 1024.77L363.206 1016.8L374.868 1024.37L375 1024.17L363.322 1016.59L367.125 1005.18L374.876 1009.39L374.992 1009.18L367.189 1004.94L368.192 998.273L374.942 997.855L374.927 997.613L368.149 998.033L364.302 992.175L373.688 982.47L373.514 982.302L364.269 991.861V978.392L374.897 981.794L374.971 981.563L364.452 978.196L374.508 972.636L374.391 972.424L364.161 978.08L358.26 973.295L374.54 955.163L374.359 955.001L358.016 973.203L347.753 976.655C347.753 976.655 347.752 976.655 347.752 976.655L347.747 976.657C347.745 976.658 347.743 976.66 347.741 976.661C347.732 976.664 347.723 976.667 347.715 976.673C347.712 976.675 347.711 976.678 347.708 976.68C347.704 976.684 347.701 976.688 347.697 976.692C347.69 976.701 347.684 976.71 347.679 976.719C347.677 976.722 347.675 976.724 347.673 976.727L339.689 997.045L330.314 1002.57C326.844 1001.76 317.926 999.636 317.541 999.443C317.538 999.442 317.532 999.442 317.529 999.441C317.506 999.432 317.482 999.428 317.458 999.434C317.455 999.435 317.452 999.438 317.449 999.439C316.092 999.581 301.792 1005.37 297.322 1007.19C297.315 1007.2 297.311 1007.2 297.305 1007.21C297.298 1007.21 297.292 1007.22 297.287 1007.22C297.283 1007.22 297.278 1007.23 297.275 1007.23L289.974 1016.06L279 1023.77L279.136 1023.97L290.094 1016.27ZM290.322 1016.02L297.39 1007.47L305.585 1013.17L298.233 1015.67L290.322 1016.02ZM306.028 1013.38L315.353 1015.82L307.786 1019.34L306.028 1013.38ZM315.004 1008.28L330.239 1013.51L323.93 1017.03L315.004 1008.28ZM331.039 1013.54L356.544 1009.96L344.375 1018.32L331.039 1013.54ZM364.026 991.88L348.016 976.822L358.06 973.444L364.027 978.283L364.026 991.88ZM347.796 977.077L353.927 990.048L351.818 996.285L339.969 996.996L347.796 977.077ZM339.741 997.297L344.748 1006.43L336.309 1007.72L330.539 1002.72L339.741 997.297ZM298.099 1007.14C301.055 1005.94 304.502 1004.55 307.664 1003.3L309.79 1006.41L298.099 1007.14ZM309.783 1006.65L305.816 1013.03L297.722 1007.41L309.783 1006.65ZM307.895 1003.21C312.507 1001.39 316.461 999.878 317.31 999.688L314.462 1007.84L310.087 1006.42L307.895 1003.21ZM356.839 1009.59L345.019 1006.42L339.985 997.238L351.825 996.528L356.839 1009.59ZM356.431 1009.73L330.882 1013.32L336.329 1007.97L344.931 1006.64L356.431 1009.73ZM330.546 1013.31L325.293 1006.72L330.328 1002.86L336.093 1007.86L330.546 1013.31ZM330.181 1013.24L315.074 1008.05L325.069 1006.83L330.181 1013.24ZM314.715 1007.85L317.539 999.767L324.849 1006.61L314.715 1007.85ZM317.95 999.821C320.107 1000.41 328.462 1002.39 330.057 1002.76L325.129 1006.54L317.95 999.821ZM354.141 989.934L348.169 977.298L363.75 991.953L354.141 989.934ZM363.981 992.249L357.04 1009.44L352.035 996.399L354.138 990.181L363.981 992.249ZM314.428 1008.09L315.561 1015.63L306.041 1013.13L310.063 1006.66L314.428 1008.09ZM366.946 1004.92L357.266 1009.53L364.173 992.421L367.96 998.186L366.946 1004.92ZM363.129 1016.4L357.235 1009.81L366.851 1005.24L363.129 1016.4ZM344.848 1018.29L357.018 1009.93L362.928 1016.54L344.848 1018.29ZM343.997 1018.44L335.708 1020.81L324.213 1017.15L330.546 1013.62L343.997 1018.44ZM319.407 1021.33L315.825 1015.75L314.711 1008.33L323.735 1017.18L319.407 1021.33ZM307.523 1019.3L298.608 1015.8L305.771 1013.36L307.523 1019.3Z" fill="#AC04FF"/>
<path d="M84.9056 10.761L76.8486 11.1171L75.6522 2.72984L75.4122 2.76391L76.5949 11.0547L67.4722 7.47991L70.7059 2.42916L70.5015 2.29953L67.2077 7.44383L59.5911 10.9708L64.7694 2.1228L64.5602 2.00119L59.2868 11.0109L55.7171 5.45967L55.7161 5.46034C55.7148 5.458 55.7141 5.45533 55.7128 5.45299L53.3693 2.29218L53.1743 2.43551L55.4543 5.51079L51.0896 9.68656L43.1744 2.27581L43.0084 2.45188L50.6176 9.57631L39.3701 6.00591L36.4444 1.75196L36.2446 1.8886L39.0989 6.03865L30.7408 8.42137L31.3348 0.0170384L31.0932 0L30.4941 8.47449L12.0869 10.2498L18.0593 2.43718L17.8662 2.29084L11.7939 10.2345L0.132072 2.6854L0 2.88786L11.6776 10.4473L7.87469 21.818L0.123691 17.6188L0.00804487 17.831L7.81133 22.0589L6.80839 28.7032L0.058326 29.1202L0.0730752 29.3614L6.85063 28.9431L10.6978 34.783L1.31167 44.4572L1.48597 44.6252L10.731 35.096V48.523L0.102573 45.131L0.0288278 45.3612L10.548 48.7185L0.491749 54.2603L0.609071 54.4718L10.8393 48.8337L16.7399 53.6042L0.460239 71.6797L0.640581 71.8411L16.9836 53.6954L27.247 50.2546C27.2473 50.2546 27.2477 50.2543 27.248 50.2543L27.2527 50.2526C27.2554 50.2516 27.257 50.2496 27.2594 50.2486C27.2684 50.2449 27.2775 50.2419 27.2852 50.2359C27.2879 50.2339 27.2892 50.2312 27.2916 50.2292C27.2959 50.2255 27.2993 50.2215 27.303 50.2172C27.3103 50.2088 27.3164 50.1998 27.3214 50.1901C27.3227 50.1871 27.3254 50.1854 27.3268 50.1824L35.3107 29.9276L44.6861 24.4169C48.1555 25.2307 57.0737 27.3448 57.4592 27.5369C57.4619 27.5382 57.4676 27.5386 57.4713 27.5396C57.4941 27.5483 57.5182 27.5523 57.542 27.5463C57.5454 27.5456 57.5477 27.5426 57.5507 27.5416C58.9083 27.3999 73.2076 21.6252 77.6776 19.8101C77.6846 19.8074 77.6893 19.8011 77.6953 19.7971C77.702 19.7927 77.7077 19.7894 77.7134 19.7837C77.7171 19.7804 77.7222 19.779 77.7252 19.775L85.0263 10.9705L96 3.28877L95.8642 3.08865L84.9056 10.761ZM84.678 11.0126L77.6102 19.5352L69.4154 13.8567L76.7675 11.362L84.678 11.0126ZM68.9719 13.6482L59.6474 11.2103L67.2137 7.70642L68.9719 13.6482ZM59.9957 18.7257L44.7609 13.5112L51.0702 10.0029L59.9957 18.7257ZM43.9611 13.4858L18.4558 17.0509L30.6252 8.71938L43.9611 13.4858ZM10.9737 35.0766L26.9838 50.0879L16.94 53.4548L10.9733 48.6309L10.9737 35.0766ZM27.2041 49.8336L21.0728 36.9034L23.1823 30.685L35.0312 29.9764L27.2041 49.8336ZM35.2594 29.6771L30.2521 20.5762L38.6913 19.2823L44.4605 24.2695L35.2594 29.6771ZM76.9006 19.8642C73.9447 21.0619 70.4978 22.4437 67.3364 23.6899L65.2099 20.5902L76.9006 19.8642ZM65.2166 20.348L69.1844 13.991L77.2777 19.5986L65.2166 20.348ZM67.1051 23.7811C62.493 25.5972 58.5389 27.1036 57.6898 27.2927L60.5384 19.165L64.9129 20.5852L67.1051 23.7811ZM18.1612 17.4197L29.9809 20.5862L35.0151 29.7352L23.1749 30.4431L18.1612 17.4197ZM18.5688 17.2791L44.118 13.708L38.6712 19.0407L30.0691 20.3597L18.5688 17.2791ZM44.4538 13.7173L49.7065 20.2808L44.6717 24.1322L38.9068 19.1489L44.4538 13.7173ZM44.8192 13.7865L59.926 18.9575L49.9311 20.1739L44.8192 13.7865ZM60.2847 19.157L57.4609 27.2138L50.1507 20.3904L60.2847 19.157ZM57.0496 27.1607C54.8925 26.5697 46.5378 24.6033 44.9432 24.2288L49.8708 20.4599L57.0496 27.1607ZM20.8586 37.017L26.8313 49.6131L11.2499 35.0038L20.8586 37.017ZM11.0189 34.7088L17.9601 17.5714L22.9647 30.5718L20.862 36.7708L11.0189 34.7088ZM60.5719 18.9214L59.4386 11.4054L68.9592 13.8944L64.9367 20.3386L60.5719 18.9214ZM8.05402 22.0742L17.7338 17.4839L10.8269 34.5377L7.04036 28.7901L8.05402 22.0742ZM11.871 10.6324L17.7646 17.2019L8.14889 21.7622L11.871 10.6324ZM30.1522 8.75011L17.9822 17.0819L12.0718 10.4941L30.1522 8.75011ZM31.0033 8.59777L39.292 6.23476L50.7869 9.88367L44.4538 13.4053L31.0033 8.59777ZM55.5928 5.71358L59.1755 11.2858L60.2894 18.6745L51.2646 9.85427L55.5928 5.71358ZM67.4769 7.74083L76.3921 11.2341L69.2293 13.6646L67.4769 7.74083Z" fill="#AC04FF"/>
</svg>
