<svg width="375" height="72" viewBox="0 0 375 72" fill="none" xmlns="http://www.w3.org/2000/svg">
<g clip-path="url(#clip0_438_2077)">
<rect x="-3.10449" y="0.861816" width="462.639" height="35.0192" fill="#0E0014"/>
<path d="M-16.7777 19.6013L-16.776 12.3286L-14.0487 12.3293C-13.49 12.3294 -13.0213 12.4337 -12.6425 12.6421C-12.2614 12.8505 -11.9738 13.137 -11.7798 13.5017C-11.5834 13.8639 -11.4852 14.2759 -11.4853 14.7375C-11.4855 15.2039 -11.5838 15.6182 -11.7804 15.9804C-11.977 16.3425 -12.267 16.6277 -12.6506 16.836C-13.0342 17.0419 -13.5065 17.1447 -14.0676 17.1446L-15.8751 17.1442L-15.8749 16.0611L-14.2449 16.0615C-13.9182 16.0615 -13.6507 16.0048 -13.4423 15.8912C-13.2339 15.7776 -13.08 15.6214 -12.9805 15.4226C-12.8787 15.2237 -12.8277 14.9953 -12.8277 14.7372C-12.8276 14.4792 -12.8785 14.2519 -12.9802 14.0554C-13.0796 13.8588 -13.2346 13.7061 -13.4453 13.5972C-13.6536 13.4858 -13.9223 13.4301 -14.2514 13.4301L-15.4588 13.4298L-15.4602 19.6017L-16.7777 19.6013ZM11.3825 19.608L11.3842 12.3353L14.1115 12.3359C14.6702 12.3361 15.1389 12.4332 15.5176 12.6275C15.8988 12.8217 16.1863 13.094 16.3804 13.4444C16.5768 13.7925 16.6749 14.1985 16.6748 14.6625C16.6747 15.1289 16.5752 15.5337 16.3762 15.877C16.1797 16.2178 15.8896 16.4817 15.506 16.6687C15.1225 16.8532 14.6513 16.9454 14.0926 16.9453L12.1501 16.9448L12.1504 15.8511L13.9153 15.8515C14.242 15.8516 14.5096 15.8067 14.7179 15.7168C14.9263 15.6245 15.0802 15.4908 15.1796 15.3156C15.2815 15.1381 15.3324 14.9203 15.3325 14.6622C15.3326 14.4042 15.2817 14.184 15.18 14.0017C15.0782 13.817 14.9232 13.6773 14.7149 13.5825C14.5066 13.4854 14.2379 13.4368 13.9088 13.4367L12.7014 13.4365L12.6999 19.6083L11.3825 19.608ZM15.1404 16.3135L16.94 19.6093L15.4698 19.609L13.7021 16.3131L15.1404 16.3135Z" fill="#AC04FF"/>
<path d="M-10.349 19.6029L-10.3477 14.1483L-9.10122 14.1486L-9.10143 15.0577L-9.04462 15.0577C-8.94511 14.7429 -8.7746 14.5003 -8.53308 14.3299C-8.28919 14.1571 -8.011 14.0707 -7.6985 14.0708C-7.62748 14.0708 -7.54817 14.0744 -7.46058 14.0815C-7.37062 14.0863 -7.29604 14.0946 -7.23686 14.1064L-7.23714 15.289C-7.29159 15.27 -7.37799 15.2534 -7.49636 15.2392C-7.61236 15.2226 -7.72481 15.2143 -7.83371 15.2143C-8.06809 15.2142 -8.2788 15.265 -8.46585 15.3668C-8.65054 15.4662 -8.79617 15.6047 -8.90274 15.7822C-9.00932 15.9597 -9.06263 16.1645 -9.06269 16.3965L-9.06345 19.6032L-10.349 19.6029ZM-6.33412 19.6038L-6.33282 14.1493L-5.04731 14.1496L-5.04861 19.6041L-6.33412 19.6038ZM-5.68633 13.3753C-5.88993 13.3752 -6.0651 13.3077 -6.21185 13.1727C-6.3586 13.0354 -6.43195 12.8708 -6.43191 12.6791C-6.43186 12.4849 -6.35843 12.3204 -6.21162 12.1855C-6.06481 12.0482 -5.8896 11.9796 -5.686 11.9797C-5.48004 11.9797 -5.30486 12.0484 -5.16048 12.1858C-5.01373 12.3207 -4.94038 12.4853 -4.94043 12.6794C-4.94047 12.8712 -5.0139 13.0357 -5.16072 13.173C-5.30516 13.3079 -5.48037 13.3753 -5.68633 13.3753ZM-3.6767 19.6044L-3.6754 14.1499L-2.44671 14.1502L-2.44693 15.077L-2.38301 15.0771C-2.2693 14.7646 -2.08103 14.5208 -1.8182 14.3457C-1.55538 14.1682 -1.24167 14.0795 -0.877089 14.0795C-0.507771 14.0796 -0.196476 14.1697 0.0567956 14.3496C0.312435 14.5273 0.492302 14.77 0.596395 15.0778L0.653214 15.0778C0.774025 14.7748 0.97768 14.5333 1.26418 14.3535C1.55305 14.1713 1.89516 14.0802 2.29052 14.0803C2.79242 14.0804 3.20195 14.2391 3.5191 14.5564C3.83626 14.8737 3.99477 15.3366 3.99463 15.945L3.99376 19.6063L2.7047 19.606L2.70552 16.1436C2.7056 15.8051 2.61569 15.5576 2.43581 15.4013C2.25592 15.2427 2.03577 15.1633 1.77535 15.1633C1.46522 15.1632 1.22254 15.2602 1.0473 15.4543C0.874433 15.646 0.787963 15.8958 0.78789 16.2035L0.787083 19.6055L-0.473571 19.6052L-0.472737 16.0896C-0.47267 15.8079 -0.557844 15.5829 -0.728258 15.4148C-0.896306 15.2467 -1.11646 15.1626 -1.38871 15.1625C-1.57337 15.1625 -1.74147 15.2098 -1.89301 15.3044C-2.04454 15.3967 -2.16531 15.5281 -2.25531 15.6985C-2.34532 15.8666 -2.39034 16.0631 -2.3904 16.288L-2.39118 19.6048L-3.6767 19.6044ZM7.76266 19.7137C7.21579 19.7136 6.74351 19.5998 6.34584 19.3724C5.95053 19.1427 5.6464 18.8183 5.43343 18.3992C5.22046 17.9778 5.11404 17.4818 5.11418 16.9112C5.11431 16.3501 5.22096 15.8577 5.43413 15.434C5.64967 15.0079 5.95041 14.6766 6.33636 14.4399C6.7223 14.2009 7.17569 14.0815 7.69653 14.0816C8.0327 14.0817 8.34992 14.1362 8.64819 14.2452C8.94883 14.3518 9.21394 14.5175 9.44353 14.7425C9.67548 14.9675 9.85771 15.254 9.9902 15.602C10.1227 15.9477 10.1889 16.3596 10.1888 16.8378L10.1887 17.232L5.7178 17.231L5.718 16.3645L8.95664 16.3653C8.95433 16.119 8.90111 15.9 8.79699 15.7083C8.69287 15.5141 8.54731 15.3614 8.36031 15.2501C8.17568 15.1387 7.96026 15.0831 7.71404 15.083C7.45126 15.0829 7.22042 15.1468 7.02153 15.2746C6.82263 15.4 6.66753 15.5657 6.55621 15.7716C6.44726 15.9752 6.39157 16.1989 6.38915 16.4428L6.38897 17.1992C6.38889 17.5164 6.44683 17.7887 6.56278 18.016C6.67873 18.2409 6.84086 18.4138 7.04916 18.5345C7.25747 18.653 7.5013 18.7122 7.78066 18.7123C7.96768 18.7123 8.13696 18.6863 8.28849 18.6343C8.44001 18.5799 8.57143 18.5006 8.68272 18.3964C8.79401 18.2923 8.87809 18.1633 8.93494 18.0094L10.1352 18.1447C10.0594 18.4619 9.91488 18.7388 9.70176 18.9755C9.491 19.2098 9.22107 19.3921 8.89197 19.5222C8.56287 19.65 8.18643 19.7138 7.76266 19.7137ZM20.2162 19.7166C19.6693 19.7165 19.197 19.6028 18.7994 19.3754C18.404 19.1457 18.0999 18.8213 17.8869 18.4022C17.674 17.9807 17.5676 17.4847 17.5677 16.9142C17.5678 16.3531 17.6745 15.8607 17.8876 15.437C18.1032 15.0109 18.4039 14.6795 18.7899 14.4429C19.1758 14.2039 19.6292 14.0844 20.15 14.0845C20.4862 14.0846 20.8034 14.1391 21.1017 14.2481C21.4023 14.3547 21.6675 14.5205 21.897 14.7455C22.129 14.9704 22.3112 15.2569 22.4437 15.605C22.5762 15.9506 22.6424 16.3626 22.6423 16.8408L22.6422 17.235L18.1713 17.2339L18.1715 16.3674L21.4102 16.3682C21.4078 16.122 21.3546 15.903 21.2505 15.7112C21.1464 15.5171 21.0008 15.3643 20.8138 15.253C20.6292 15.1417 20.4138 15.086 20.1676 15.086C19.9048 15.0859 19.6739 15.1498 19.475 15.2776C19.2761 15.403 19.121 15.5687 19.0097 15.7746C18.9008 15.9782 18.8451 16.2019 18.8427 16.4457L18.8425 17.2021C18.8424 17.5194 18.9003 17.7916 19.0163 18.0189C19.1322 18.2439 19.2944 18.4167 19.5027 18.5375C19.711 18.6559 19.9548 18.7152 20.2342 18.7152C20.4212 18.7153 20.5905 18.6893 20.742 18.6372C20.8935 18.5828 21.0249 18.5035 21.1362 18.3994C21.2475 18.2953 21.3316 18.1662 21.3885 18.0124L22.5887 18.1476C22.5129 18.4648 22.3684 18.7418 22.1553 18.9785C21.9445 19.2128 21.6746 19.395 21.3455 19.5252C21.0164 19.6529 20.6399 19.7167 20.2162 19.7166ZM28.0912 15.5992L26.9193 15.7268C26.8862 15.6084 26.8282 15.4971 26.7454 15.3929C26.6649 15.2887 26.556 15.2047 26.4187 15.1407C26.2814 15.0768 26.1133 15.0448 25.9145 15.0447C25.647 15.0446 25.422 15.1026 25.2397 15.2185C25.0598 15.3345 24.971 15.4848 24.9733 15.6695C24.9709 15.8281 25.0288 15.9571 25.1472 16.0566C25.2679 16.1561 25.4668 16.2378 25.7437 16.3018L26.6741 16.5008C27.1901 16.6122 27.5736 16.7887 27.8245 17.0302C28.0778 17.2718 28.2055 17.5879 28.2078 17.9785C28.2054 18.3218 28.1047 18.6248 27.9058 18.8875C27.7092 19.1479 27.4357 19.3514 27.0853 19.4981C26.7349 19.6448 26.3324 19.7181 25.8779 19.718C25.2102 19.7178 24.6729 19.578 24.2657 19.2986C23.8586 19.0168 23.616 18.6249 23.538 18.123L24.7916 18.0025C24.8484 18.2488 24.9691 18.4346 25.1537 18.5601C25.3383 18.6857 25.5786 18.7485 25.8745 18.7485C26.1799 18.7486 26.425 18.6859 26.6097 18.5605C26.7967 18.4351 26.8903 18.28 26.8903 18.0954C26.8904 17.9391 26.83 17.8101 26.7093 17.7082C26.591 17.6064 26.4063 17.5282 26.1554 17.4737L25.225 17.2782C24.7019 17.1692 24.3148 16.9856 24.0639 16.7275C23.8131 16.467 23.6888 16.1379 23.6913 15.7402C23.689 15.404 23.7802 15.1129 23.9649 14.8667C24.152 14.6181 24.4113 14.4264 24.7428 14.2916C25.0766 14.1544 25.4613 14.0858 25.897 14.0859C26.5362 14.086 27.0392 14.2223 27.4061 14.4946C27.7753 14.767 28.0037 15.1352 28.0912 15.5992ZM31.7322 19.7194C31.1853 19.7192 30.713 19.6055 30.3154 19.3781C29.9201 19.1484 29.6159 18.824 29.403 18.4049C29.19 17.9835 29.0836 17.4875 29.0837 16.9169C29.0838 16.3558 29.1905 15.8634 29.4037 15.4397C29.6192 15.0136 29.9199 14.6823 30.3059 14.4456C30.6918 14.2066 31.1452 14.0871 31.6661 14.0873C32.0022 14.0873 32.3195 14.1419 32.6177 14.2508C32.9184 14.3574 33.1835 14.5232 33.4131 14.7482C33.645 14.9731 33.8272 15.2596 33.9597 15.6077C34.0922 15.9534 34.1584 16.3653 34.1583 16.8435L34.1582 17.2377L29.6873 17.2367L29.6875 16.3702L32.9262 16.3709C32.9239 16.1247 32.8706 15.9057 32.7665 15.7139C32.6624 15.5198 32.5168 15.3671 32.3298 15.2557C32.1452 15.1444 31.9298 15.0887 31.6836 15.0887C31.4208 15.0886 31.19 15.1525 30.9911 15.2803C30.7922 15.4057 30.6371 15.5714 30.5257 15.7773C30.4168 15.9809 30.3611 16.2046 30.3587 16.4485L30.3585 17.2048C30.3584 17.5221 30.4164 17.7944 30.5323 18.0217C30.6483 18.2466 30.8104 18.4194 31.0187 18.5402C31.227 18.6587 31.4708 18.7179 31.7502 18.718C31.9372 18.718 32.1065 18.692 32.258 18.64C32.4095 18.5855 32.541 18.5063 32.6523 18.4021C32.7635 18.298 32.8476 18.169 32.9045 18.0151L34.1047 18.1503C34.0289 18.4676 33.8844 18.7445 33.6713 18.9812C33.4605 19.2155 33.1906 19.3978 32.8615 19.5279C32.5324 19.6556 32.156 19.7195 31.7322 19.7194ZM35.2952 19.6137L35.2965 14.1591L36.5429 14.1594L36.5427 15.0685L36.5995 15.0685C36.699 14.7537 36.8695 14.5111 37.1111 14.3407C37.3549 14.1679 37.6331 14.0816 37.9456 14.0816C38.0167 14.0817 38.096 14.0852 38.1836 14.0924C38.2735 14.0971 38.3481 14.1054 38.4073 14.1173L38.407 15.2998C38.3526 15.2808 38.2661 15.2643 38.1478 15.25C38.0318 15.2334 37.9193 15.2251 37.8104 15.2251C37.5761 15.225 37.3653 15.2759 37.1783 15.3776C36.9936 15.477 36.848 15.6155 36.7414 15.793C36.6348 15.9705 36.5815 16.1753 36.5815 16.4073L36.5807 19.614L35.2952 19.6137ZM44.3495 14.1613L42.4057 19.6154L40.9853 19.615L39.0441 14.16L40.4148 14.1604L41.6674 18.2125L41.7242 18.2125L42.9823 14.161L44.3495 14.1613ZM47.517 19.7231C46.9701 19.723 46.4978 19.6092 46.1001 19.3819C45.7048 19.1521 45.4007 18.8277 45.1877 18.4087C44.9748 17.9872 44.8683 17.4912 44.8685 16.9206C44.8686 16.3596 44.9753 15.8672 45.1884 15.4435C45.404 15.0174 45.7047 14.686 46.0907 14.4493C46.4766 14.2103 46.93 14.0909 47.4508 14.091C47.787 14.0911 48.1042 14.1456 48.4025 14.2546C48.7031 14.3612 48.9682 14.527 49.1978 14.7519C49.4298 14.9769 49.612 15.2634 49.7445 15.6114C49.877 15.9571 49.9432 16.3691 49.9431 16.8473L49.943 17.2415L45.4721 17.2404L45.4723 16.3739L48.7109 16.3747C48.7086 16.1285 48.6554 15.9095 48.5513 15.7177C48.4472 15.5235 48.3016 15.3708 48.1146 15.2595C47.93 15.1482 47.7146 15.0925 47.4683 15.0924C47.2056 15.0924 46.9747 15.1562 46.7758 15.284C46.5769 15.4095 46.4218 15.5751 46.3105 15.7811C46.2016 15.9846 46.1459 16.2084 46.1434 16.4522L46.1433 17.2086C46.1432 17.5258 46.2011 17.7981 46.3171 18.0254C46.433 18.2503 46.5952 18.4232 46.8035 18.544C47.0118 18.6624 47.2556 18.7216 47.535 18.7217C47.722 18.7218 47.8913 18.6958 48.0428 18.6437C48.1943 18.5893 48.3257 18.51 48.437 18.4059C48.5483 18.3017 48.6324 18.1727 48.6892 18.0189L49.8895 18.1541C49.8137 18.4713 49.6692 18.7483 49.4561 18.9849C49.2453 19.2193 48.9754 19.4015 48.6463 19.5316C48.3172 19.6594 47.9407 19.7232 47.517 19.7231ZM53.1041 19.7138C52.6756 19.7137 52.2921 19.6035 51.9536 19.3833C51.6151 19.163 51.3477 18.8434 51.1513 18.4243C50.9549 18.0052 50.8567 17.4962 50.8569 16.8972C50.857 16.2912 50.9566 15.7798 51.1555 15.3632C51.3569 14.9442 51.628 14.6282 51.969 14.4152C52.3099 14.1999 52.6899 14.0922 53.109 14.0923C53.4286 14.0924 53.6913 14.1469 53.8973 14.2559C54.1032 14.3625 54.2665 14.4915 54.3872 14.6431C54.5079 14.7923 54.6014 14.9331 54.6677 15.0657L54.7209 15.0657L54.7216 12.3456L56.0107 12.3459L56.0089 19.6186L54.7447 19.6183L54.7449 18.7589L54.6668 18.7589C54.6005 18.8915 54.5046 19.0323 54.3791 19.1814C54.2535 19.3282 54.0878 19.4536 53.8818 19.5577C53.6758 19.6618 53.4166 19.7139 53.1041 19.7138ZM53.463 18.6592C53.7352 18.6593 53.9673 18.5859 54.1591 18.4392C54.3509 18.2901 54.4965 18.083 54.596 17.8178C54.6955 17.5527 54.7453 17.2438 54.7454 16.891C54.7455 16.5383 54.6958 16.2317 54.5964 15.9713C54.4994 15.7108 54.3551 15.5084 54.1633 15.3639C53.974 15.2194 53.7408 15.1472 53.4638 15.1471C53.1774 15.1471 52.9382 15.2216 52.7464 15.3707C52.5546 15.5198 52.4102 15.7257 52.3131 15.9885C52.2159 16.2512 52.1673 16.5519 52.1672 16.8904C52.1672 17.2313 52.2156 17.5356 52.3126 17.8031C52.412 18.0683 52.5575 18.2778 52.7493 18.4318C52.9434 18.5833 53.1813 18.6591 53.463 18.6592Z" fill="white"/>
<path d="M90.2223 19.6267L90.224 12.354L92.9513 12.3546C93.51 12.3548 93.9787 12.4591 94.3575 12.6675C94.7386 12.8759 95.0262 13.1624 95.2202 13.5271C95.4166 13.8893 95.5148 14.3013 95.5147 14.7629C95.5145 15.2293 95.4162 15.6436 95.2196 16.0058C95.023 16.3679 94.733 16.6531 94.3494 16.8614C93.9658 17.0672 93.4935 17.1701 92.9324 17.17L91.1249 17.1696L91.1251 16.0865L92.7551 16.0868C93.0818 16.0869 93.3493 16.0302 93.5577 15.9166C93.7661 15.803 93.92 15.6468 94.0195 15.4479C94.1213 15.2491 94.1723 15.0207 94.1723 14.7626C94.1724 14.5046 94.1215 14.2773 94.0198 14.0808C93.9204 13.8842 93.7654 13.7315 93.5547 13.6225C93.3464 13.5112 93.0777 13.4555 92.7486 13.4555L91.5412 13.4552L91.5398 19.627L90.2223 19.6267ZM118.382 19.6334L118.384 12.3607L121.111 12.3613C121.67 12.3615 122.139 12.4586 122.518 12.6529C122.899 12.8471 123.186 13.1194 123.38 13.4698C123.577 13.8179 123.675 14.2239 123.675 14.6879C123.675 15.1543 123.575 15.5591 123.376 15.9023C123.18 16.2432 122.89 16.5071 122.506 16.694C122.122 16.8786 121.651 16.9708 121.093 16.9707L119.15 16.9702L119.15 15.8765L120.915 15.8769C121.242 15.877 121.51 15.8321 121.718 15.7422C121.926 15.6499 122.08 15.5162 122.18 15.341C122.281 15.1635 122.332 14.9457 122.333 14.6876C122.333 14.4296 122.282 14.2094 122.18 14.0271C122.078 13.8424 121.923 13.7027 121.715 13.6079C121.507 13.5108 121.238 13.4622 120.909 13.4621L119.701 13.4618L119.7 19.6337L118.382 19.6334ZM122.14 16.3388L123.94 19.6347L122.47 19.6344L120.702 16.3385L122.14 16.3388Z" fill="#AC04FF"/>
<path d="M96.651 19.6283L96.6523 14.1737L97.8988 14.174L97.8986 15.0831L97.9554 15.0831C98.0549 14.7683 98.2254 14.5256 98.4669 14.3552C98.7108 14.1825 98.989 14.0961 99.3015 14.0962C99.3725 14.0962 99.4518 14.0998 99.5394 14.1069C99.6294 14.1117 99.704 14.12 99.7631 14.1318L99.7629 15.3144C99.7084 15.2954 99.622 15.2788 99.5036 15.2646C99.3876 15.248 99.2752 15.2397 99.1663 15.2396C98.9319 15.2396 98.7212 15.2904 98.5341 15.3922C98.3495 15.4916 98.2038 15.63 98.0973 15.8076C97.9907 15.9851 97.9374 16.1899 97.9373 16.4219L97.9366 19.6286L96.651 19.6283ZM100.666 19.6292L100.667 14.1747L101.953 14.175L101.951 19.6295L100.666 19.6292ZM101.314 13.4007C101.11 13.4006 100.935 13.3331 100.788 13.1981C100.641 13.0608 100.568 12.8962 100.568 12.7045C100.568 12.5103 100.642 12.3458 100.788 12.2109C100.935 12.0736 101.11 12.005 101.314 12.0051C101.52 12.0051 101.695 12.0738 101.84 12.2112C101.986 12.3461 102.06 12.5107 102.06 12.7048C102.06 12.8966 101.986 13.0611 101.839 13.1984C101.695 13.3333 101.52 13.4007 101.314 13.4007ZM103.323 19.6298L103.325 14.1753L104.553 14.1756L104.553 15.1024L104.617 15.1024C104.731 14.79 104.919 14.5462 105.182 14.371C105.445 14.1935 105.758 14.1048 106.123 14.1049C106.492 14.105 106.804 14.1951 107.057 14.375C107.312 14.5527 107.492 14.7954 107.596 15.1032L107.653 15.1032C107.774 14.8002 107.978 14.5587 108.264 14.3789C108.553 14.1967 108.895 14.1056 109.291 14.1057C109.792 14.1058 110.202 14.2645 110.519 14.5818C110.836 14.8991 110.995 15.362 110.995 15.9704L110.994 19.6317L109.705 19.6314L109.706 16.169C109.706 15.8305 109.616 15.583 109.436 15.4267C109.256 15.2681 109.036 15.1887 108.775 15.1887C108.465 15.1886 108.223 15.2856 108.047 15.4797C107.874 15.6714 107.788 15.9211 107.788 16.2289L107.787 19.6309L106.526 19.6306L106.527 16.115C106.527 15.8332 106.442 15.6083 106.272 15.4402C106.104 15.2721 105.884 15.188 105.611 15.1879C105.427 15.1879 105.259 15.2352 105.107 15.3298C104.955 15.4221 104.835 15.5535 104.745 15.7239C104.655 15.892 104.61 16.0885 104.61 16.3134L104.609 19.6301L103.323 19.6298ZM114.763 19.7391C114.216 19.739 113.744 19.6252 113.346 19.3978C112.951 19.1681 112.646 18.8437 112.433 18.4246C112.22 18.0032 112.114 17.5072 112.114 16.9366C112.114 16.3755 112.221 15.8831 112.434 15.4594C112.65 15.0333 112.95 14.702 113.336 14.4653C113.722 14.2263 114.176 14.1068 114.697 14.107C115.033 14.107 115.35 14.1616 115.648 14.2705C115.949 14.3771 116.214 14.5429 116.444 14.7679C116.675 14.9929 116.858 15.2794 116.99 15.6274C117.123 15.9731 117.189 16.385 117.189 16.8632L117.189 17.2574L112.718 17.2564L112.718 16.3899L115.957 16.3906C115.954 16.1444 115.901 15.9254 115.797 15.7336C115.693 15.5395 115.547 15.3868 115.36 15.2754C115.176 15.1641 114.96 15.1084 114.714 15.1084C114.451 15.1083 114.22 15.1722 114.022 15.3C113.823 15.4254 113.668 15.5911 113.556 15.797C113.447 16.0006 113.392 16.2243 113.389 16.4682L113.389 17.2246C113.389 17.5418 113.447 17.8141 113.563 18.0414C113.679 18.2663 113.841 18.4391 114.049 18.5599C114.257 18.6784 114.501 18.7376 114.781 18.7377C114.968 18.7377 115.137 18.7117 115.288 18.6597C115.44 18.6052 115.571 18.526 115.683 18.4218C115.794 18.3177 115.878 18.1887 115.935 18.0348L117.135 18.17C117.059 18.4873 116.915 18.7642 116.702 19.0009C116.491 19.2352 116.221 19.4175 115.892 19.5476C115.563 19.6754 115.186 19.7392 114.763 19.7391ZM127.216 19.742C126.669 19.7419 126.197 19.6282 125.799 19.4008C125.404 19.1711 125.1 18.8466 124.887 18.4276C124.674 18.0061 124.568 17.5101 124.568 16.9396C124.568 16.3785 124.674 15.8861 124.888 15.4624C125.103 15.0363 125.404 14.7049 125.79 14.4683C126.176 14.2292 126.629 14.1098 127.15 14.1099C127.486 14.11 127.803 14.1645 128.102 14.2735C128.402 14.3801 128.667 14.5459 128.897 14.7708C129.129 14.9958 129.311 15.2823 129.444 15.6304C129.576 15.976 129.642 16.388 129.642 16.8662L129.642 17.2604L125.171 17.2593L125.172 16.3928L128.41 16.3936C128.408 16.1474 128.355 15.9284 128.251 15.7366C128.146 15.5424 128.001 15.3897 127.814 15.2784C127.629 15.1671 127.414 15.1114 127.168 15.1113C126.905 15.1113 126.674 15.1751 126.475 15.3029C126.276 15.4284 126.121 15.5941 126.01 15.8C125.901 16.0036 125.845 16.2273 125.843 16.4711L125.842 17.2275C125.842 17.5447 125.9 17.817 126.016 18.0443C126.132 18.2692 126.294 18.4421 126.503 18.5629C126.711 18.6813 126.955 18.7406 127.234 18.7406C127.421 18.7407 127.59 18.7147 127.742 18.6626C127.894 18.6082 128.025 18.5289 128.136 18.4248C128.248 18.3206 128.332 18.1916 128.388 18.0378L129.589 18.173C129.513 18.4902 129.368 18.7672 129.155 19.0039C128.945 19.2382 128.675 19.4204 128.345 19.5505C128.016 19.6783 127.64 19.7421 127.216 19.742ZM135.091 15.6246L133.919 15.7522C133.886 15.6338 133.828 15.5225 133.745 15.4183C133.665 15.3141 133.556 15.23 133.419 15.1661C133.281 15.1021 133.113 15.0701 132.914 15.0701C132.647 15.07 132.422 15.128 132.24 15.2439C132.06 15.3599 131.971 15.5102 131.973 15.6949C131.971 15.8535 132.029 15.9825 132.147 16.082C132.268 16.1814 132.467 16.2632 132.744 16.3272L133.674 16.5262C134.19 16.6376 134.574 16.8141 134.825 17.0556C135.078 17.2972 135.206 17.6133 135.208 18.0039C135.205 18.3472 135.105 18.6502 134.906 18.9129C134.709 19.1733 134.436 19.3768 134.085 19.5235C133.735 19.6702 133.332 19.7435 132.878 19.7434C132.21 19.7432 131.673 19.6034 131.266 19.324C130.859 19.0421 130.616 18.6503 130.538 18.1484L131.792 18.0279C131.848 18.2742 131.969 18.46 132.154 18.5855C132.338 18.7111 132.579 18.7739 132.875 18.7739C133.18 18.774 133.425 18.7113 133.61 18.5859C133.797 18.4605 133.89 18.3054 133.89 18.1208C133.89 17.9645 133.83 17.8355 133.709 17.7336C133.591 17.6318 133.406 17.5536 133.155 17.4991L132.225 17.3036C131.702 17.1946 131.315 17.011 131.064 16.7529C130.813 16.4924 130.689 16.1633 130.691 15.7656C130.689 15.4294 130.78 15.1382 130.965 14.8921C131.152 14.6435 131.411 14.4518 131.743 14.317C132.077 14.1797 132.461 14.1112 132.897 14.1113C133.536 14.1114 134.039 14.2477 134.406 14.52C134.775 14.7924 135.004 15.1606 135.091 15.6246ZM138.732 19.7448C138.185 19.7446 137.713 19.6309 137.315 19.4035C136.92 19.1738 136.616 18.8494 136.403 18.4303C136.19 18.0088 136.084 17.5128 136.084 16.9423C136.084 16.3812 136.19 15.8888 136.404 15.4651C136.619 15.039 136.92 14.7076 137.306 14.471C137.692 14.232 138.145 14.1125 138.666 14.1127C139.002 14.1127 139.319 14.1673 139.618 14.2762C139.918 14.3828 140.183 14.5486 140.413 14.7736C140.645 14.9985 140.827 15.285 140.96 15.6331C141.092 15.9788 141.158 16.3907 141.158 16.8689L141.158 17.2631L136.687 17.262L136.688 16.3956L139.926 16.3963C139.924 16.1501 139.871 15.9311 139.767 15.7393C139.662 15.5452 139.517 15.3924 139.33 15.2811C139.145 15.1698 138.93 15.1141 138.684 15.1141C138.421 15.114 138.19 15.1779 137.991 15.3057C137.792 15.4311 137.637 15.5968 137.526 15.8027C137.417 16.0063 137.361 16.23 137.359 16.4738L137.359 17.2302C137.358 17.5475 137.416 17.8197 137.532 18.047C137.648 18.272 137.81 18.4448 138.019 18.5656C138.227 18.684 138.471 18.7433 138.75 18.7434C138.937 18.7434 139.106 18.7174 139.258 18.6653C139.41 18.6109 139.541 18.5317 139.652 18.4275C139.764 18.3234 139.848 18.1944 139.904 18.0405L141.105 18.1757C141.029 18.4929 140.884 18.7699 140.671 19.0066C140.461 19.2409 140.191 19.4231 139.862 19.5533C139.532 19.681 139.156 19.7449 138.732 19.7448ZM142.295 19.6391L142.296 14.1845L143.543 14.1848L143.543 15.0939L143.6 15.0939C143.699 14.7791 143.87 14.5365 144.111 14.3661C144.355 14.1933 144.633 14.107 144.946 14.107C145.017 14.1071 145.096 14.1106 145.184 14.1177C145.274 14.1225 145.348 14.1308 145.407 14.1427L145.407 15.3252C145.353 15.3062 145.266 15.2896 145.148 15.2754C145.032 15.2588 144.919 15.2505 144.81 15.2505C144.576 15.2504 144.365 15.3013 144.178 15.403C143.994 15.5024 143.848 15.6409 143.741 15.8184C143.635 15.9959 143.582 16.2007 143.581 16.4327L143.581 19.6394L142.295 19.6391ZM151.349 14.1867L149.406 19.6408L147.985 19.6404L146.044 14.1854L147.415 14.1858L148.667 18.2379L148.724 18.2379L149.982 14.1864L151.349 14.1867ZM154.517 19.7485C153.97 19.7484 153.498 19.6346 153.1 19.4073C152.705 19.1775 152.401 18.8531 152.188 18.434C151.975 18.0126 151.868 17.5166 151.868 16.946C151.869 16.385 151.975 15.8926 152.188 15.4688C152.404 15.0428 152.705 14.7114 153.091 14.4747C153.477 14.2357 153.93 14.1163 154.451 14.1164C154.787 14.1165 155.104 14.171 155.402 14.28C155.703 14.3866 155.968 14.5524 156.198 14.7773C156.43 15.0023 156.612 15.2888 156.744 15.6368C156.877 15.9825 156.943 16.3945 156.943 16.8727L156.943 17.2668L152.472 17.2658L152.472 16.3993L155.711 16.4001C155.709 16.1539 155.655 15.9349 155.551 15.7431C155.447 15.5489 155.302 15.3962 155.115 15.2849C154.93 15.1736 154.715 15.1179 154.468 15.1178C154.206 15.1178 153.975 15.1816 153.776 15.3094C153.577 15.4348 153.422 15.6005 153.311 15.8065C153.202 16.01 153.146 16.2337 153.143 16.4776L153.143 17.234C153.143 17.5512 153.201 17.8235 153.317 18.0508C153.433 18.2757 153.595 18.4486 153.803 18.5694C154.012 18.6878 154.256 18.747 154.535 18.7471C154.722 18.7471 154.891 18.7211 155.043 18.6691C155.194 18.6147 155.326 18.5354 155.437 18.4313C155.548 18.3271 155.632 18.1981 155.689 18.0442L156.889 18.1795C156.814 18.4967 156.669 18.7736 156.456 19.0103C156.245 19.2447 155.975 19.4269 155.646 19.557C155.317 19.6848 154.941 19.7486 154.517 19.7485ZM160.104 19.7392C159.676 19.7391 159.292 19.6289 158.954 19.4087C158.615 19.1884 158.348 18.8687 158.151 18.4497C157.955 18.0306 157.857 17.5216 157.857 16.9226C157.857 16.3165 157.957 15.8052 158.156 15.3886C158.357 14.9696 158.628 14.6536 158.969 14.4406C159.31 14.2253 159.69 14.1176 160.109 14.1177C160.429 14.1178 160.691 14.1723 160.897 14.2813C161.103 14.3879 161.267 14.5169 161.387 14.6685C161.508 14.8176 161.601 14.9585 161.668 15.0911L161.721 15.0911L161.722 12.371L163.011 12.3713L163.009 19.644L161.745 19.6437L161.745 18.7843L161.667 18.7843C161.6 18.9169 161.505 19.0577 161.379 19.2068C161.254 19.3536 161.088 19.479 160.882 19.5831C160.676 19.6872 160.417 19.7393 160.104 19.7392ZM160.463 18.6846C160.735 18.6846 160.967 18.6113 161.159 18.4646C161.351 18.3155 161.497 18.1084 161.596 17.8432C161.695 17.5781 161.745 17.2692 161.745 16.9164C161.745 16.5637 161.696 16.2571 161.596 15.9966C161.499 15.7362 161.355 15.5338 161.163 15.3893C160.974 15.2448 160.741 15.1726 160.464 15.1725C160.177 15.1724 159.938 15.247 159.746 15.3961C159.555 15.5452 159.41 15.7511 159.313 16.0139C159.216 16.2766 159.167 16.5773 159.167 16.9158C159.167 17.2567 159.216 17.5609 159.313 17.8285C159.412 18.0937 159.558 18.3032 159.749 18.4571C159.943 18.6087 160.181 18.6845 160.463 18.6846Z" fill="white"/>
<path d="M197.222 19.6521L197.224 12.3794L199.951 12.38C200.51 12.3802 200.979 12.4844 201.357 12.6929C201.739 12.9013 202.026 13.1878 202.22 13.5525C202.417 13.9147 202.515 14.3267 202.515 14.7883C202.515 15.2547 202.416 15.669 202.22 16.0311C202.023 16.3933 201.733 16.6785 201.349 16.8868C200.966 17.0926 200.493 17.1955 199.932 17.1954L198.125 17.1949L198.125 16.1118L199.755 16.1122C200.082 16.1123 200.349 16.0556 200.558 15.942C200.766 15.8284 200.92 15.6722 201.019 15.4733C201.121 15.2745 201.172 15.046 201.172 14.788C201.172 14.5299 201.122 14.3027 201.02 14.1061C200.92 13.9096 200.765 13.7569 200.555 13.6479C200.346 13.5366 200.078 13.4809 199.749 13.4808L198.541 13.4806L198.54 19.6524L197.222 19.6521ZM225.382 19.6588L225.384 12.3861L228.111 12.3867C228.67 12.3869 229.139 12.484 229.518 12.6782C229.899 12.8725 230.186 13.1448 230.38 13.4952C230.577 13.8433 230.675 14.2493 230.675 14.7133C230.675 15.1797 230.575 15.5845 230.376 15.9277C230.18 16.2686 229.89 16.5325 229.506 16.7194C229.122 16.904 228.651 16.9962 228.093 16.9961L226.15 16.9956L226.15 15.9019L227.915 15.9023C228.242 15.9024 228.51 15.8575 228.718 15.7675C228.926 15.6753 229.08 15.5415 229.18 15.3664C229.281 15.1888 229.332 14.9711 229.333 14.713C229.333 14.455 229.282 14.2348 229.18 14.0525C229.078 13.8678 228.923 13.7281 228.715 13.6333C228.507 13.5362 228.238 13.4876 227.909 13.4875L226.701 13.4872L226.7 19.6591L225.382 19.6588ZM229.14 16.3642L230.94 19.6601L229.47 19.6598L227.702 16.3639L229.14 16.3642Z" fill="#AC04FF"/>
<path d="M203.651 19.6536L203.652 14.1991L204.899 14.1994L204.899 15.1085L204.955 15.1085C205.055 14.7937 205.225 14.551 205.467 14.3806C205.711 14.2079 205.989 14.1215 206.301 14.1216C206.373 14.1216 206.452 14.1252 206.539 14.1323C206.629 14.1371 206.704 14.1454 206.763 14.1572L206.763 15.3398C206.708 15.3208 206.622 15.3042 206.504 15.29C206.388 15.2734 206.275 15.2651 206.166 15.265C205.932 15.265 205.721 15.3158 205.534 15.4176C205.349 15.517 205.204 15.6554 205.097 15.833C204.991 16.0105 204.937 16.2153 204.937 16.4473L204.937 19.6539L203.651 19.6536ZM207.666 19.6546L207.667 14.2001L208.953 14.2004L208.951 19.6549L207.666 19.6546ZM208.314 13.4261C208.11 13.426 207.935 13.3585 207.788 13.2235C207.641 13.0862 207.568 12.9216 207.568 12.7299C207.568 12.5357 207.642 12.3712 207.788 12.2363C207.935 12.099 208.11 12.0304 208.314 12.0305C208.52 12.0305 208.695 12.0992 208.84 12.2366C208.986 12.3715 209.06 12.5361 209.06 12.7302C209.06 12.922 208.986 13.0865 208.839 13.2238C208.695 13.3587 208.52 13.4261 208.314 13.4261ZM210.323 19.6552L210.325 14.2007L211.553 14.201L211.553 15.1278L211.617 15.1278C211.731 14.8154 211.919 14.5716 212.182 14.3964C212.445 14.2189 212.758 14.1302 213.123 14.1303C213.492 14.1304 213.804 14.2204 214.057 14.4004C214.312 14.578 214.492 14.8208 214.596 15.1285L214.653 15.1286C214.774 14.8256 214.978 14.5841 215.264 14.4043C215.553 14.222 215.895 14.131 216.291 14.1311C216.792 14.1312 217.202 14.2899 217.519 14.6072C217.836 14.9245 217.995 15.3874 217.995 15.9958L217.994 19.657L216.705 19.6567L216.706 16.1944C216.706 15.8558 216.616 15.6084 216.436 15.4521C216.256 15.2935 216.036 15.2141 215.775 15.214C215.465 15.214 215.223 15.311 215.047 15.5051C214.874 15.6968 214.788 15.9465 214.788 16.2543L214.787 19.6563L213.526 19.656L213.527 16.1404C213.527 15.8586 213.442 15.6337 213.272 15.4656C213.104 15.2975 212.884 15.2134 212.611 15.2133C212.427 15.2133 212.259 15.2606 212.107 15.3552C211.955 15.4475 211.835 15.5789 211.745 15.7493C211.655 15.9174 211.61 16.1139 211.61 16.3388L211.609 19.6555L210.323 19.6552ZM221.763 19.7645C221.216 19.7643 220.744 19.6506 220.346 19.4232C219.951 19.1935 219.646 18.8691 219.433 18.45C219.22 18.0285 219.114 17.5325 219.114 16.962C219.114 16.4009 219.221 15.9085 219.434 15.4848C219.65 15.0587 219.95 14.7273 220.336 14.4907C220.722 14.2517 221.176 14.1322 221.697 14.1324C222.033 14.1324 222.35 14.187 222.648 14.2959C222.949 14.4025 223.214 14.5683 223.444 14.7933C223.675 15.0182 223.858 15.3047 223.99 15.6528C224.123 15.9985 224.189 16.4104 224.189 16.8886L224.189 17.2828L219.718 17.2817L219.718 16.4153L222.957 16.416C222.954 16.1698 222.901 15.9508 222.797 15.759C222.693 15.5649 222.547 15.4122 222.36 15.3008C222.176 15.1895 221.96 15.1338 221.714 15.1338C221.451 15.1337 221.22 15.1976 221.022 15.3254C220.823 15.4508 220.668 15.6165 220.556 15.8224C220.447 16.026 220.392 16.2497 220.389 16.4936L220.389 17.2499C220.389 17.5672 220.447 17.8394 220.563 18.0667C220.679 18.2917 220.841 18.4645 221.049 18.5853C221.257 18.7037 221.501 18.763 221.781 18.7631C221.968 18.7631 222.137 18.7371 222.288 18.6851C222.44 18.6306 222.571 18.5514 222.683 18.4472C222.794 18.3431 222.878 18.2141 222.935 18.0602L224.135 18.1954C224.059 18.5127 223.915 18.7896 223.702 19.0263C223.491 19.2606 223.221 19.4429 222.892 19.573C222.563 19.7007 222.186 19.7646 221.763 19.7645ZM234.216 19.7674C233.669 19.7673 233.197 19.6536 232.799 19.4262C232.404 19.1964 232.1 18.872 231.887 18.453C231.674 18.0315 231.568 17.5355 231.568 16.965C231.568 16.4039 231.674 15.9115 231.888 15.4878C232.103 15.0617 232.404 14.7303 232.79 14.4937C233.176 14.2546 233.629 14.1352 234.15 14.1353C234.486 14.1354 234.803 14.1899 235.102 14.2989C235.402 14.4055 235.667 14.5713 235.897 14.7962C236.129 15.0212 236.311 15.3077 236.444 15.6557C236.576 16.0014 236.642 16.4134 236.642 16.8916L236.642 17.2858L232.171 17.2847L232.172 16.4182L235.41 16.419C235.408 16.1728 235.355 15.9538 235.251 15.762C235.146 15.5678 235.001 15.4151 234.814 15.3038C234.629 15.1925 234.414 15.1368 234.168 15.1367C233.905 15.1367 233.674 15.2005 233.475 15.3283C233.276 15.4538 233.121 15.6194 233.01 15.8254C232.901 16.029 232.845 16.2527 232.843 16.4965L232.842 17.2529C232.842 17.5701 232.9 17.8424 233.016 18.0697C233.132 18.2946 233.294 18.4675 233.503 18.5883C233.711 18.7067 233.955 18.7659 234.234 18.766C234.421 18.7661 234.59 18.7401 234.742 18.688C234.894 18.6336 235.025 18.5543 235.136 18.4502C235.248 18.346 235.332 18.217 235.388 18.0632L236.589 18.1984C236.513 18.5156 236.368 18.7926 236.155 19.0293C235.945 19.2636 235.675 19.4458 235.345 19.5759C235.016 19.7037 234.64 19.7675 234.216 19.7674ZM242.091 15.65L240.919 15.7775C240.886 15.6592 240.828 15.5479 240.745 15.4437C240.665 15.3395 240.556 15.2554 240.419 15.1915C240.281 15.1275 240.113 15.0955 239.914 15.0955C239.647 15.0954 239.422 15.1534 239.24 15.2693C239.06 15.3853 238.971 15.5356 238.973 15.7203C238.971 15.8789 239.029 16.0079 239.147 16.1074C239.268 16.2068 239.467 16.2886 239.744 16.3525L240.674 16.5516C241.19 16.663 241.574 16.8395 241.825 17.081C242.078 17.3226 242.206 17.6386 242.208 18.0293C242.205 18.3725 242.105 18.6756 241.906 18.9383C241.709 19.1987 241.436 19.4022 241.085 19.5489C240.735 19.6956 240.332 19.7689 239.878 19.7688C239.21 19.7686 238.673 19.6288 238.266 19.3494C237.859 19.0675 237.616 18.6757 237.538 18.1738L238.792 18.0533C238.848 18.2995 238.969 18.4854 239.154 18.6109C239.338 18.7364 239.579 18.7992 239.875 18.7993C240.18 18.7994 240.425 18.7367 240.61 18.6113C240.797 18.4858 240.89 18.3308 240.89 18.1461C240.89 17.9899 240.83 17.8609 240.709 17.759C240.591 17.6572 240.406 17.579 240.155 17.5245L239.225 17.329C238.702 17.22 238.315 17.0364 238.064 16.7783C237.813 16.5178 237.689 16.1887 237.691 15.791C237.689 15.4548 237.78 15.1636 237.965 14.9175C238.152 14.6689 238.411 14.4772 238.743 14.3424C239.077 14.2051 239.461 14.1366 239.897 14.1367C240.536 14.1368 241.039 14.2731 241.406 14.5454C241.775 14.8178 242.004 15.1859 242.091 15.65ZM245.732 19.7702C245.185 19.77 244.713 19.6563 244.315 19.4289C243.92 19.1992 243.616 18.8748 243.403 18.4557C243.19 18.0342 243.084 17.5382 243.084 16.9677C243.084 16.4066 243.19 15.9142 243.404 15.4905C243.619 15.0644 243.92 14.733 244.306 14.4964C244.692 14.2574 245.145 14.1379 245.666 14.138C246.002 14.1381 246.319 14.1926 246.618 14.3016C246.918 14.4082 247.183 14.574 247.413 14.799C247.645 15.0239 247.827 15.3104 247.96 15.6585C248.092 16.0041 248.158 16.4161 248.158 16.8943L248.158 17.2885L243.687 17.2874L243.688 16.421L246.926 16.4217C246.924 16.1755 246.871 15.9565 246.767 15.7647C246.662 15.5706 246.517 15.4178 246.33 15.3065C246.145 15.1952 245.93 15.1395 245.684 15.1395C245.421 15.1394 245.19 15.2033 244.991 15.3311C244.792 15.4565 244.637 15.6222 244.526 15.8281C244.417 16.0317 244.361 16.2554 244.359 16.4992L244.359 17.2556C244.358 17.5729 244.416 17.8451 244.532 18.0724C244.648 18.2974 244.81 18.4702 245.019 18.591C245.227 18.7094 245.471 18.7687 245.75 18.7687C245.937 18.7688 246.106 18.7428 246.258 18.6907C246.41 18.6363 246.541 18.557 246.652 18.4529C246.764 18.3488 246.848 18.2198 246.904 18.0659L248.105 18.2011C248.029 18.5183 247.884 18.7953 247.671 19.032C247.461 19.2663 247.191 19.4485 246.862 19.5787C246.532 19.7064 246.156 19.7703 245.732 19.7702ZM249.295 19.6645L249.296 14.2099L250.543 14.2102L250.543 15.1193L250.6 15.1193C250.699 14.8045 250.87 14.5619 251.111 14.3915C251.355 14.2187 251.633 14.1324 251.946 14.1324C252.017 14.1324 252.096 14.136 252.184 14.1431C252.274 14.1479 252.348 14.1562 252.407 14.1681L252.407 15.3506C252.353 15.3316 252.266 15.315 252.148 15.3008C252.032 15.2842 251.919 15.2759 251.81 15.2759C251.576 15.2758 251.365 15.3267 251.178 15.4284C250.994 15.5278 250.848 15.6663 250.741 15.8438C250.635 16.0213 250.582 16.2261 250.581 16.4581L250.581 19.6648L249.295 19.6645ZM258.349 14.2121L256.406 19.6662L254.985 19.6658L253.044 14.2108L254.415 14.2111L255.667 18.2633L255.724 18.2633L256.982 14.2117L258.349 14.2121ZM261.517 19.7739C260.97 19.7738 260.498 19.66 260.1 19.4327C259.705 19.2029 259.401 18.8785 259.188 18.4594C258.975 18.038 258.868 17.542 258.868 16.9714C258.869 16.4104 258.975 15.918 259.188 15.4942C259.404 15.0681 259.705 14.7368 260.091 14.5001C260.477 14.2611 260.93 14.1417 261.451 14.1418C261.787 14.1419 262.104 14.1964 262.402 14.3054C262.703 14.412 262.968 14.5778 263.198 14.8027C263.43 15.0277 263.612 15.3142 263.744 15.6622C263.877 16.0079 263.943 16.4198 263.943 16.8981L263.943 17.2922L259.472 17.2912L259.472 16.4247L262.711 16.4255C262.709 16.1793 262.655 15.9603 262.551 15.7685C262.447 15.5743 262.302 15.4216 262.115 15.3103C261.93 15.199 261.715 15.1433 261.468 15.1432C261.206 15.1431 260.975 15.207 260.776 15.3348C260.577 15.4602 260.422 15.6259 260.311 15.8319C260.202 16.0354 260.146 16.2591 260.143 16.503L260.143 17.2594C260.143 17.5766 260.201 17.8489 260.317 18.0762C260.433 18.3011 260.595 18.474 260.803 18.5948C261.012 18.7132 261.256 18.7724 261.535 18.7725C261.722 18.7725 261.891 18.7465 262.043 18.6945C262.194 18.6401 262.326 18.5608 262.437 18.4567C262.548 18.3525 262.632 18.2235 262.689 18.0696L263.889 18.2049C263.814 18.5221 263.669 18.799 263.456 19.0357C263.245 19.2701 262.975 19.4523 262.646 19.5824C262.317 19.7102 261.941 19.774 261.517 19.7739ZM267.104 19.7646C266.676 19.7645 266.292 19.6543 265.954 19.434C265.615 19.2138 265.348 18.8941 265.151 18.4751C264.955 18.056 264.857 17.547 264.857 16.948C264.857 16.3419 264.957 15.8306 265.156 15.414C265.357 14.995 265.628 14.679 265.969 14.466C266.31 14.2507 266.69 14.143 267.109 14.1431C267.429 14.1432 267.691 14.1977 267.897 14.3067C268.103 14.4133 268.267 14.5423 268.387 14.6939C268.508 14.843 268.601 14.9839 268.668 15.1165L268.721 15.1165L268.722 12.3964L270.011 12.3967L270.009 19.6694L268.745 19.6691L268.745 18.8097L268.667 18.8097C268.6 18.9423 268.505 19.0831 268.379 19.2322C268.254 19.379 268.088 19.5044 267.882 19.6085C267.676 19.7126 267.417 19.7647 267.104 19.7646ZM267.463 18.71C267.735 18.71 267.967 18.6367 268.159 18.49C268.351 18.3409 268.497 18.1338 268.596 17.8686C268.695 17.6035 268.745 17.2946 268.745 16.9418C268.745 16.5891 268.696 16.2825 268.596 16.022C268.499 15.7616 268.355 15.5591 268.163 15.4147C267.974 15.2702 267.741 15.198 267.464 15.1979C267.177 15.1978 266.938 15.2724 266.746 15.4215C266.555 15.5706 266.41 15.7765 266.313 16.0392C266.216 16.302 266.167 16.6027 266.167 16.9412C266.167 17.2821 266.216 17.5863 266.313 17.8539C266.412 18.1191 266.558 18.3286 266.749 18.4825C266.943 18.6341 267.181 18.7099 267.463 18.71Z" fill="white"/>
<path d="M304.222 19.6775L304.224 12.4048L306.951 12.4054C307.51 12.4056 307.979 12.5098 308.357 12.7183C308.739 12.9267 309.026 13.2132 309.22 13.5778C309.417 13.9401 309.515 14.3521 309.515 14.8137C309.515 15.2801 309.416 15.6944 309.22 16.0565C309.023 16.4187 308.733 16.7039 308.349 16.9122C307.966 17.118 307.493 17.2209 306.932 17.2208L305.125 17.2203L305.125 16.1372L306.755 16.1376C307.082 16.1377 307.349 16.0809 307.558 15.9674C307.766 15.8538 307.92 15.6976 308.019 15.4987C308.121 15.2999 308.172 15.0714 308.172 14.8134C308.172 14.5553 308.122 14.3281 308.02 14.1315C307.92 13.935 307.765 13.7823 307.555 13.6733C307.346 13.562 307.078 13.5063 306.749 13.5062L305.541 13.5059L305.54 19.6778L304.222 19.6775ZM332.382 19.6842L332.384 12.4115L335.111 12.4121C335.67 12.4122 336.139 12.5094 336.518 12.7036C336.899 12.8979 337.186 13.1702 337.38 13.5206C337.577 13.8687 337.675 14.2747 337.675 14.7387C337.675 15.2051 337.575 15.6099 337.376 15.9531C337.18 16.294 336.89 16.5579 336.506 16.7448C336.122 16.9294 335.651 17.0216 335.093 17.0215L333.15 17.021L333.15 15.9273L334.915 15.9277C335.242 15.9278 335.51 15.8828 335.718 15.7929C335.926 15.7007 336.08 15.5669 336.18 15.3918C336.281 15.2142 336.332 14.9964 336.333 14.7384C336.333 14.4803 336.282 14.2602 336.18 14.0778C336.078 13.8932 335.923 13.7534 335.715 13.6587C335.507 13.5616 335.238 13.513 334.909 13.5129L333.701 13.5126L333.7 19.6845L332.382 19.6842ZM336.14 16.3896L337.94 19.6855L336.47 19.6852L334.702 16.3893L336.14 16.3896Z" fill="#AC04FF"/>
<path d="M310.651 19.679L310.652 14.2245L311.899 14.2248L311.899 15.1339L311.955 15.1339C312.055 14.819 312.225 14.5764 312.467 14.406C312.711 14.2333 312.989 14.1469 313.301 14.147C313.373 14.147 313.452 14.1506 313.539 14.1577C313.629 14.1625 313.704 14.1708 313.763 14.1826L313.763 15.3651C313.708 15.3462 313.622 15.3296 313.504 15.3154C313.388 15.2988 313.275 15.2905 313.166 15.2904C312.932 15.2904 312.721 15.3412 312.534 15.443C312.349 15.5424 312.204 15.6808 312.097 15.8584C311.991 16.0359 311.937 16.2407 311.937 16.4727L311.937 19.6793L310.651 19.679ZM314.666 19.68L314.667 14.2254L315.953 14.2257L315.951 19.6803L314.666 19.68ZM315.314 13.4514C315.11 13.4514 314.935 13.3839 314.788 13.2489C314.641 13.1116 314.568 12.947 314.568 12.7552C314.568 12.5611 314.642 12.3966 314.788 12.2617C314.935 12.1244 315.11 12.0558 315.314 12.0559C315.52 12.0559 315.695 12.1246 315.84 12.2619C315.986 12.3969 316.06 12.5615 316.06 12.7556C316.06 12.9474 315.986 13.1119 315.839 13.2492C315.695 13.3841 315.52 13.4515 315.314 13.4514ZM317.323 19.6806L317.325 14.2261L318.553 14.2264L318.553 15.1532L318.617 15.1532C318.731 14.8408 318.919 14.597 319.182 14.4218C319.445 14.2443 319.758 14.1556 320.123 14.1557C320.492 14.1558 320.804 14.2458 321.057 14.4258C321.312 14.6034 321.492 14.8461 321.596 15.1539L321.653 15.1539C321.774 14.8509 321.978 14.6095 322.264 14.4297C322.553 14.2474 322.895 14.1564 323.291 14.1565C323.792 14.1566 324.202 14.3153 324.519 14.6326C324.836 14.9499 324.995 15.4128 324.995 16.0212L324.994 19.6824L323.705 19.6821L323.706 16.2198C323.706 15.8812 323.616 15.6338 323.436 15.4775C323.256 15.3189 323.036 15.2395 322.775 15.2394C322.465 15.2394 322.223 15.3364 322.047 15.5305C321.874 15.7222 321.788 15.9719 321.788 16.2797L321.787 19.6817L320.526 19.6814L320.527 16.1658C320.527 15.884 320.442 15.6591 320.272 15.491C320.104 15.3228 319.884 15.2388 319.611 15.2387C319.427 15.2386 319.259 15.286 319.107 15.3806C318.955 15.4729 318.835 15.6043 318.745 15.7747C318.655 15.9428 318.61 16.1393 318.61 16.3642L318.609 19.6809L317.323 19.6806ZM328.763 19.7899C328.216 19.7897 327.744 19.676 327.346 19.4486C326.951 19.2189 326.646 18.8945 326.433 18.4754C326.22 18.0539 326.114 17.5579 326.114 16.9874C326.114 16.4263 326.221 15.9339 326.434 15.5102C326.65 15.0841 326.95 14.7527 327.336 14.5161C327.722 14.2771 328.176 14.1576 328.697 14.1577C329.033 14.1578 329.35 14.2124 329.648 14.3213C329.949 14.4279 330.214 14.5937 330.444 14.8187C330.675 15.0436 330.858 15.3301 330.99 15.6782C331.123 16.0239 331.189 16.4358 331.189 16.914L331.189 17.3082L326.718 17.3071L326.718 16.4407L329.957 16.4414C329.954 16.1952 329.901 15.9762 329.797 15.7844C329.693 15.5903 329.547 15.4375 329.36 15.3262C329.176 15.2149 328.96 15.1592 328.714 15.1592C328.451 15.1591 328.22 15.223 328.022 15.3508C327.823 15.4762 327.668 15.6419 327.556 15.8478C327.447 16.0514 327.392 16.2751 327.389 16.5189L327.389 17.2753C327.389 17.5926 327.447 17.8648 327.563 18.0921C327.679 18.3171 327.841 18.4899 328.049 18.6107C328.257 18.7291 328.501 18.7884 328.781 18.7884C328.968 18.7885 329.137 18.7625 329.288 18.7104C329.44 18.656 329.571 18.5768 329.683 18.4726C329.794 18.3685 329.878 18.2395 329.935 18.0856L331.135 18.2208C331.059 18.538 330.915 18.815 330.702 19.0517C330.491 19.286 330.221 19.4682 329.892 19.5984C329.563 19.7261 329.186 19.79 328.763 19.7899ZM341.216 19.7928C340.669 19.7927 340.197 19.6789 339.799 19.4516C339.404 19.2218 339.1 18.8974 338.887 18.4783C338.674 18.0569 338.568 17.5609 338.568 16.9903C338.568 16.4293 338.674 15.9369 338.888 15.5131C339.103 15.0871 339.404 14.7557 339.79 14.519C340.176 14.28 340.629 14.1606 341.15 14.1607C341.486 14.1608 341.803 14.2153 342.102 14.3243C342.402 14.4309 342.667 14.5967 342.897 14.8216C343.129 15.0466 343.311 15.3331 343.444 15.6811C343.576 16.0268 343.642 16.4388 343.642 16.917L343.642 17.3112L339.171 17.3101L339.172 16.4436L342.41 16.4444C342.408 16.1982 342.355 15.9792 342.251 15.7874C342.146 15.5932 342.001 15.4405 341.814 15.3292C341.629 15.2179 341.414 15.1622 341.168 15.1621C340.905 15.1621 340.674 15.2259 340.475 15.3537C340.276 15.4791 340.121 15.6448 340.01 15.8508C339.901 16.0543 339.845 16.2781 339.843 16.5219L339.842 17.2783C339.842 17.5955 339.9 17.8678 340.016 18.0951C340.132 18.32 340.294 18.4929 340.503 18.6137C340.711 18.7321 340.955 18.7913 341.234 18.7914C341.421 18.7914 341.59 18.7654 341.742 18.7134C341.894 18.659 342.025 18.5797 342.136 18.4756C342.248 18.3714 342.332 18.2424 342.388 18.0886L343.589 18.2238C343.513 18.541 343.368 18.818 343.155 19.0546C342.945 19.289 342.675 19.4712 342.345 19.6013C342.016 19.7291 341.64 19.7929 341.216 19.7928ZM349.091 15.6754L347.919 15.8029C347.886 15.6846 347.828 15.5733 347.745 15.4691C347.665 15.3649 347.556 15.2808 347.419 15.2169C347.281 15.1529 347.113 15.1209 346.914 15.1209C346.647 15.1208 346.422 15.1788 346.24 15.2947C346.06 15.4107 345.971 15.561 345.973 15.7457C345.971 15.9043 346.029 16.0333 346.147 16.1328C346.268 16.2322 346.467 16.314 346.744 16.3779L347.674 16.577C348.19 16.6884 348.574 16.8649 348.825 17.1064C349.078 17.348 349.206 17.664 349.208 18.0547C349.205 18.3979 349.105 18.7009 348.906 18.9637C348.709 19.224 348.436 19.4276 348.085 19.5743C347.735 19.721 347.332 19.7943 346.878 19.7942C346.21 19.794 345.673 19.6542 345.266 19.3747C344.859 19.0929 344.616 18.7011 344.538 18.1991L345.792 18.0787C345.848 18.3249 345.969 18.5108 346.154 18.6363C346.338 18.7618 346.579 18.8246 346.875 18.8247C347.18 18.8248 347.425 18.7621 347.61 18.6367C347.797 18.5112 347.89 18.3562 347.89 18.1715C347.89 18.0153 347.83 17.8862 347.709 17.7844C347.591 17.6826 347.406 17.6044 347.155 17.5499L346.225 17.3544C345.702 17.2454 345.315 17.0618 345.064 16.8037C344.813 16.5432 344.689 16.2141 344.691 15.8164C344.689 15.4802 344.78 15.189 344.965 14.9429C345.152 14.6943 345.411 14.5026 345.743 14.3678C346.077 14.2305 346.461 14.162 346.897 14.1621C347.536 14.1622 348.039 14.2985 348.406 14.5708C348.775 14.8431 349.004 15.2113 349.091 15.6754ZM352.732 19.7956C352.185 19.7954 351.713 19.6817 351.315 19.4543C350.92 19.2246 350.616 18.9002 350.403 18.4811C350.19 18.0596 350.084 17.5636 350.084 16.9931C350.084 16.432 350.19 15.9396 350.404 15.5159C350.619 15.0898 350.92 14.7584 351.306 14.5218C351.692 14.2828 352.145 14.1633 352.666 14.1634C353.002 14.1635 353.319 14.218 353.618 14.327C353.918 14.4336 354.183 14.5994 354.413 14.8244C354.645 15.0493 354.827 15.3358 354.96 15.6839C355.092 16.0295 355.158 16.4415 355.158 16.9197L355.158 17.3139L350.687 17.3128L350.688 16.4463L353.926 16.4471C353.924 16.2009 353.871 15.9819 353.767 15.7901C353.662 15.596 353.517 15.4432 353.33 15.3319C353.145 15.2206 352.93 15.1649 352.684 15.1649C352.421 15.1648 352.19 15.2287 351.991 15.3565C351.792 15.4819 351.637 15.6476 351.526 15.8535C351.417 16.0571 351.361 16.2808 351.359 16.5246L351.359 17.281C351.358 17.5983 351.416 17.8705 351.532 18.0978C351.648 18.3228 351.81 18.4956 352.019 18.6164C352.227 18.7348 352.471 18.7941 352.75 18.7941C352.937 18.7942 353.106 18.7682 353.258 18.7161C353.41 18.6617 353.541 18.5824 353.652 18.4783C353.764 18.3742 353.848 18.2452 353.904 18.0913L355.105 18.2265C355.029 18.5437 354.884 18.8207 354.671 19.0574C354.461 19.2917 354.191 19.4739 353.862 19.6041C353.532 19.7318 353.156 19.7957 352.732 19.7956ZM356.295 19.6899L356.296 14.2353L357.543 14.2356L357.543 15.1447L357.6 15.1447C357.699 14.8299 357.87 14.5873 358.111 14.4169C358.355 14.2441 358.633 14.1577 358.946 14.1578C359.017 14.1578 359.096 14.1614 359.184 14.1685C359.274 14.1733 359.348 14.1816 359.407 14.1934L359.407 15.376C359.353 15.357 359.266 15.3404 359.148 15.3262C359.032 15.3096 358.919 15.3013 358.81 15.3013C358.576 15.3012 358.365 15.352 358.178 15.4538C357.994 15.5532 357.848 15.6917 357.741 15.8692C357.635 16.0467 357.582 16.2515 357.581 16.4835L357.581 19.6902L356.295 19.6899ZM365.349 14.2375L363.406 19.6915L361.985 19.6912L360.044 14.2362L361.415 14.2365L362.667 18.2887L362.724 18.2887L363.982 14.2371L365.349 14.2375ZM368.517 19.7993C367.97 19.7992 367.498 19.6854 367.1 19.4581C366.705 19.2283 366.401 18.9039 366.188 18.4848C365.975 18.0634 365.868 17.5674 365.868 16.9968C365.869 16.4357 365.975 15.9433 366.188 15.5196C366.404 15.0935 366.705 14.7622 367.091 14.5255C367.477 14.2865 367.93 14.1671 368.451 14.1672C368.787 14.1673 369.104 14.2218 369.402 14.3308C369.703 14.4374 369.968 14.6031 370.198 14.8281C370.43 15.0531 370.612 15.3396 370.744 15.6876C370.877 16.0333 370.943 16.4452 370.943 16.9235L370.943 17.3176L366.472 17.3166L366.472 16.4501L369.711 16.4509C369.709 16.2046 369.655 15.9856 369.551 15.7939C369.447 15.5997 369.302 15.447 369.115 15.3357C368.93 15.2243 368.715 15.1687 368.468 15.1686C368.206 15.1685 367.975 15.2324 367.776 15.3602C367.577 15.4856 367.422 15.6513 367.311 15.8572C367.202 16.0608 367.146 16.2845 367.143 16.5284L367.143 17.2848C367.143 17.602 367.201 17.8743 367.317 18.1016C367.433 18.3265 367.595 18.4994 367.803 18.6201C368.012 18.7386 368.256 18.7978 368.535 18.7979C368.722 18.7979 368.891 18.7719 369.043 18.7199C369.194 18.6655 369.326 18.5862 369.437 18.482C369.548 18.3779 369.632 18.2489 369.689 18.095L370.889 18.2303C370.814 18.5475 370.669 18.8244 370.456 19.0611C370.245 19.2954 369.975 19.4777 369.646 19.6078C369.317 19.7356 368.941 19.7994 368.517 19.7993ZM374.104 19.79C373.676 19.7899 373.292 19.6797 372.954 19.4594C372.615 19.2392 372.348 18.9195 372.151 18.5004C371.955 18.0814 371.857 17.5723 371.857 16.9734C371.857 16.3673 371.957 15.856 372.156 15.4394C372.357 15.0204 372.628 14.7044 372.969 14.4914C373.31 14.276 373.69 14.1684 374.109 14.1685C374.429 14.1686 374.691 14.2231 374.897 14.3321C375.103 14.4386 375.267 14.5677 375.387 14.7192C375.508 14.8684 375.601 15.0093 375.668 15.1419L375.721 15.1419L375.722 12.4217L377.011 12.422L377.009 19.6948L375.745 19.6945L375.745 18.8351L375.667 18.8351C375.6 18.9676 375.505 19.1085 375.379 19.2576C375.254 19.4044 375.088 19.5298 374.882 19.6339C374.676 19.738 374.417 19.79 374.104 19.79ZM374.463 18.7354C374.735 18.7354 374.967 18.6621 375.159 18.5154C375.351 18.3663 375.497 18.1591 375.596 17.894C375.695 17.6289 375.745 17.32 375.745 16.9672C375.745 16.6145 375.696 16.3079 375.596 16.0474C375.499 15.787 375.355 15.5845 375.163 15.4401C374.974 15.2956 374.741 15.2234 374.464 15.2233C374.177 15.2232 373.938 15.2977 373.746 15.4468C373.555 15.5959 373.41 15.8019 373.313 16.0646C373.216 16.3274 373.167 16.6281 373.167 16.9666C373.167 17.3075 373.216 17.6117 373.313 17.8793C373.412 18.1444 373.558 18.354 373.749 18.5079C373.943 18.6595 374.181 18.7353 374.463 18.7354Z" fill="white"/>
</g>
<g clip-path="url(#clip1_438_2077)">
<rect x="-5" y="40.9531" width="462.639" height="35.0192" transform="rotate(-4.97425 -5 40.9531)" fill="#0E0014"/>
<path d="M-16.9916 60.8102L-17.6222 53.5649L-14.9052 53.3284C-14.3486 53.2799 -13.8726 53.3431 -13.4772 53.5178C-13.0794 53.6923 -12.768 53.9527 -12.543 54.2991C-12.3158 54.6429 -12.1822 55.0448 -12.1422 55.5047C-12.1018 55.9693 -12.1637 56.3906 -12.3281 56.7684C-12.4924 57.1463 -12.7566 57.4557 -13.1206 57.6965C-13.4848 57.9349 -13.9464 58.0785 -14.5054 58.1271L-16.3061 58.2839L-16.4 57.2048L-14.7762 57.0635C-14.4507 57.0352 -14.1891 56.9554 -13.9914 56.8241C-13.7937 56.6928 -13.654 56.5238 -13.5722 56.3171C-13.488 56.1101 -13.4571 55.8781 -13.4795 55.6211C-13.5018 55.364 -13.5723 55.142 -13.6907 54.955C-13.8068 54.7679 -13.9745 54.6292 -14.1939 54.539C-14.4111 54.4462 -14.6836 54.4141 -15.0114 54.4426L-16.2143 54.5473L-15.6791 60.696L-16.9916 60.8102ZM11.0625 58.3685L10.4319 51.1231L13.1489 50.8867C13.7055 50.8382 14.1809 50.8943 14.5751 51.0548C14.9716 51.2152 15.2818 51.4615 15.5056 51.7937C15.7315 52.1234 15.8646 52.5193 15.9048 52.9816C15.9453 53.4462 15.8813 53.8581 15.713 54.2174C15.5468 54.574 15.2807 54.8621 14.9149 55.0817C14.5488 55.2989 14.0875 55.4318 13.5309 55.4802L11.5957 55.6486L11.5009 54.559L13.2591 54.406C13.5846 54.3777 13.8472 54.3096 14.047 54.202C14.2465 54.0919 14.3882 53.9453 14.4721 53.7622C14.5581 53.5765 14.5899 53.3551 14.5676 53.098C14.5452 52.8409 14.4754 52.626 14.3582 52.4532C14.2407 52.2781 14.0741 52.1524 13.8584 52.0761C13.6424 51.9974 13.3705 51.9724 13.0427 52.0009L11.8398 52.1056L12.375 58.2542L11.0625 58.3685ZM14.5197 54.7597L16.5991 57.8866L15.1344 58.0141L13.0869 54.8844L14.5197 54.7597Z" fill="#AC04FF"/>
<path d="M-10.5871 60.2528L-11.0601 54.8188L-9.8183 54.7107L-9.73947 55.6164L-9.68287 55.6114C-9.61111 55.2891 -9.46234 55.0326 -9.23655 54.8418C-9.00861 54.6485 -8.73898 54.5383 -8.42766 54.5112C-8.3569 54.5051 -8.27758 54.5017 -8.1897 54.5012C-8.09967 54.4981 -8.02466 54.4999 -7.96467 54.5066L-7.86213 55.6847C-7.91802 55.6705 -8.00554 55.6615 -8.1247 55.6576C-8.2417 55.6512 -8.35445 55.6527 -8.46294 55.6621C-8.69644 55.6824 -8.90193 55.7514 -9.07942 55.869C-9.25477 55.9841 -9.38781 56.1347 -9.47854 56.3208C-9.56928 56.5069 -9.60459 56.7156 -9.58447 56.9467L-9.30643 60.1413L-10.5871 60.2528ZM-6.58738 59.9046L-7.06033 54.4706L-5.77966 54.3592L-5.30671 59.7932L-6.58738 59.9046ZM-6.48358 53.6434C-6.68641 53.661 -6.86679 53.609 -7.02472 53.4873C-7.18285 53.3632 -7.27023 53.2057 -7.28686 53.0146C-7.30369 52.8212 -7.24485 52.651 -7.11032 52.5038C-6.976 52.3543 -6.80742 52.2707 -6.60459 52.253C-6.3994 52.2352 -6.21892 52.2884 -6.06314 52.4127C-5.90521 52.5344 -5.81783 52.6919 -5.801 52.8853C-5.78437 53.0764 -5.84322 53.2466 -5.97754 53.3962C-6.10971 53.5431 -6.27839 53.6255 -6.48358 53.6434ZM-3.93996 59.6742L-4.41292 54.2402L-3.18885 54.1337L-3.10849 55.057L-3.04481 55.0515C-2.95869 54.7303 -2.79234 54.4711 -2.54573 54.2738C-2.29933 54.0741 -1.99453 53.9585 -1.63132 53.9268C-1.26339 53.8948 -0.945447 53.9574 -0.677486 54.1147C-0.407371 54.2694 -0.207084 54.4956 -0.0766241 54.7932L-0.0200197 54.7882C0.0739891 54.4759 0.255883 54.2177 0.525661 54.0136C0.797593 53.8069 1.13049 53.6865 1.52437 53.6522C2.02437 53.6087 2.44614 53.7312 2.78969 54.0197C3.13324 54.3082 3.33139 54.7556 3.38414 55.3617L3.7016 59.0091L2.41739 59.1209L2.11718 55.6716C2.08783 55.3343 1.97675 55.0957 1.78396 54.9556C1.59096 54.8132 1.36474 54.7533 1.1053 54.7758C0.796338 54.8027 0.563007 54.9205 0.405311 55.1291C0.249767 55.3351 0.185338 55.5914 0.212023 55.898L0.507003 59.2872L-0.748902 59.3965L-1.05374 55.8941C-1.07816 55.6134 -1.18257 55.3968 -1.36696 55.2441C-1.54899 55.0912 -1.77561 55.0266 -2.04684 55.0502C-2.23081 55.0662 -2.39416 55.128 -2.53689 55.2354C-2.67983 55.3405 -2.78872 55.4819 -2.86356 55.6595C-2.93861 55.8348 -2.96638 56.0344 -2.94688 56.2585L-2.65929 59.5628L-3.93996 59.6742ZM7.46557 58.7885C6.92076 58.8359 6.44038 58.7636 6.02445 58.5717C5.61066 58.3772 5.27947 58.0805 5.03087 57.6815C4.78207 57.2802 4.63293 56.7953 4.58346 56.2269C4.53481 55.6679 4.59825 55.1681 4.77377 54.7275C4.95144 54.2843 5.22223 53.928 5.58614 53.6587C5.94985 53.387 6.39114 53.2286 6.91001 53.1834C7.24492 53.1543 7.56568 53.181 7.87229 53.2637C8.18106 53.3437 8.45958 53.4858 8.70786 53.69C8.95849 53.8939 9.16494 54.1635 9.32719 54.4987C9.48923 54.8315 9.59099 55.2362 9.63246 55.7126L9.66663 56.1053L5.21259 56.4929L5.13746 55.6297L8.3639 55.3489C8.34019 55.1038 8.26814 54.8903 8.14774 54.7083C8.02713 54.5239 7.86884 54.3844 7.67287 54.2898C7.47926 54.1949 7.25981 54.1582 7.01453 54.1795C6.75273 54.2023 6.52832 54.286 6.34129 54.4306C6.15406 54.5729 6.01394 54.7514 5.92095 54.9663C5.83011 55.1785 5.79409 55.4062 5.81287 55.6494L5.87846 56.4029C5.90596 56.7189 5.98735 56.9851 6.12263 57.2015C6.2577 57.4155 6.43424 57.5736 6.65226 57.6758C6.87007 57.7757 7.11813 57.8135 7.39643 57.7893C7.58275 57.7731 7.74913 57.7324 7.89556 57.6674C8.04178 57.6 8.1658 57.5096 8.26762 57.3962C8.36944 57.2828 8.44198 57.147 8.48524 56.9887L9.6927 57.0191C9.64474 57.3417 9.52488 57.6302 9.33315 57.8845C9.14356 58.1363 8.8905 58.3413 8.57395 58.4995C8.25721 58.6554 7.88775 58.7517 7.46557 58.7885ZM19.8722 57.7087C19.3274 57.7561 18.847 57.6838 18.4311 57.4919C18.0173 57.2974 17.6861 57.0007 17.4375 56.6017C17.1887 56.2003 17.0395 55.7155 16.9901 55.1471C16.9414 54.5881 17.0049 54.0883 17.1804 53.6476C17.3581 53.2044 17.6288 52.8482 17.9928 52.5789C18.3565 52.3072 18.7977 52.1488 19.3166 52.1036C19.6515 52.0745 19.9723 52.1012 20.2789 52.1838C20.5877 52.2639 20.8662 52.406 21.1145 52.6101C21.3651 52.8141 21.5715 53.0837 21.7338 53.4189C21.8958 53.7517 21.9976 54.1563 22.0391 54.6328L22.0732 55.0255L17.6192 55.4131L17.5441 54.5499L20.7705 54.2691C20.7468 54.024 20.6747 53.8105 20.5543 53.6285C20.4337 53.4441 20.2755 53.3046 20.0795 53.21C19.8859 53.1151 19.6664 53.0784 19.4211 53.0997C19.1593 53.1225 18.9349 53.2062 18.7479 53.3508C18.5607 53.4931 18.4206 53.6716 18.3276 53.8864C18.2367 54.0987 18.2007 54.3264 18.2195 54.5695L18.2851 55.3231C18.3126 55.6391 18.394 55.9053 18.5292 56.1217C18.6643 56.3357 18.8408 56.4938 19.0589 56.596C19.2767 56.6959 19.5247 56.7337 19.803 56.7095C19.9894 56.6933 20.1557 56.6526 20.3022 56.5876C20.4484 56.5202 20.5724 56.4298 20.6742 56.3164C20.776 56.203 20.8486 56.0671 20.8918 55.9089L22.0993 55.9393C22.0513 56.2619 21.9315 56.5504 21.7398 56.8047C21.5502 57.0564 21.2971 57.2614 20.9806 57.4197C20.6638 57.5756 20.2944 57.6719 19.8722 57.7087ZM27.3594 52.9221L26.203 53.1511C26.1597 53.036 26.0923 52.9302 26.0007 52.8336C25.9115 52.7368 25.7957 52.6625 25.6534 52.6108C25.511 52.559 25.3408 52.5417 25.1427 52.559C24.8762 52.5822 24.6572 52.6594 24.4856 52.7908C24.3164 52.922 24.241 53.0795 24.2594 53.2632C24.2708 53.4214 24.3398 53.5449 24.4663 53.6337C24.5952 53.7223 24.8004 53.7865 25.0819 53.8261L26.026 53.9436C26.5498 54.0097 26.9472 54.1521 27.2181 54.3709C27.4914 54.5895 27.6462 54.8933 27.6824 55.2822C27.7098 55.6244 27.6359 55.9351 27.4606 56.2141C27.2874 56.4906 27.0326 56.7171 26.6963 56.8937C26.36 57.0703 25.9654 57.1783 25.5125 57.2177C24.8474 57.2756 24.3 57.1831 23.8701 56.9401C23.44 56.6947 23.1643 56.3254 23.0429 55.8322L24.2813 55.6032C24.3592 55.8436 24.4956 56.0183 24.6905 56.1272C24.8853 56.2362 25.1301 56.2779 25.4249 56.2522C25.7292 56.2258 25.9679 56.142 26.1409 56.001C26.3164 55.8598 26.3961 55.6972 26.3801 55.5132C26.3665 55.3576 26.2952 55.2343 26.1661 55.1433C26.0393 55.0522 25.8486 54.9903 25.5939 54.9579L24.6501 54.844C24.1194 54.7808 23.7179 54.6316 23.4455 54.3963C23.1729 54.1586 23.0205 53.8416 22.9884 53.4451C22.9569 53.1104 23.0225 52.8124 23.1851 52.5511C23.3498 52.2873 23.5915 52.0737 23.91 51.9106C24.2306 51.7448 24.6079 51.6431 25.0419 51.6053C25.6787 51.5499 26.1917 51.6419 26.5808 51.8813C26.9724 52.1205 27.2319 52.4674 27.3594 52.9221ZM31.3448 56.7101C30.8 56.7575 30.3196 56.6853 29.9037 56.4934C29.4899 56.2989 29.1587 56.0021 28.9101 55.6031C28.6613 55.2018 28.5122 54.7169 28.4627 54.1485C28.4141 53.5896 28.4775 53.0898 28.653 52.6491C28.8307 52.2059 29.1015 51.8496 29.4654 51.5803C29.8291 51.3087 30.2704 51.1502 30.7893 51.1051C31.1242 51.0759 31.4449 51.1027 31.7515 51.1853C32.0603 51.2654 32.3388 51.4075 32.5871 51.6116C32.8377 51.8156 33.0442 52.0851 33.2064 52.4203C33.3685 52.7532 33.4702 53.1578 33.5117 53.6342L33.5459 54.0269L29.0918 54.4146L29.0167 53.5514L32.2432 53.2706C32.2194 53.0255 32.1474 52.8119 32.027 52.6299C31.9064 52.4456 31.7481 52.3061 31.5521 52.2114C31.3585 52.1166 31.1391 52.0798 30.8938 52.1012C30.632 52.124 30.4076 52.2077 30.2205 52.3523C30.0333 52.4945 29.8932 52.6731 29.8002 52.8879C29.7094 53.1002 29.6733 53.3279 29.6921 53.571L29.7577 54.3246C29.7852 54.6406 29.8666 54.9068 30.0019 55.1231C30.137 55.3371 30.3135 55.4953 30.5315 55.5975C30.7493 55.6973 30.9974 55.7352 31.2757 55.7109C31.462 55.6947 31.6284 55.6541 31.7748 55.5891C31.921 55.5217 32.0451 55.4313 32.1469 55.3179C32.2487 55.2044 32.3212 55.0686 32.3645 54.9104L33.572 54.9407C33.524 55.2634 33.4041 55.5518 33.2124 55.8061C33.0228 56.0579 32.7698 56.2629 32.4532 56.4212C32.1365 56.5771 31.767 56.6734 31.3448 56.7101ZM34.8851 56.2951L34.4122 50.8611L35.6539 50.753L35.7328 51.6586L35.7894 51.6537C35.8611 51.3314 36.0099 51.0749 36.2357 50.8841C36.4636 50.6908 36.7333 50.5806 37.0446 50.5535C37.1153 50.5474 37.1946 50.544 37.2825 50.5435C37.3726 50.5404 37.4476 50.5422 37.5076 50.5489L37.6101 51.7269C37.5542 51.7128 37.4667 51.7038 37.3475 51.6999C37.2305 51.6934 37.1178 51.6949 37.0093 51.7044C36.7758 51.7247 36.5703 51.7937 36.3928 51.9113C36.2175 52.0264 36.0844 52.177 35.9937 52.3631C35.903 52.5492 35.8676 52.7579 35.8878 52.989L36.1658 56.1836L34.8851 56.2951ZM43.4311 50.0761L41.9689 55.6785L40.5538 55.8017L38.1457 50.5361L39.5113 50.4172L41.1114 54.3451L41.168 54.3402L42.0691 50.1946L43.4311 50.0761ZM47.0701 55.3415C46.5253 55.3889 46.045 55.3166 45.629 55.1247C45.2152 54.9302 44.884 54.6335 44.6354 54.2345C44.3866 53.8331 44.2375 53.3483 44.188 52.7799C44.1394 52.2209 44.2028 51.7211 44.3783 51.2804C44.556 50.8372 44.8268 50.481 45.1907 50.2117C45.5544 49.94 45.9957 49.7816 46.5146 49.7364C46.8495 49.7073 47.1702 49.734 47.4769 49.8166C47.7856 49.8967 48.0641 50.0388 48.3124 50.2429C48.5631 50.4469 48.7695 50.7165 48.9318 51.0517C49.0938 51.3845 49.1956 51.7891 49.237 52.2656L49.2712 52.6583L44.8172 53.0459L44.742 52.1827L47.9685 51.9019C47.9448 51.6568 47.8727 51.4433 47.7523 51.2613C47.6317 51.0769 47.4734 50.9374 47.2774 50.8428C47.0838 50.7479 46.8644 50.7112 46.6191 50.7325C46.3573 50.7553 46.1329 50.839 45.9459 50.9836C45.7586 51.1259 45.6185 51.3044 45.5255 51.5192C45.4347 51.7315 45.3987 51.9592 45.4174 52.2023L45.483 52.9559C45.5105 53.2719 45.5919 53.5381 45.7272 53.7545C45.8623 53.9685 46.0388 54.1266 46.2568 54.2288C46.4746 54.3287 46.7227 54.3665 47.001 54.3423C47.1873 54.3261 47.3537 54.2854 47.5001 54.2204C47.6463 54.153 47.7704 54.0626 47.8722 53.9492C47.974 53.8358 48.0465 53.7 48.0898 53.5417L49.2973 53.5721C49.2493 53.8947 49.1295 54.1832 48.9377 54.4375C48.7481 54.6892 48.4951 54.8943 48.1785 55.0525C47.8618 55.2084 47.4923 55.3047 47.0701 55.3415ZM52.6353 54.8464C52.2084 54.8836 51.8168 54.8071 51.4604 54.6171C51.1041 54.4272 50.8098 54.132 50.5777 53.7315C50.3457 53.3311 50.2036 52.8326 50.1517 52.2359C50.0992 51.6321 50.1539 51.114 50.3159 50.6817C50.48 50.2468 50.7226 49.9084 51.0438 49.6666C51.3647 49.4224 51.7339 49.2821 52.1514 49.2458C52.4698 49.2181 52.7363 49.2496 52.9509 49.3402C53.1654 49.4285 53.3393 49.5428 53.4727 49.6833C53.6059 49.8214 53.7113 49.9537 53.7888 50.08L53.8419 50.0754L53.6061 47.3654L54.8903 47.2537L55.5209 54.499L54.2614 54.6086L54.1869 53.7525L54.1091 53.7593C54.0545 53.8971 53.9712 54.0457 53.8592 54.2052C53.7469 54.3623 53.5927 54.5017 53.3965 54.6233C53.2004 54.7449 52.9466 54.8193 52.6353 54.8464ZM52.9012 53.7646C53.1724 53.741 53.3972 53.6477 53.5755 53.4849C53.7536 53.3197 53.8807 53.1007 53.9567 52.8279C54.0328 52.5551 54.0555 52.243 54.0249 51.8916C53.9944 51.5402 53.9182 51.2391 53.7966 50.9883C53.6773 50.7373 53.5159 50.5481 53.3123 50.4209C53.1111 50.2934 52.8726 50.2417 52.5966 50.2657C52.3112 50.2906 52.0795 50.3856 51.9014 50.5508C51.7233 50.716 51.5973 50.9337 51.5234 51.2039C51.4495 51.4742 51.4272 51.7779 51.4565 52.1152C51.4861 52.4548 51.5608 52.7537 51.6807 53.0117C51.8028 53.2673 51.966 53.4634 52.1704 53.6001C52.3769 53.7342 52.6205 53.789 52.9012 53.7646Z" fill="white"/>
<path d="M89.6056 51.5324L88.9749 44.287L91.6919 44.0505C92.2486 44.0021 92.7246 44.0652 93.12 44.2399C93.5178 44.4144 93.8292 44.6749 94.0542 45.0213C94.2814 45.3651 94.4149 45.7669 94.455 46.2268C94.4954 46.6915 94.4335 47.1127 94.2691 47.4906C94.1048 47.8685 93.8406 48.1778 93.4766 48.4186C93.1123 48.6571 92.6508 48.8006 92.0918 48.8493L90.2911 49.006L90.1972 47.927L91.821 47.7857C92.1465 47.7573 92.408 47.6775 92.6057 47.5463C92.8034 47.415 92.9432 47.246 93.025 47.0393C93.1092 46.8323 93.1401 46.6003 93.1177 46.3432C93.0953 46.0862 93.0249 45.8641 92.9065 45.6772C92.7904 45.4901 92.6226 45.3514 92.4033 45.2612C92.1861 45.1684 91.9136 45.1363 91.5858 45.1648L90.3829 45.2695L90.9181 51.4181L89.6056 51.5324ZM117.66 49.0906L117.029 41.8453L119.746 41.6088C120.303 41.5604 120.778 41.6164 121.172 41.777C121.569 41.9373 121.879 42.1836 122.103 42.5159C122.329 42.8455 122.462 43.2415 122.502 43.7038C122.542 44.1684 122.478 44.5803 122.31 44.9395C122.144 45.2962 121.878 45.5843 121.512 45.8039C121.146 46.0211 120.685 46.1539 120.128 46.2024L118.193 46.3708L118.098 45.2812L119.856 45.1282C120.182 45.0998 120.444 45.0318 120.644 44.9241C120.844 44.8141 120.985 44.6675 121.069 44.4843C121.155 44.2986 121.187 44.0772 121.165 43.8201C121.142 43.5631 121.073 43.3481 120.955 43.1754C120.838 43.0002 120.671 42.8745 120.456 42.7982C120.24 42.7196 119.968 42.6946 119.64 42.7231L118.437 42.8278L118.972 48.9764L117.66 49.0906ZM121.117 45.4818L123.196 48.6088L121.732 48.7362L119.684 45.6065L121.117 45.4818Z" fill="#AC04FF"/>
<path d="M96.0101 50.9749L95.5371 45.5409L96.7789 45.4329L96.8577 46.3385L96.9143 46.3336C96.9861 46.0113 97.1348 45.7548 97.3606 45.564C97.5886 45.3707 97.8582 45.2605 98.1695 45.2334C98.2403 45.2272 98.3196 45.2239 98.4075 45.2234C98.4975 45.2203 98.5725 45.2221 98.6325 45.2288L98.735 46.4068C98.6791 46.3927 98.5916 46.3837 98.4725 46.3798C98.3555 46.3733 98.2427 46.3748 98.1342 46.3843C97.9007 46.4046 97.6952 46.4736 97.5177 46.5912C97.3424 46.7063 97.2094 46.8569 97.1186 47.043C97.0279 47.2291 96.9926 47.4377 97.0127 47.6689L97.2907 50.8635L96.0101 50.9749ZM100.01 50.6268L99.5368 45.1928L100.818 45.0814L101.29 50.5154L100.01 50.6268ZM100.114 44.3655C99.9108 44.3832 99.7304 44.3312 99.5724 44.2095C99.4143 44.0854 99.3269 43.9278 99.3103 43.7368C99.2935 43.5434 99.3523 43.3731 99.4868 43.226C99.6212 43.0764 99.7897 42.9929 99.9926 42.9752C100.198 42.9573 100.378 43.0106 100.534 43.1348C100.692 43.2565 100.779 43.4141 100.796 43.6075C100.813 43.7985 100.754 43.9688 100.62 44.1183C100.487 44.2653 100.319 44.3477 100.114 44.3655ZM102.657 50.3964L102.184 44.9624L103.408 44.8559L103.489 45.7792L103.552 45.7737C103.638 45.4525 103.805 45.1932 104.051 44.9959C104.298 44.7963 104.603 44.6806 104.966 44.649C105.334 44.617 105.652 44.6796 105.92 44.8369C106.19 44.9916 106.39 45.2178 106.521 45.5153L106.577 45.5104C106.671 45.198 106.853 44.9398 107.123 44.7357C107.395 44.5291 107.728 44.4086 108.122 44.3743C108.622 44.3308 109.043 44.4533 109.387 44.7419C109.73 45.0304 109.929 45.4777 109.981 46.0839L110.299 49.7313L109.015 49.8431L108.714 46.3938C108.685 46.0565 108.574 45.8178 108.381 45.6778C108.188 45.5354 107.962 45.4754 107.702 45.498C107.394 45.5249 107.16 45.6426 107.002 45.8512C106.847 46.0573 106.783 46.3136 106.809 46.6202L107.104 50.0094L105.848 50.1187L105.543 46.6163C105.519 46.3356 105.415 46.1189 105.23 45.9663C105.048 45.8134 104.822 45.7488 104.55 45.7724C104.366 45.7884 104.203 45.8501 104.06 45.9576C103.917 46.0627 103.808 46.2041 103.734 46.3817C103.659 46.5569 103.631 46.7566 103.65 46.9807L103.938 50.2849L102.657 50.3964ZM114.063 49.5106C113.518 49.5581 113.038 49.4858 112.622 49.2939C112.208 49.0994 111.877 48.8026 111.628 48.4037C111.379 48.0023 111.23 47.5175 111.181 46.9491C111.132 46.3901 111.195 45.8903 111.371 45.4496C111.549 45.0064 111.819 44.6502 112.183 44.3808C112.547 44.1092 112.988 43.9508 113.507 43.9056C113.842 43.8765 114.163 43.9032 114.469 43.9858C114.778 44.0659 115.057 44.208 115.305 44.4121C115.556 44.6161 115.762 44.8856 115.924 45.2209C116.086 45.5537 116.188 45.9583 116.23 46.4348L116.264 46.8274L111.81 47.2151L111.735 46.3519L114.961 46.0711C114.937 45.826 114.865 45.6125 114.745 45.4304C114.624 45.2461 114.466 45.1066 114.27 45.0119C114.076 44.9171 113.857 44.8804 113.612 44.9017C113.35 44.9245 113.125 45.0082 112.938 45.1528C112.751 45.295 112.611 45.4736 112.518 45.6884C112.427 45.9007 112.391 46.1284 112.41 46.3715L112.476 47.1251C112.503 47.4411 112.585 47.7073 112.72 47.9237C112.855 48.1377 113.031 48.2958 113.249 48.398C113.467 48.4979 113.715 48.5357 113.994 48.5115C114.18 48.4952 114.346 48.4546 114.493 48.3896C114.639 48.3222 114.763 48.2318 114.865 48.1184C114.967 48.005 115.039 47.8691 115.082 47.7109L116.29 47.7413C116.242 48.0639 116.122 48.3523 115.93 48.6067C115.741 48.8584 115.488 49.0634 115.171 49.2217C114.854 49.3776 114.485 49.4739 114.063 49.5106ZM126.469 48.4308C125.925 48.4782 125.444 48.406 125.028 48.2141C124.614 48.0196 124.283 47.7228 124.035 47.3238C123.786 46.9225 123.637 46.4376 123.587 45.8692C123.539 45.3103 123.602 44.8105 123.778 44.3698C123.955 43.9266 124.226 43.5703 124.59 43.301C124.954 43.0294 125.395 42.8709 125.914 42.8258C126.249 42.7966 126.569 42.8234 126.876 42.906C127.185 42.9861 127.463 43.1282 127.712 43.3323C127.962 43.5363 128.169 43.8058 128.331 44.141C128.493 44.4739 128.595 44.8785 128.636 45.3549L128.67 45.7476L124.216 46.1353L124.141 45.2721L127.368 44.9913C127.344 44.7462 127.272 44.5326 127.152 44.3506C127.031 44.1663 126.873 44.0268 126.677 43.9321C126.483 43.8373 126.264 43.8005 126.018 43.8219C125.757 43.8447 125.532 43.9284 125.345 44.073C125.158 44.2152 125.018 44.3938 124.925 44.6086C124.834 44.8209 124.798 45.0486 124.817 45.2917L124.882 46.0453C124.91 46.3613 124.991 46.6275 125.126 46.8438C125.261 47.0578 125.438 47.216 125.656 47.3182C125.874 47.418 126.122 47.4559 126.4 47.4316C126.587 47.4154 126.753 47.3748 126.899 47.3098C127.046 47.2424 127.17 47.152 127.271 47.0386C127.373 46.9251 127.446 46.7893 127.489 46.6311L128.696 46.6614C128.649 46.9841 128.529 47.2725 128.337 47.5268C128.147 47.7786 127.894 47.9836 127.578 48.1419C127.261 48.2978 126.892 48.3941 126.469 48.4308ZM133.957 43.6443L132.8 43.8732C132.757 43.7582 132.689 43.6524 132.598 43.5558C132.509 43.459 132.393 43.3847 132.251 43.3329C132.108 43.2812 131.938 43.2639 131.74 43.2811C131.473 43.3043 131.254 43.3816 131.083 43.513C130.914 43.6442 130.838 43.8016 130.857 43.9854C130.868 44.1436 130.937 44.2671 131.063 44.3559C131.192 44.4445 131.398 44.5086 131.679 44.5483L132.623 44.6657C133.147 44.7318 133.544 44.8743 133.815 45.0931C134.089 45.3117 134.243 45.6155 134.28 46.0044C134.307 46.3466 134.233 46.6572 134.058 46.9363C133.885 47.2127 133.63 47.4393 133.293 47.6159C132.957 47.7925 132.563 47.9005 132.11 47.9399C131.445 47.9978 130.897 47.9052 130.467 47.6622C130.037 47.4169 129.761 47.0476 129.64 46.5544L130.878 46.3254C130.956 46.5658 131.093 46.7404 131.288 46.8494C131.482 46.9584 131.727 47.0001 132.022 46.9744C132.326 46.9479 132.565 46.8642 132.738 46.7232C132.914 46.582 132.993 46.4194 132.977 46.2354C132.964 46.0797 132.892 45.9564 132.763 45.8655C132.637 45.7743 132.446 45.7125 132.191 45.68L131.247 45.5661C130.717 45.503 130.315 45.3538 130.043 45.1185C129.77 44.8808 129.618 44.5637 129.586 44.1673C129.554 43.8326 129.62 43.5346 129.782 43.2733C129.947 43.0094 130.189 42.7959 130.507 42.6327C130.828 42.467 131.205 42.3653 131.639 42.3275C132.276 42.2721 132.789 42.364 133.178 42.6035C133.57 42.8427 133.829 43.1896 133.957 43.6443ZM137.942 47.4323C137.397 47.4797 136.917 47.4075 136.501 47.2155C136.087 47.021 135.756 46.7243 135.507 46.3253C135.258 45.924 135.109 45.4391 135.06 44.8707C135.011 44.3117 135.075 43.8119 135.25 43.3713C135.428 42.9281 135.699 42.5718 136.063 42.3025C136.426 42.0308 136.868 41.8724 137.386 41.8273C137.721 41.7981 138.042 41.8248 138.349 41.9075C138.657 41.9875 138.936 42.1296 139.184 42.3338C139.435 42.5377 139.641 42.8073 139.804 43.1425C139.966 43.4753 140.067 43.88 140.109 44.3564L140.143 44.7491L135.689 45.1368L135.614 44.2735L138.84 43.9927C138.817 43.7476 138.745 43.5341 138.624 43.3521C138.504 43.1677 138.345 43.0282 138.149 42.9336C137.956 42.8388 137.736 42.802 137.491 42.8234C137.229 42.8461 137.005 42.9298 136.818 43.0744C136.63 43.2167 136.49 43.3952 136.397 43.6101C136.307 43.8223 136.271 44.05 136.289 44.2932L136.355 45.0467C136.382 45.3628 136.464 45.629 136.599 45.8453C136.734 46.0593 136.911 46.2174 137.129 46.3196C137.346 46.4195 137.595 46.4573 137.873 46.4331C138.059 46.4169 138.226 46.3763 138.372 46.3112C138.518 46.2439 138.642 46.1535 138.744 46.04C138.846 45.9266 138.918 45.7908 138.962 45.6326L140.169 45.6629C140.121 45.9855 140.001 46.274 139.81 46.5283C139.62 46.7801 139.367 46.9851 139.05 47.1433C138.734 47.2992 138.364 47.3955 137.942 47.4323ZM141.482 47.0172L141.009 41.5832L142.251 41.4751L142.33 42.3808L142.387 42.3759C142.458 42.0536 142.607 41.7971 142.833 41.6063C143.061 41.413 143.33 41.3028 143.642 41.2757C143.712 41.2695 143.792 41.2662 143.88 41.2657C143.97 41.2626 144.045 41.2644 144.105 41.271L144.207 42.4491C144.151 42.435 144.064 42.4259 143.945 42.4221C143.828 42.4156 143.715 42.4171 143.606 42.4265C143.373 42.4469 143.167 42.5158 142.99 42.6335C142.815 42.7485 142.682 42.8991 142.591 43.0853C142.5 43.2714 142.465 43.48 142.485 43.7112L142.763 46.9058L141.482 47.0172ZM150.028 40.7983L148.566 46.4007L147.151 46.5238L144.743 41.2583L146.108 41.1394L147.709 45.0673L147.765 45.0624L148.666 40.9168L150.028 40.7983ZM153.667 46.0636C153.122 46.111 152.642 46.0388 152.226 45.8469C151.812 45.6524 151.481 45.3556 151.233 44.9566C150.984 44.5553 150.835 44.0704 150.785 43.502C150.737 42.9431 150.8 42.4433 150.976 42.0026C151.153 41.5594 151.424 41.2031 151.788 40.9338C152.152 40.6622 152.593 40.5037 153.112 40.4586C153.447 40.4294 153.767 40.4562 154.074 40.5388C154.383 40.6189 154.661 40.761 154.91 40.9651C155.16 41.1691 155.367 41.4386 155.529 41.7738C155.691 42.1067 155.793 42.5113 155.834 42.9877L155.868 43.3804L151.414 43.7681L151.339 42.9049L154.566 42.6241C154.542 42.379 154.47 42.1654 154.349 41.9834C154.229 41.7991 154.071 41.6596 153.875 41.5649C153.681 41.4701 153.462 41.4333 153.216 41.4547C152.954 41.4775 152.73 41.5612 152.543 41.7058C152.356 41.848 152.216 42.0266 152.123 42.2414C152.032 42.4537 151.996 42.6814 152.015 42.9245L152.08 43.6781C152.108 43.9941 152.189 44.2603 152.324 44.4767C152.459 44.6906 152.636 44.8488 152.854 44.951C153.072 45.0508 153.32 45.0887 153.598 45.0644C153.784 45.0482 153.951 45.0076 154.097 44.9426C154.244 44.8752 154.368 44.7848 154.469 44.6714C154.571 44.5579 154.644 44.4221 154.687 44.2639L155.894 44.2942C155.846 44.6169 155.727 44.9053 155.535 45.1597C155.345 45.4114 155.092 45.6164 154.776 45.7747C154.459 45.9306 154.089 46.0269 153.667 46.0636ZM159.232 45.5686C158.806 45.6057 158.414 45.5293 158.058 45.3393C157.701 45.1493 157.407 44.8541 157.175 44.4537C156.943 44.0533 156.801 43.5547 156.749 42.958C156.696 42.3543 156.751 41.8362 156.913 41.4039C157.077 40.9689 157.32 40.6306 157.641 40.3888C157.962 40.1446 158.331 40.0043 158.749 39.968C159.067 39.9403 159.333 39.9717 159.548 40.0624C159.763 40.1506 159.936 40.265 160.07 40.4055C160.203 40.5436 160.308 40.6758 160.386 40.8022L160.439 40.7975L160.203 38.0876L161.487 37.9758L162.118 45.2212L160.859 45.3308L160.784 44.4747L160.706 44.4814C160.652 44.6192 160.568 44.7679 160.456 44.9274C160.344 45.0845 160.19 45.2238 159.994 45.3455C159.798 45.4671 159.544 45.5415 159.232 45.5686ZM159.498 44.4868C159.77 44.4631 159.994 44.3699 160.173 44.2071C160.351 44.0418 160.478 43.8229 160.554 43.5501C160.63 43.2773 160.653 42.9652 160.622 42.6138C160.592 42.2624 160.515 41.9613 160.394 41.7104C160.274 41.4594 160.113 41.2703 159.91 41.143C159.708 41.0156 159.47 40.9639 159.194 40.9879C158.908 41.0127 158.677 41.1078 158.499 41.273C158.32 41.4382 158.194 41.6559 158.121 41.9261C158.047 42.1963 158.024 42.5001 158.054 42.8373C158.083 43.177 158.158 43.4758 158.278 43.7339C158.4 43.9894 158.563 44.1855 158.768 44.3222C158.974 44.4563 159.218 44.5112 159.498 44.4868Z" fill="white"/>
<path d="M196.203 42.2545L195.572 35.0092L198.289 34.7727C198.846 34.7243 199.322 34.7874 199.717 34.9621C200.115 35.1366 200.426 35.397 200.651 35.7434C200.879 36.0872 201.012 36.4891 201.052 36.949C201.093 37.4136 201.031 37.8349 200.866 38.2128C200.702 38.5907 200.438 38.9 200.074 39.1408C199.71 39.3793 199.248 39.5228 198.689 39.5715L196.888 39.7282L196.794 38.6492L198.418 38.5078C198.744 38.4795 199.005 38.3997 199.203 38.2684C199.401 38.1372 199.54 37.9682 199.622 37.7614C199.706 37.5545 199.737 37.3225 199.715 37.0654C199.692 36.8083 199.622 36.5863 199.504 36.3994C199.388 36.2123 199.22 36.0736 199 35.9834C198.783 35.8906 198.511 35.8584 198.183 35.887L196.98 35.9917L197.515 42.1403L196.203 42.2545ZM224.257 39.8128L223.626 32.5675L226.343 32.331C226.9 32.2826 227.375 32.3386 227.769 32.4992C228.166 32.6595 228.476 32.9058 228.7 33.238C228.926 33.5677 229.059 33.9637 229.099 34.4259C229.14 34.8905 229.076 35.3025 228.907 35.6617C228.741 36.0184 228.475 36.3065 228.109 36.5261C227.743 36.7433 227.282 36.8761 226.725 36.9246L224.79 37.093L224.695 36.0034L226.453 35.8503C226.779 35.822 227.042 35.754 227.241 35.6463C227.441 35.5363 227.583 35.3897 227.666 35.2065C227.752 35.0208 227.784 34.7994 227.762 34.5423C227.74 34.2852 227.67 34.0703 227.552 33.8975C227.435 33.7224 227.268 33.5967 227.053 33.5204C226.837 33.4418 226.565 33.4167 226.237 33.4453L225.034 33.5499L225.569 39.6986L224.257 39.8128ZM227.714 36.204L229.793 39.3309L228.329 39.4584L226.281 36.3287L227.714 36.204Z" fill="#AC04FF"/>
<path d="M202.607 41.6971L202.134 36.2631L203.376 36.155L203.455 37.0607L203.511 37.0558C203.583 36.7335 203.732 36.4769 203.958 36.2862C204.186 36.0929 204.455 35.9827 204.767 35.9556C204.837 35.9494 204.917 35.9461 205.005 35.9456C205.095 35.9425 205.17 35.9443 205.23 35.9509L205.332 37.129C205.276 37.1148 205.189 37.1058 205.07 37.1019C204.953 37.0955 204.84 37.097 204.731 37.1064C204.498 37.1268 204.292 37.1957 204.115 37.3134C203.94 37.4284 203.807 37.579 203.716 37.7652C203.625 37.9513 203.59 38.1599 203.61 38.391L203.888 41.5856L202.607 41.6971ZM206.607 41.349L206.134 35.915L207.415 35.8035L207.888 41.2375L206.607 41.349ZM206.711 35.0877C206.508 35.1054 206.328 35.0533 206.17 34.9316C206.011 34.8076 205.924 34.65 205.907 34.459C205.891 34.2656 205.949 34.0953 206.084 33.9481C206.218 33.7986 206.387 33.715 206.59 33.6974C206.795 33.6795 206.975 33.7327 207.131 33.857C207.289 33.9787 207.377 34.1363 207.393 34.3296C207.41 34.5207 207.351 34.691 207.217 34.8405C207.085 34.9874 206.916 35.0699 206.711 35.0877ZM209.254 41.1186L208.781 35.6846L210.005 35.578L210.086 36.5014L210.15 36.4958C210.236 36.1747 210.402 35.9154 210.649 35.7181C210.895 35.5184 211.2 35.4028 211.563 35.3712C211.931 35.3392 212.249 35.4018 212.517 35.5591C212.787 35.7138 212.987 35.9399 213.118 36.2375L213.174 36.2326C213.268 35.9202 213.45 35.662 213.72 35.4579C213.992 35.2513 214.325 35.1308 214.719 35.0965C215.219 35.053 215.64 35.1755 215.984 35.464C216.328 35.7526 216.526 36.1999 216.578 36.806L216.896 40.4535L215.612 40.5652L215.312 37.1159C215.282 36.7787 215.171 36.54 214.978 36.3999C214.785 36.2575 214.559 36.1976 214.3 36.2202C213.991 36.2471 213.757 36.3648 213.6 36.5734C213.444 36.7794 213.38 37.0357 213.406 37.3423L213.701 40.7315L212.445 40.8408L212.141 37.3384C212.116 37.0578 212.012 36.8411 211.827 36.6884C211.645 36.5356 211.419 36.4709 211.147 36.4945C210.964 36.5105 210.8 36.5723 210.657 36.6798C210.515 36.7849 210.406 36.9262 210.331 37.1039C210.256 37.2791 210.228 37.4788 210.247 37.7028L210.535 41.0071L209.254 41.1186ZM220.66 40.2328C220.115 40.2802 219.635 40.208 219.219 40.016C218.805 39.8215 218.474 39.5248 218.225 39.1258C217.976 38.7245 217.827 38.2396 217.778 37.6712C217.729 37.1123 217.793 36.6124 217.968 36.1718C218.146 35.7286 218.417 35.3723 218.78 35.103C219.144 34.8313 219.585 34.6729 220.104 34.6278C220.439 34.5986 220.76 34.6254 221.067 34.708C221.375 34.7881 221.654 34.9302 221.902 35.1343C222.153 35.3382 222.359 35.6078 222.522 35.943C222.684 36.2759 222.785 36.6805 222.827 37.1569L222.861 37.5496L218.407 37.9373L218.332 37.0741L221.558 36.7932C221.535 36.5482 221.462 36.3346 221.342 36.1526C221.221 35.9682 221.063 35.8287 220.867 35.7341C220.674 35.6393 220.454 35.6025 220.209 35.6239C219.947 35.6467 219.723 35.7304 219.536 35.875C219.348 36.0172 219.208 36.1957 219.115 36.4106C219.024 36.6229 218.988 36.8506 219.007 37.0937L219.073 37.8472C219.1 38.1633 219.182 38.4295 219.317 38.6458C219.452 38.8598 219.629 39.0179 219.847 39.1202C220.064 39.22 220.312 39.2578 220.591 39.2336C220.777 39.2174 220.943 39.1768 221.09 39.1118C221.236 39.0444 221.36 38.954 221.462 38.8406C221.564 38.7271 221.636 38.5913 221.68 38.4331L222.887 38.4634C222.839 38.786 222.719 39.0745 222.527 39.3288C222.338 39.5806 222.085 39.7856 221.768 39.9439C221.452 40.0997 221.082 40.1961 220.66 40.2328ZM233.067 39.153C232.522 39.2004 232.041 39.1282 231.625 38.9362C231.212 38.7417 230.88 38.445 230.632 38.046C230.383 37.6447 230.234 37.1598 230.184 36.5914C230.136 36.0324 230.199 35.5326 230.375 35.092C230.552 34.6488 230.823 34.2925 231.187 34.0232C231.551 33.7515 231.992 33.5931 232.511 33.548C232.846 33.5188 233.167 33.5455 233.473 33.6282C233.782 33.7082 234.061 33.8503 234.309 34.0545C234.559 34.2584 234.766 34.528 234.928 34.8632C235.09 35.196 235.192 35.6007 235.233 36.0771L235.268 36.4698L230.814 36.8575L230.738 35.9942L233.965 35.7134C233.941 35.4683 233.869 35.2548 233.749 35.0728C233.628 34.8884 233.47 34.7489 233.274 34.6543C233.08 34.5595 232.861 34.5227 232.615 34.5441C232.354 34.5668 232.129 34.6505 231.942 34.7951C231.755 34.9374 231.615 35.1159 231.522 35.3308C231.431 35.543 231.395 35.7707 231.414 36.0139L231.479 36.7674C231.507 37.0835 231.588 37.3497 231.724 37.566C231.859 37.78 232.035 37.9381 232.253 38.0403C232.471 38.1402 232.719 38.178 232.997 38.1538C233.184 38.1376 233.35 38.097 233.497 38.0319C233.643 37.9646 233.767 37.8742 233.869 37.7607C233.97 37.6473 234.043 37.5115 234.086 37.3533L235.294 37.3836C235.246 37.7062 235.126 37.9947 234.934 38.249C234.745 38.5008 234.491 38.7058 234.175 38.864C233.858 39.0199 233.489 39.1162 233.067 39.153ZM240.554 34.3664L239.397 34.5954C239.354 34.4804 239.287 34.3745 239.195 34.278C239.106 34.1812 238.99 34.1069 238.848 34.0551C238.705 34.0033 238.535 33.9861 238.337 34.0033C238.071 34.0265 237.852 34.1038 237.68 34.2352C237.511 34.3663 237.435 34.5238 237.454 34.7075C237.465 34.8658 237.534 34.9893 237.661 35.0781C237.79 35.1667 237.995 35.2308 238.276 35.2705L239.22 35.3879C239.744 35.454 240.142 35.5964 240.412 35.8153C240.686 36.0339 240.841 36.3376 240.877 36.7266C240.904 37.0688 240.83 37.3794 240.655 37.6584C240.482 37.9349 240.227 38.1614 239.891 38.338C239.554 38.5147 239.16 38.6227 238.707 38.6621C238.042 38.72 237.494 38.6274 237.064 38.3844C236.634 38.1391 236.359 37.7698 236.237 37.2765L237.476 37.0476C237.554 37.2879 237.69 37.4626 237.885 37.5716C238.08 37.6806 238.324 37.7222 238.619 37.6966C238.924 37.6701 239.162 37.5864 239.335 37.4453C239.511 37.3041 239.59 37.1415 239.574 36.9576C239.561 36.8019 239.49 36.6786 239.36 36.5877C239.234 36.4965 239.043 36.4347 238.788 36.4022L237.844 36.2883C237.314 36.2252 236.912 36.0759 236.64 35.8406C236.367 35.6029 236.215 35.2859 236.183 34.8895C236.151 34.5548 236.217 34.2568 236.379 33.9955C236.544 33.7316 236.786 33.5181 237.104 33.3549C237.425 33.1892 237.802 33.0874 238.236 33.0496C238.873 32.9942 239.386 33.0862 239.775 33.3256C240.167 33.5648 240.426 33.9118 240.554 34.3664ZM244.539 38.1545C243.994 38.2019 243.514 38.1296 243.098 37.9377C242.684 37.7432 242.353 37.4465 242.104 37.0475C241.856 36.6461 241.707 36.1613 241.657 35.5929C241.608 35.0339 241.672 34.5341 241.847 34.0934C242.025 33.6502 242.296 33.294 242.66 33.0247C243.023 32.753 243.465 32.5946 243.984 32.5494C244.319 32.5203 244.639 32.547 244.946 32.6296C245.255 32.7097 245.533 32.8518 245.781 33.056C246.032 33.2599 246.239 33.5295 246.401 33.8647C246.563 34.1975 246.665 34.6022 246.706 35.0786L246.74 35.4713L242.286 35.8589L242.211 34.9957L245.437 34.7149C245.414 34.4698 245.342 34.2563 245.221 34.0743C245.101 33.8899 244.942 33.7504 244.746 33.6558C244.553 33.5609 244.333 33.5242 244.088 33.5455C243.826 33.5683 243.602 33.652 243.415 33.7966C243.228 33.9389 243.088 34.1174 242.995 34.3322C242.904 34.5445 242.868 34.7722 242.886 35.0153L242.952 35.7689C242.98 36.0849 243.061 36.3511 243.196 36.5675C243.331 36.7815 243.508 36.9396 243.726 37.0418C243.944 37.1417 244.192 37.1795 244.47 37.1553C244.656 37.1391 244.823 37.0984 244.969 37.0334C245.115 36.966 245.239 36.8756 245.341 36.7622C245.443 36.6488 245.516 36.513 245.559 36.3547L246.766 36.3851C246.718 36.7077 246.598 36.9962 246.407 37.2505C246.217 37.5022 245.964 37.7073 245.648 37.8655C245.331 38.0214 244.961 38.1177 244.539 38.1545ZM248.079 37.7394L247.607 32.3054L248.848 32.1973L248.927 33.103L248.984 33.0981C249.055 32.7757 249.204 32.5192 249.43 32.3285C249.658 32.1352 249.928 32.025 250.239 31.9979C250.31 31.9917 250.389 31.9884 250.477 31.9878C250.567 31.9848 250.642 31.9865 250.702 31.9932L250.804 33.1713C250.749 33.1571 250.661 33.1481 250.542 33.1442C250.425 33.1378 250.312 33.1393 250.204 33.1487C249.97 33.169 249.765 33.238 249.587 33.3556C249.412 33.4707 249.279 33.6213 249.188 33.8074C249.097 33.9936 249.062 34.2022 249.082 34.4333L249.36 37.6279L248.079 37.7394ZM256.625 31.5204L255.163 37.1228L253.748 37.246L251.34 31.9804L252.706 31.8616L254.306 35.7895L254.362 35.7846L255.263 31.639L256.625 31.5204ZM260.264 36.7858C259.72 36.8332 259.239 36.761 258.823 36.569C258.41 36.3745 258.078 36.0778 257.83 35.6788C257.581 35.2775 257.432 34.7926 257.382 34.2242C257.334 33.6652 257.397 33.1654 257.573 32.7248C257.75 32.2816 258.021 31.9253 258.385 31.656C258.749 31.3843 259.19 31.2259 259.709 31.1808C260.044 31.1516 260.365 31.1783 260.671 31.261C260.98 31.341 261.258 31.4831 261.507 31.6873C261.757 31.8912 261.964 32.1608 262.126 32.496C262.288 32.8289 262.39 33.2335 262.431 33.7099L262.466 34.1026L258.011 34.4903L257.936 33.627L261.163 33.3462C261.139 33.1011 261.067 32.8876 260.947 32.7056C260.826 32.5212 260.668 32.3817 260.472 32.2871C260.278 32.1923 260.059 32.1555 259.813 32.1769C259.552 32.1996 259.327 32.2833 259.14 32.4279C258.953 32.5702 258.813 32.7487 258.72 32.9636C258.629 33.1758 258.593 33.4035 258.612 33.6467L258.677 34.4002C258.705 34.7163 258.786 34.9825 258.922 35.1988C259.057 35.4128 259.233 35.5709 259.451 35.6731C259.669 35.773 259.917 35.8108 260.195 35.7866C260.382 35.7704 260.548 35.7298 260.694 35.6647C260.841 35.5974 260.965 35.507 261.067 35.3935C261.168 35.2801 261.241 35.1443 261.284 34.9861L262.492 35.0164C262.444 35.339 262.324 35.6275 262.132 35.8818C261.942 36.1336 261.689 36.3386 261.373 36.4968C261.056 36.6527 260.687 36.749 260.264 36.7858ZM265.83 36.2907C265.403 36.3279 265.011 36.2515 264.655 36.0615C264.298 35.8715 264.004 35.5763 263.772 35.1759C263.54 34.7755 263.398 34.2769 263.346 33.6802C263.293 33.0764 263.348 32.5584 263.51 32.126C263.674 31.6911 263.917 31.3527 264.238 31.1109C264.559 30.8667 264.928 30.7265 265.346 30.6901C265.664 30.6624 265.931 30.6939 266.145 30.7845C266.36 30.8728 266.534 30.9872 266.667 31.1277C266.8 31.2658 266.906 31.398 266.983 31.5243L267.036 31.5197L266.8 28.8098L268.085 28.698L268.715 35.9433L267.456 36.053L267.381 35.1968L267.303 35.2036C267.249 35.3414 267.166 35.4901 267.053 35.6495C266.941 35.8066 266.787 35.946 266.591 36.0676C266.395 36.1893 266.141 36.2636 265.83 36.2907ZM266.095 35.2089C266.367 35.1853 266.591 35.0921 266.77 34.9292C266.948 34.764 267.075 34.545 267.151 34.2722C267.227 33.9995 267.25 33.6874 267.219 33.336C267.189 32.9845 267.113 32.6834 266.991 32.4326C266.872 32.1816 266.71 31.9925 266.507 31.8652C266.305 31.7378 266.067 31.6861 265.791 31.7101C265.506 31.7349 265.274 31.8299 265.096 31.9951C264.918 32.1604 264.792 32.3781 264.718 32.6483C264.644 32.9185 264.622 33.2222 264.651 33.5595C264.68 33.8991 264.755 34.198 264.875 34.4561C264.997 34.7116 265.16 34.9077 265.365 35.0444C265.571 35.1785 265.815 35.2333 266.095 35.2089Z" fill="white"/>
<path d="M302.799 32.9769L302.169 25.7316L304.886 25.4951C305.442 25.4467 305.918 25.5098 306.314 25.6845C306.712 25.859 307.023 26.1195 307.248 26.4658C307.475 26.8096 307.609 27.2115 307.649 27.6714C307.689 28.136 307.627 28.5573 307.463 28.9352C307.299 29.3131 307.034 29.6224 306.67 29.8632C306.306 30.1017 305.845 30.2452 305.286 30.2939L303.485 30.4506L303.391 29.3716L305.015 29.2302C305.34 29.2019 305.602 29.1221 305.8 28.9908C305.997 28.8596 306.137 28.6906 306.219 28.4838C306.303 28.2769 306.334 28.0449 306.312 27.7878C306.289 27.5307 306.219 27.3087 306.1 27.1218C305.984 26.9347 305.816 26.796 305.597 26.7058C305.38 26.613 305.107 26.5809 304.78 26.6094L303.577 26.7141L304.112 32.8627L302.799 32.9769ZM330.853 30.5352L330.223 23.2899L332.94 23.0534C333.497 23.005 333.972 23.061 334.366 23.2216C334.763 23.3819 335.073 23.6282 335.297 23.9604C335.523 24.2901 335.656 24.6861 335.696 25.1483C335.736 25.613 335.672 26.0249 335.504 26.3841C335.338 26.7408 335.072 27.0289 334.706 27.2485C334.34 27.4657 333.878 27.5985 333.322 27.647L331.387 27.8154L331.292 26.7258L333.05 26.5727C333.376 26.5444 333.638 26.4764 333.838 26.3687C334.038 26.2587 334.179 26.1121 334.263 25.9289C334.349 25.7432 334.381 25.5218 334.359 25.2647C334.336 25.0076 334.266 24.7927 334.149 24.6199C334.032 24.4448 333.865 24.3191 333.649 24.2428C333.433 24.1642 333.162 24.1391 332.834 24.1677L331.631 24.2724L332.166 30.421L330.853 30.5352ZM334.311 26.9264L336.39 30.0533L334.925 30.1808L332.878 27.0511L334.311 26.9264Z" fill="#AC04FF"/>
<path d="M309.204 32.4195L308.731 26.9855L309.973 26.8774L310.052 27.7831L310.108 27.7782C310.18 27.4559 310.329 27.1993 310.554 27.0086C310.782 26.8153 311.052 26.7051 311.363 26.678C311.434 26.6718 311.513 26.6685 311.601 26.668C311.691 26.6649 311.766 26.6667 311.826 26.6733L311.929 27.8514C311.873 27.8373 311.785 27.8282 311.666 27.8244C311.549 27.8179 311.437 27.8194 311.328 27.8288C311.095 27.8492 310.889 27.9181 310.712 28.0358C310.536 28.1508 310.403 28.3014 310.312 28.4876C310.222 28.6737 310.186 28.8823 310.207 29.1135L310.485 32.3081L309.204 32.4195ZM313.204 32.0714L312.731 26.6374L314.011 26.5259L314.484 31.9599L313.204 32.0714ZM313.307 25.8101C313.105 25.8278 312.924 25.7757 312.766 25.654C312.608 25.53 312.521 25.3724 312.504 25.1814C312.487 24.988 312.546 24.8177 312.681 24.6705C312.815 24.521 312.984 24.4374 313.186 24.4198C313.392 24.4019 313.572 24.4551 313.728 24.5794C313.886 24.7011 313.973 24.8587 313.99 25.0521C314.007 25.2431 313.948 25.4134 313.813 25.5629C313.681 25.7099 313.513 25.7923 313.307 25.8101ZM315.851 31.841L315.378 26.407L316.602 26.3004L316.683 27.2238L316.746 27.2183C316.832 26.8971 316.999 26.6378 317.245 26.4405C317.492 26.2408 317.796 26.1252 318.16 26.0936C318.528 26.0616 318.846 26.1242 319.114 26.2815C319.384 26.4362 319.584 26.6623 319.714 26.9599L319.771 26.955C319.865 26.6426 320.047 26.3844 320.317 26.1803C320.589 25.9737 320.922 25.8532 321.315 25.8189C321.815 25.7754 322.237 25.8979 322.581 26.1865C322.924 26.475 323.122 26.9223 323.175 27.5285L323.493 31.1759L322.208 31.2877L321.908 27.8383C321.879 27.5011 321.768 27.2624 321.575 27.1224C321.382 26.9799 321.156 26.92 320.896 26.9426C320.587 26.9695 320.354 27.0872 320.196 27.2958C320.041 27.5018 319.976 27.7582 320.003 28.0648L320.298 31.4539L319.042 31.5632L318.737 28.0609C318.713 27.7802 318.608 27.5635 318.424 27.4109C318.242 27.258 318.015 27.1933 317.744 27.2169C317.56 27.233 317.397 27.2947 317.254 27.4022C317.111 27.5073 317.002 27.6487 316.927 27.8263C316.852 28.0015 316.825 28.2012 316.844 28.4252L317.132 31.7295L315.851 31.841ZM327.257 30.9552C326.712 31.0026 326.231 30.9304 325.815 30.7385C325.402 30.544 325.07 30.2472 324.822 29.8482C324.573 29.4469 324.424 28.962 324.374 28.3936C324.326 27.8347 324.389 27.3349 324.565 26.8942C324.742 26.451 325.013 26.0947 325.377 25.8254C325.741 25.5538 326.182 25.3953 326.701 25.3502C327.036 25.321 327.357 25.3478 327.663 25.4304C327.972 25.5105 328.251 25.6526 328.499 25.8567C328.75 26.0607 328.956 26.3302 329.118 26.6654C329.28 26.9983 329.382 27.4029 329.423 27.8793L329.458 28.272L325.004 28.6597L324.928 27.7965L328.155 27.5157C328.131 27.2706 328.059 27.057 327.939 26.875C327.818 26.6907 327.66 26.5512 327.464 26.4565C327.27 26.3617 327.051 26.3249 326.806 26.3463C326.544 26.3691 326.319 26.4528 326.132 26.5974C325.945 26.7396 325.805 26.9182 325.712 27.133C325.621 27.3453 325.585 27.573 325.604 27.8161L325.669 28.5697C325.697 28.8857 325.778 29.1519 325.914 29.3682C326.049 29.5822 326.225 29.7404 326.443 29.8426C326.661 29.9424 326.909 29.9803 327.187 29.956C327.374 29.9398 327.54 29.8992 327.687 29.8342C327.833 29.7668 327.957 29.6764 328.059 29.563C328.16 29.4495 328.233 29.3137 328.276 29.1555L329.484 29.1858C329.436 29.5085 329.316 29.7969 329.124 30.0512C328.935 30.303 328.682 30.508 328.365 30.6663C328.048 30.8222 327.679 30.9185 327.257 30.9552ZM339.663 29.8754C339.118 29.9228 338.638 29.8506 338.222 29.6586C337.808 29.4641 337.477 29.1674 337.228 28.7684C336.98 28.3671 336.831 27.8822 336.781 27.3138C336.732 26.7548 336.796 26.255 336.971 25.8144C337.149 25.3712 337.42 25.0149 337.784 24.7456C338.147 24.4739 338.589 24.3155 339.108 24.2704C339.443 24.2412 339.763 24.268 340.07 24.3506C340.379 24.4306 340.657 24.5727 340.905 24.7769C341.156 24.9808 341.363 25.2504 341.525 25.5856C341.687 25.9185 341.789 26.3231 341.83 26.7995L341.864 27.1922L337.41 27.5799L337.335 26.7167L340.562 26.4358C340.538 26.1908 340.466 25.9772 340.345 25.7952C340.225 25.6108 340.066 25.4713 339.87 25.3767C339.677 25.2819 339.457 25.2451 339.212 25.2665C338.95 25.2893 338.726 25.373 338.539 25.5176C338.352 25.6598 338.212 25.8383 338.119 26.0532C338.028 26.2655 337.992 26.4932 338.01 26.7363L338.076 27.4898C338.104 27.8059 338.185 28.0721 338.32 28.2884C338.455 28.5024 338.632 28.6605 338.85 28.7628C339.068 28.8626 339.316 28.9004 339.594 28.8762C339.78 28.86 339.947 28.8194 340.093 28.7544C340.239 28.687 340.363 28.5966 340.465 28.4831C340.567 28.3697 340.64 28.2339 340.683 28.0757L341.89 28.106C341.842 28.4286 341.723 28.7171 341.531 28.9714C341.341 29.2232 341.088 29.4282 340.772 29.5864C340.455 29.7423 340.085 29.8387 339.663 29.8754ZM347.15 25.0889L345.994 25.3178C345.951 25.2028 345.883 25.097 345.792 25.0004C345.703 24.9036 345.587 24.8293 345.444 24.7775C345.302 24.7257 345.132 24.7085 344.934 24.7257C344.667 24.7489 344.448 24.8262 344.277 24.9576C344.107 25.0887 344.032 25.2462 344.05 25.43C344.062 25.5882 344.131 25.7117 344.257 25.8005C344.386 25.8891 344.591 25.9532 344.873 25.9929L345.817 26.1103C346.341 26.1764 346.738 26.3189 347.009 26.5377C347.282 26.7563 347.437 27.06 347.473 27.449C347.501 27.7912 347.427 28.1018 347.252 28.3808C347.078 28.6573 346.824 28.8839 346.487 29.0605C346.151 29.2371 345.756 29.3451 345.304 29.3845C344.638 29.4424 344.091 29.3498 343.661 29.1068C343.231 28.8615 342.955 28.4922 342.834 27.9989L344.072 27.77C344.15 28.0103 344.287 28.185 344.481 28.294C344.676 28.403 344.921 28.4446 345.216 28.419C345.52 28.3925 345.759 28.3088 345.932 28.1678C346.107 28.0265 346.187 27.8639 346.171 27.68C346.158 27.5243 346.086 27.401 345.957 27.3101C345.83 27.2189 345.64 27.1571 345.385 27.1246L344.441 27.0107C343.91 26.9476 343.509 26.7984 343.236 26.563C342.964 26.3254 342.812 26.0083 342.779 25.6119C342.748 25.2772 342.813 24.9792 342.976 24.7179C343.141 24.454 343.382 24.2405 343.701 24.0773C344.022 23.9116 344.399 23.8098 344.833 23.7721C345.47 23.7166 345.983 23.8086 346.372 24.048C346.763 24.2872 347.023 24.6342 347.15 25.0889ZM351.136 28.8769C350.591 28.9243 350.111 28.852 349.695 28.6601C349.281 28.4656 348.95 28.1689 348.701 27.7699C348.452 27.3686 348.303 26.8837 348.254 26.3153C348.205 25.7563 348.269 25.2565 348.444 24.8159C348.622 24.3726 348.893 24.0164 349.256 23.7471C349.62 23.4754 350.061 23.317 350.58 23.2718C350.915 23.2427 351.236 23.2694 351.543 23.352C351.851 23.4321 352.13 23.5742 352.378 23.7784C352.629 23.9823 352.835 24.2519 352.997 24.5871C353.16 24.9199 353.261 25.3246 353.303 25.801L353.337 26.1937L348.883 26.5813L348.808 25.7181L352.034 25.4373C352.01 25.1922 351.938 24.9787 351.818 24.7967C351.697 24.6123 351.539 24.4728 351.343 24.3782C351.15 24.2833 350.93 24.2466 350.685 24.2679C350.423 24.2907 350.199 24.3744 350.012 24.519C349.824 24.6613 349.684 24.8398 349.591 25.0546C349.5 25.2669 349.464 25.4946 349.483 25.7378L349.549 26.4913C349.576 26.8073 349.658 27.0735 349.793 27.2899C349.928 27.5039 350.105 27.662 350.323 27.7642C350.54 27.8641 350.788 27.9019 351.067 27.8777C351.253 27.8615 351.419 27.8208 351.566 27.7558C351.712 27.6884 351.836 27.598 351.938 27.4846C352.04 27.3712 352.112 27.2354 352.156 27.0771L353.363 27.1075C353.315 27.4301 353.195 27.7186 353.003 27.9729C352.814 28.2247 352.561 28.4297 352.244 28.5879C351.927 28.7438 351.558 28.8401 351.136 28.8769ZM354.676 28.4618L354.203 23.0278L355.445 22.9197L355.524 23.8254L355.58 23.8205C355.652 23.4982 355.801 23.2416 356.027 23.0509C356.255 22.8576 356.524 22.7474 356.836 22.7203C356.906 22.7141 356.986 22.7108 357.074 22.7102C357.164 22.7072 357.239 22.709 357.299 22.7156L357.401 23.8937C357.345 23.8795 357.258 23.8705 357.139 23.8666C357.022 23.8602 356.909 23.8617 356.8 23.8711C356.567 23.8914 356.361 23.9604 356.184 24.0781C356.008 24.1931 355.875 24.3437 355.785 24.5298C355.694 24.716 355.659 24.9246 355.679 25.1557L355.957 28.3503L354.676 28.4618ZM363.222 22.2428L361.76 27.8453L360.345 27.9684L357.937 22.7029L359.302 22.584L360.902 26.5119L360.959 26.507L361.86 22.3614L363.222 22.2428ZM366.861 27.5082C366.316 27.5556 365.836 27.4834 365.42 27.2914C365.006 27.0969 364.675 26.8002 364.426 26.4012C364.178 25.9999 364.029 25.515 363.979 24.9466C363.93 24.3876 363.994 23.8878 364.169 23.4472C364.347 23.004 364.618 22.6477 364.982 22.3784C365.345 22.1067 365.787 21.9483 366.306 21.9032C366.64 21.874 366.961 21.9008 367.268 21.9834C367.577 22.0634 367.855 22.2056 368.103 22.4097C368.354 22.6136 368.561 22.8832 368.723 23.2184C368.885 23.5513 368.987 23.9559 369.028 24.4323L369.062 24.825L364.608 25.2127L364.533 24.3495L367.759 24.0686C367.736 23.8236 367.664 23.61 367.543 23.428C367.423 23.2436 367.264 23.1041 367.068 23.0095C366.875 22.9147 366.655 22.8779 366.41 22.8993C366.148 22.9221 365.924 23.0058 365.737 23.1504C365.55 23.2926 365.41 23.4711 365.317 23.686C365.226 23.8983 365.19 24.126 365.208 24.3691L365.274 25.1226C365.302 25.4387 365.383 25.7049 365.518 25.9212C365.653 26.1352 365.83 26.2933 366.048 26.3956C366.266 26.4954 366.514 26.5332 366.792 26.509C366.978 26.4928 367.145 26.4522 367.291 26.3872C367.437 26.3198 367.561 26.2294 367.663 26.1159C367.765 26.0025 367.838 25.8667 367.881 25.7085L369.088 25.7388C369.04 26.0614 368.92 26.3499 368.729 26.6042C368.539 26.856 368.286 27.061 367.97 27.2193C367.653 27.3751 367.283 27.4715 366.861 27.5082ZM372.426 27.0131C371.999 27.0503 371.608 26.9739 371.251 26.7839C370.895 26.5939 370.601 26.2987 370.369 25.8983C370.137 25.4979 369.995 24.9993 369.943 24.4026C369.89 23.7988 369.945 23.2808 370.107 22.8484C370.271 22.4135 370.514 22.0752 370.835 21.8333C371.156 21.5892 371.525 21.4489 371.942 21.4126C372.261 21.3848 372.527 21.4163 372.742 21.5069C372.956 21.5952 373.13 21.7096 373.264 21.8501C373.397 21.9882 373.502 22.1204 373.58 22.2467L373.633 22.2421L373.397 19.5322L374.681 19.4204L375.312 26.6658L374.052 26.7754L373.978 25.9192L373.9 25.926C373.846 26.0638 373.762 26.2125 373.65 26.3719C373.538 26.529 373.384 26.6684 373.188 26.7901C372.991 26.9117 372.738 26.986 372.426 27.0131ZM372.692 25.9313C372.963 25.9077 373.188 25.8145 373.366 25.6516C373.545 25.4864 373.672 25.2674 373.748 24.9947C373.824 24.7219 373.847 24.4098 373.816 24.0584C373.785 23.707 373.709 23.4058 373.588 23.155C373.468 22.904 373.307 22.7149 373.103 22.5876C372.902 22.4602 372.664 22.4085 372.388 22.4325C372.102 22.4573 371.871 22.5523 371.692 22.7176C371.514 22.8828 371.388 23.1005 371.314 23.3707C371.24 23.6409 371.218 23.9446 371.248 24.2819C371.277 24.6215 371.352 24.9204 371.472 25.1785C371.594 25.434 371.757 25.6301 371.961 25.7668C372.168 25.9009 372.412 25.9558 372.692 25.9313Z" fill="white"/>
</g>
<defs>
<clipPath id="clip0_438_2077">
<rect width="462.639" height="31.1639" fill="white" transform="translate(-3.10449 0.861816)"/>
</clipPath>
<clipPath id="clip1_438_2077">
<rect width="469.893" height="31.1639" fill="white" transform="translate(-5 40.9531) rotate(-4.97425)"/>
</clipPath>
</defs>
</svg>
