<svg width="375" height="72" viewBox="0 0 375 72" fill="none" xmlns="http://www.w3.org/2000/svg">
<g clip-path="url(#clip0_438_2499)">
<rect width="378.306" height="28.6356" transform="matrix(-1 0.00023503 0.000239447 1 378.108 1.01855)" fill="#0E0014"/>
<path d="M-0.457717 19.4339L-0.456008 12.1612L2.13632 12.1618C2.70214 12.1619 3.17086 12.265 3.5425 12.4711C3.91414 12.6771 4.19224 12.9589 4.37682 13.3164C4.56139 13.6716 4.65363 14.0717 4.65352 14.5168C4.65342 14.9642 4.55981 15.3667 4.3727 15.7241C4.18796 16.0792 3.90854 16.3608 3.53443 16.5691C3.1627 16.775 2.69511 16.8778 2.13166 16.8777L0.348992 16.8773L0.349211 15.9469L2.03245 15.9473C2.38993 15.9474 2.67995 15.8859 2.90252 15.7628C3.12509 15.6374 3.28848 15.467 3.3927 15.2516C3.49692 15.0362 3.54906 14.7911 3.54912 14.5165C3.54919 14.2419 3.49716 13.998 3.39304 13.785C3.28893 13.5719 3.12443 13.4049 2.89955 13.2841C2.67704 13.1633 2.3835 13.1029 2.01891 13.1028L0.641072 13.1025L0.639584 19.4342L-0.457717 19.4339ZM27.2239 19.4405L27.2256 12.1678L29.818 12.1684C30.3814 12.1685 30.849 12.2657 31.2206 12.4599C31.5946 12.6542 31.8739 12.9229 32.0585 13.2662C32.2431 13.6072 32.3353 14.0014 32.3352 14.4488C32.3351 14.8939 32.2415 15.2857 32.0544 15.6242C31.8696 15.9603 31.5902 16.2219 31.2161 16.4088C30.8444 16.5957 30.3768 16.6891 29.8133 16.689L27.8496 16.6885L27.8498 15.7439L29.7141 15.7444C30.0693 15.7445 30.3581 15.6936 30.5807 15.5919C30.8056 15.4901 30.9702 15.3422 31.0744 15.1481C31.1786 14.954 31.2307 14.7208 31.2308 14.4486C31.2308 14.174 31.1776 13.936 31.0711 13.7348C30.967 13.5335 30.8025 13.3796 30.5776 13.273C30.3551 13.164 30.0628 13.1095 29.7006 13.1094L28.3227 13.1091L28.3212 19.4408L27.2239 19.4405ZM30.8149 16.1601L32.611 19.4418L31.361 19.4415L29.6004 16.1598L30.8149 16.1601Z" fill="#AC04FF"/>
<path d="M5.90354 19.4354L5.90482 13.9809L6.9311 13.9811L6.9309 14.8476L6.98772 14.8476C7.08722 14.5541 7.26246 14.3233 7.51345 14.1553C7.7668 13.9849 8.05328 13.8997 8.37288 13.8998C8.43917 13.8998 8.51729 13.9022 8.60725 13.9069C8.69958 13.9117 8.77179 13.9176 8.82387 13.9247L8.82363 14.9404C8.78102 14.9285 8.70527 14.9155 8.59637 14.9013C8.48747 14.8847 8.37857 14.8763 8.26967 14.8763C8.01872 14.8763 7.79499 14.9295 7.59847 15.036C7.40431 15.1401 7.2504 15.2856 7.13672 15.4726C7.02304 15.6573 6.96617 15.868 6.96611 16.1047L6.96533 19.4357L5.90354 19.4354ZM9.79143 19.4363L9.79271 13.9818L10.8545 13.9821L10.8532 19.4366L9.79143 19.4363ZM10.3291 13.1403C10.1445 13.1403 9.98587 13.0787 9.85332 12.9555C9.72314 12.83 9.65808 12.6809 9.65812 12.508C9.65816 12.3329 9.7233 12.1837 9.85353 12.0606C9.98614 11.9352 10.1448 11.8725 10.3294 11.8726C10.5141 11.8726 10.6715 11.9354 10.8017 12.0609C10.9342 12.184 11.0005 12.3332 11.0004 12.5084C11.0004 12.6812 10.9341 12.8303 10.8015 12.9558C10.6712 13.0788 10.5138 13.1404 10.3291 13.1403ZM12.3317 19.437L12.3329 13.9824L13.3521 13.9827L13.3519 14.8704L13.4194 14.8705C13.5331 14.5698 13.719 14.3355 13.9771 14.1675C14.2352 13.9971 14.5441 13.9119 14.904 13.912C15.2686 13.9121 15.5739 13.9974 15.8201 14.1679C16.0687 14.3384 16.2521 14.5728 16.3704 14.8712L16.4272 14.8712C16.5575 14.58 16.7647 14.3481 17.0488 14.1753C17.3329 14.0002 17.6715 13.9127 18.0645 13.9128C18.5593 13.9129 18.9629 14.068 19.2753 14.3782C19.5901 14.6885 19.7474 15.1561 19.7473 15.7811L19.7464 19.4387L18.6846 19.4385L18.6855 15.8802C18.6856 15.5109 18.585 15.2434 18.3838 15.0776C18.1826 14.9118 17.9424 14.8289 17.663 14.8289C17.3174 14.8288 17.0486 14.9352 16.8568 15.1483C16.665 15.3589 16.5691 15.63 16.569 15.9614L16.5682 19.438L15.5099 19.4377L15.5108 15.812C15.5109 15.5161 15.4186 15.2781 15.234 15.0982C15.0493 14.9182 14.8091 14.8282 14.5131 14.8281C14.3119 14.8281 14.1261 14.8813 13.9556 14.9878C13.7875 15.0919 13.6513 15.2375 13.5471 15.4245C13.4453 15.6115 13.3943 15.8281 13.3942 16.0743L13.3935 19.4372L12.3317 19.437ZM23.5704 19.5497C23.033 19.5496 22.5702 19.4347 22.182 19.2049C21.7961 18.9728 21.4979 18.6472 21.2873 18.2282C21.0791 17.8067 20.975 17.3131 20.9752 16.7473C20.9753 16.1885 21.0796 15.6961 21.288 15.2701C21.4988 14.844 21.7924 14.5114 22.1689 14.2724C22.5478 14.0334 22.9905 13.9139 23.4971 13.9141C23.8049 13.9141 24.1032 13.9651 24.392 14.067C24.6808 14.1688 24.94 14.3287 25.1696 14.5466C25.3992 14.7644 25.5802 15.0474 25.7127 15.3954C25.8452 15.7411 25.9114 16.1613 25.9113 16.6561L25.9112 17.0325L21.5752 17.0315L21.5754 16.236L24.8709 16.2368C24.8709 15.9575 24.8142 15.7101 24.7006 15.4946C24.587 15.2768 24.4273 15.1051 24.2213 14.9796C24.0177 14.854 23.7787 14.7913 23.504 14.7912C23.2057 14.7911 22.9453 14.8644 22.7227 15.0112C22.5025 15.1555 22.332 15.3449 22.2112 15.5792C22.0928 15.8112 22.0336 16.0633 22.0335 16.3356L22.0334 16.957C22.0333 17.3216 22.0971 17.6318 22.2249 17.8875C22.355 18.1432 22.5361 18.3385 22.7681 18.4735C23.0001 18.6062 23.2711 18.6725 23.5812 18.6726C23.7825 18.6726 23.966 18.6443 24.1317 18.5875C24.2974 18.5284 24.4407 18.4408 24.5614 18.3248C24.6822 18.2088 24.7746 18.0656 24.8385 17.8952L25.8435 18.0766C25.7629 18.3725 25.6184 18.6317 25.41 18.8541C25.204 19.0743 24.9447 19.2458 24.6322 19.3689C24.3221 19.4895 23.9681 19.5498 23.5704 19.5497ZM35.9165 19.5527C35.3791 19.5526 34.9163 19.4376 34.5281 19.2079C34.1422 18.9758 33.844 18.6502 33.6334 18.2311C33.4252 17.8097 33.3211 17.316 33.3213 16.7502C33.3214 16.1915 33.4257 15.6991 33.6341 15.273C33.8449 14.8469 34.1385 14.5144 34.515 14.2754C34.8939 14.0363 35.3366 13.9169 35.8432 13.917C36.151 13.9171 36.4493 13.9681 36.7381 14.0699C37.0269 14.1718 37.2861 14.3317 37.5157 14.5495C37.7453 14.7674 37.9263 15.0503 38.0588 15.3984C38.1913 15.744 38.2575 16.1643 38.2574 16.6591L38.2573 17.0355L33.9213 17.0345L33.9215 16.239L37.217 16.2398C37.217 15.9604 37.1603 15.713 37.0467 15.4976C36.9331 15.2797 36.7733 15.1081 36.5674 14.9825C36.3638 14.857 36.1247 14.7942 35.8501 14.7941C35.5518 14.7941 35.2914 14.8674 35.0688 15.0141C34.8486 15.1585 34.6781 15.3478 34.5573 15.5822C34.4389 15.8142 34.3797 16.0663 34.3796 16.3385L34.3794 16.96C34.3794 17.3246 34.4432 17.6347 34.571 17.8904C34.7011 18.1461 34.8822 18.3415 35.1142 18.4765C35.3461 18.6091 35.6172 18.6755 35.9273 18.6756C36.1286 18.6756 36.312 18.6472 36.4778 18.5905C36.6435 18.5313 36.7868 18.4438 36.9075 18.3278C37.0283 18.2118 37.1207 18.0686 37.1846 17.8982L38.1895 18.0795C38.109 18.3754 37.9645 18.6346 37.7561 18.8571C37.5501 19.0772 37.2908 19.2488 36.9783 19.3718C36.6681 19.4925 36.3142 19.5528 35.9165 19.5527ZM43.5731 15.3216L42.6107 15.4918C42.5705 15.3687 42.5066 15.2515 42.419 15.1402C42.3338 15.0289 42.2179 14.9377 42.0711 14.8667C41.9243 14.7956 41.7409 14.76 41.5207 14.76C41.22 14.7599 40.9691 14.8273 40.7678 14.9622C40.5665 15.0948 40.4659 15.2664 40.4658 15.4771C40.4658 15.6594 40.5332 15.8062 40.6681 15.9175C40.8031 16.0288 41.0208 16.12 41.3215 16.1911L42.1879 16.3901C42.6898 16.5062 43.0638 16.6851 43.31 16.9266C43.5561 17.1681 43.6791 17.4819 43.6791 17.8678C43.679 18.1945 43.5842 18.4856 43.3948 18.7413C43.2077 18.9945 42.946 19.1933 42.6098 19.3377C42.276 19.482 41.8889 19.5541 41.4485 19.554C40.8377 19.5539 40.3394 19.4235 39.9536 19.163C39.5678 18.9001 39.3311 18.5272 39.2436 18.0442L40.27 17.8882C40.3338 18.1558 40.4652 18.3582 40.664 18.4956C40.8628 18.6306 41.122 18.6981 41.4416 18.6982C41.7897 18.6983 42.0678 18.6261 42.2762 18.4818C42.4846 18.335 42.5888 18.1563 42.5888 17.9456C42.5889 17.7752 42.525 17.6319 42.3972 17.5159C42.2717 17.3999 42.0788 17.3122 41.8184 17.253L40.8952 17.0503C40.3862 16.9342 40.0098 16.7495 39.766 16.4961C39.5246 16.2427 39.4039 15.9219 39.404 15.5336C39.4041 15.2117 39.4941 14.93 39.6741 14.6885C39.8541 14.4471 40.1027 14.2589 40.42 14.1241C40.7373 13.9868 41.1007 13.9183 41.5102 13.9184C42.0997 13.9185 42.5637 14.0465 42.9022 14.3022C43.2407 14.5556 43.4643 14.8954 43.5731 15.3216ZM47.2469 19.5554C46.7095 19.5553 46.2467 19.4403 45.8585 19.2106C45.4727 18.9785 45.1745 18.6529 44.9639 18.2338C44.7556 17.8124 44.6516 17.3187 44.6517 16.7529C44.6519 16.1942 44.7561 15.7018 44.9646 15.2757C45.1754 14.8496 45.469 14.5171 45.8455 14.2781C46.2243 14.0391 46.6671 13.9196 47.1737 13.9197C47.4815 13.9198 47.7797 13.9708 48.0685 14.0726C48.3573 14.1745 48.6165 14.3344 48.8461 14.5522C49.0757 14.7701 49.2568 15.053 49.3893 15.4011C49.5218 15.7468 49.5879 16.167 49.5878 16.6618L49.5877 17.0382L45.2518 17.0372L45.252 16.2417L48.5474 16.2425C48.5475 15.9631 48.4907 15.7157 48.3772 15.5003C48.2636 15.2824 48.1038 15.1108 47.8979 14.9852C47.6943 14.8597 47.4552 14.7969 47.1806 14.7969C46.8823 14.7968 46.6219 14.8701 46.3993 15.0168C46.1791 15.1612 46.0086 15.3506 45.8878 15.5849C45.7694 15.8169 45.7101 16.069 45.7101 16.3413L45.7099 16.9627C45.7098 17.3273 45.7737 17.6374 45.9015 17.8931C46.0316 18.1489 46.2127 18.3442 46.4446 18.4792C46.6766 18.6118 46.9477 18.6782 47.2578 18.6783C47.459 18.6783 47.6425 18.65 47.8083 18.5932C47.974 18.534 48.1172 18.4465 48.238 18.3305C48.3588 18.2145 48.4511 18.0713 48.5151 17.9009L49.52 18.0822C49.4395 18.3781 49.295 18.6373 49.0866 18.8598C48.8806 19.0799 48.6213 19.2515 48.3088 19.3745C47.9986 19.4952 47.6447 19.5555 47.2469 19.5554ZM50.8153 19.4462L50.8165 13.9916L51.8428 13.9919L51.8426 14.8583L51.8994 14.8584C51.9989 14.5648 52.1742 14.334 52.4252 14.166C52.6785 13.9956 52.965 13.9105 53.2846 13.9105C53.3509 13.9106 53.429 13.9129 53.519 13.9177C53.6113 13.9225 53.6835 13.9284 53.7356 13.9355L53.7354 14.9511C53.6927 14.9393 53.617 14.9262 53.5081 14.912C53.3992 14.8954 53.2903 14.8871 53.1814 14.8871C52.9304 14.887 52.7067 14.9402 52.5102 15.0467C52.316 15.1508 52.1621 15.2964 52.0484 15.4834C51.9348 15.668 51.8779 15.8787 51.8778 16.1155L51.877 19.4464L50.8153 19.4462ZM59.5366 13.9937L57.5574 19.4478L56.421 19.4475L54.4408 13.9925L55.5807 13.9928L56.9611 18.1905L57.0179 18.1905L58.3967 13.9934L59.5366 13.9937ZM62.7485 19.5591C62.2111 19.559 61.7483 19.444 61.3601 19.2143C60.9743 18.9822 60.676 18.6566 60.4654 18.2375C60.2572 17.8161 60.1532 17.3225 60.1533 16.7566C60.1534 16.1979 60.2577 15.7055 60.4661 15.2794C60.6769 14.8534 60.9706 14.5208 61.347 14.2818C61.7259 14.0428 62.1686 13.9233 62.6753 13.9234C62.983 13.9235 63.2813 13.9745 63.5701 14.0764C63.8589 14.1782 64.1181 14.3381 64.3477 14.5559C64.5773 14.7738 64.7583 15.0567 64.8908 15.4048C65.0233 15.7505 65.0895 16.1707 65.0894 16.6655L65.0893 17.0419L60.7534 17.0409L60.7535 16.2454L64.049 16.2462C64.0491 15.9669 63.9923 15.7194 63.8787 15.504C63.7651 15.2862 63.6054 15.1145 63.3994 14.989C63.1959 14.8634 62.9568 14.8006 62.6822 14.8006C62.3839 14.8005 62.1234 14.8738 61.9009 15.0206C61.6806 15.1649 61.5101 15.3543 61.3894 15.5886C61.2709 15.8206 61.2117 16.0727 61.2116 16.345L61.2115 16.9664C61.2114 17.331 61.2752 17.6411 61.403 17.8969C61.5332 18.1526 61.7142 18.3479 61.9462 18.4829C62.1782 18.6156 62.4492 18.6819 62.7594 18.682C62.9606 18.682 63.1441 18.6537 63.3098 18.5969C63.4755 18.5377 63.6188 18.4502 63.7396 18.3342C63.8603 18.2182 63.9527 18.075 64.0167 17.9046L65.0216 18.0859C64.941 18.3818 64.7965 18.641 64.5882 18.8635C64.3821 19.0836 64.1229 19.2552 63.8103 19.3783C63.5002 19.4989 63.1462 19.5592 62.7485 19.5591ZM68.3587 19.5569C67.9184 19.5568 67.5254 19.4442 67.1798 19.2193C66.8366 18.9919 66.5668 18.6687 66.3704 18.2496C66.1763 17.8282 66.0794 17.3227 66.0795 16.7332C66.0797 16.1437 66.178 15.6395 66.3746 15.2205C66.5736 14.8015 66.8459 14.4808 67.1916 14.2583C67.5373 14.0359 67.9292 13.9247 68.3671 13.9248C68.7057 13.9249 68.9779 13.9818 69.1838 14.0955C69.3922 14.2068 69.5531 14.337 69.6667 14.4862C69.7827 14.6354 69.8726 14.7668 69.9365 14.8804L70.0004 14.8804L70.0011 12.178L71.0629 12.1783L71.0611 19.451L70.0242 19.4508L70.0244 18.602L69.9356 18.602C69.8717 18.718 69.7793 18.8506 69.6585 18.9997C69.5401 19.1488 69.3768 19.279 69.1684 19.3902C68.96 19.5014 68.6901 19.557 68.3587 19.5569ZM68.5933 18.6514C68.8987 18.6515 69.1568 18.5711 69.3675 18.4101C69.5806 18.2468 69.7416 18.0208 69.8506 17.732C69.9619 17.4432 70.0177 17.107 70.0177 16.7235C70.0178 16.3447 69.9635 16.0133 69.8546 15.7291C69.7458 15.445 69.586 15.2236 69.3754 15.065C69.1647 14.9063 68.9043 14.8269 68.5942 14.8268C68.2746 14.8268 68.0082 14.9096 67.7951 15.0752C67.582 15.2409 67.421 15.467 67.312 15.7534C67.2054 16.0398 67.1521 16.363 67.152 16.7228C67.1519 17.0874 67.2063 17.4153 67.3151 17.7065C67.4239 17.9977 67.5849 18.2286 67.7979 18.3991C68.0133 18.5672 68.2784 18.6513 68.5933 18.6514Z" fill="white"/>
<path d="M105.542 19.4593L105.544 12.1866L108.136 12.1872C108.702 12.1873 109.171 12.2904 109.542 12.4965C109.914 12.7025 110.192 12.9843 110.377 13.3418C110.561 13.697 110.654 14.0971 110.654 14.5422C110.653 14.9896 110.56 15.3921 110.373 15.7495C110.188 16.1046 109.909 16.3862 109.534 16.5945C109.163 16.8003 108.695 16.9032 108.132 16.9031L106.349 16.9027L106.349 15.9723L108.032 15.9727C108.39 15.9727 108.68 15.9113 108.903 15.7882C109.125 15.6628 109.288 15.4924 109.393 15.277C109.497 15.0616 109.549 14.8165 109.549 14.5419C109.549 14.2673 109.497 14.0234 109.393 13.8103C109.289 13.5973 109.124 13.4303 108.9 13.3095C108.677 13.1887 108.383 13.1283 108.019 13.1282L106.641 13.1279L106.64 19.4595L105.542 19.4593ZM133.224 19.4659L133.226 12.1932L135.818 12.1938C136.381 12.1939 136.849 12.2911 137.221 12.4853C137.595 12.6795 137.874 12.9483 138.058 13.2916C138.243 13.6326 138.335 14.0268 138.335 14.4742C138.335 14.9193 138.241 15.3111 138.054 15.6496C137.87 15.9857 137.59 16.2473 137.216 16.4342C136.844 16.6211 136.377 16.7145 135.813 16.7144L133.85 16.7139L133.85 15.7693L135.714 15.7698C136.069 15.7699 136.358 15.719 136.581 15.6173C136.806 15.5155 136.97 15.3676 137.074 15.1735C137.179 14.9794 137.231 14.7462 137.231 14.474C137.231 14.1993 137.178 13.9614 137.071 13.7602C136.967 13.5589 136.803 13.405 136.578 13.2984C136.355 13.1894 136.063 13.1349 135.701 13.1348L134.323 13.1345L134.321 19.4662L133.224 19.4659ZM136.815 16.1855L138.611 19.4672L137.361 19.4669L135.6 16.1852L136.815 16.1855Z" fill="#AC04FF"/>
<path d="M111.904 19.4608L111.905 14.0063L112.931 14.0065L112.931 14.873L112.988 14.873C113.087 14.5795 113.262 14.3487 113.513 14.1806C113.767 14.0103 114.053 13.9251 114.373 13.9252C114.439 13.9252 114.517 13.9276 114.607 13.9323C114.7 13.9371 114.772 13.943 114.824 13.9501L114.824 14.9658C114.781 14.9539 114.705 14.9409 114.596 14.9266C114.487 14.91 114.379 14.9017 114.27 14.9017C114.019 14.9017 113.795 14.9549 113.598 15.0614C113.404 15.1655 113.25 15.311 113.137 15.498C113.023 15.6827 112.966 15.8933 112.966 16.1301L112.965 19.4611L111.904 19.4608ZM115.791 19.4617L115.793 14.0072L116.855 14.0074L116.853 19.462L115.791 19.4617ZM116.329 13.1657C116.144 13.1657 115.986 13.1041 115.853 12.9809C115.723 12.8554 115.658 12.7063 115.658 12.5334C115.658 12.3582 115.723 12.2091 115.854 12.086C115.986 11.9606 116.145 11.8979 116.329 11.8979C116.514 11.898 116.672 11.9608 116.802 12.0863C116.934 12.2094 117 12.3586 117 12.5338C117 12.7066 116.934 12.8557 116.801 12.9812C116.671 13.1042 116.514 13.1657 116.329 13.1657ZM118.332 19.4623L118.333 14.0078L119.352 14.008L119.352 14.8958L119.419 14.8958C119.533 14.5952 119.719 14.3609 119.977 14.1929C120.235 14.0225 120.544 13.9373 120.904 13.9374C121.269 13.9375 121.574 14.0228 121.82 14.1933C122.069 14.3638 122.252 14.5982 122.37 14.8965L122.427 14.8966C122.557 14.6054 122.765 14.3734 123.049 14.2007C123.333 14.0256 123.672 13.9381 124.064 13.9381C124.559 13.9383 124.963 14.0934 125.275 14.4036C125.59 14.7138 125.747 15.1814 125.747 15.8064L125.746 19.4641L124.685 19.4639L124.685 15.9056C124.686 15.5363 124.585 15.2688 124.384 15.103C124.183 14.9372 123.942 14.8543 123.663 14.8542C123.317 14.8542 123.049 14.9606 122.857 15.1737C122.665 15.3843 122.569 15.6554 122.569 15.9868L122.568 19.4634L121.51 19.4631L121.511 15.8374C121.511 15.5415 121.419 15.3035 121.234 15.1235C121.049 14.9436 120.809 14.8536 120.513 14.8535C120.312 14.8534 120.126 14.9067 119.956 15.0132C119.787 15.1173 119.651 15.2628 119.547 15.4498C119.445 15.6369 119.394 15.8535 119.394 16.0997L119.393 19.4626L118.332 19.4623ZM129.57 19.5751C129.033 19.575 128.57 19.4601 128.182 19.2303C127.796 18.9982 127.498 18.6726 127.287 18.2535C127.079 17.8321 126.975 17.3385 126.975 16.7727C126.975 16.2139 127.08 15.7215 127.288 15.2955C127.499 14.8694 127.792 14.5368 128.169 14.2978C128.548 14.0588 128.991 13.9393 129.497 13.9394C129.805 13.9395 130.103 13.9905 130.392 14.0924C130.681 14.1942 130.94 14.3541 131.17 14.572C131.399 14.7898 131.58 15.0728 131.713 15.4208C131.845 15.7665 131.911 16.1867 131.911 16.6815L131.911 17.0579L127.575 17.0569L127.575 16.2614L130.871 16.2622C130.871 15.9829 130.814 15.7355 130.701 15.52C130.587 15.3022 130.427 15.1305 130.221 15.005C130.018 14.8794 129.779 14.8166 129.504 14.8166C129.206 14.8165 128.945 14.8898 128.723 15.0366C128.503 15.1809 128.332 15.3703 128.211 15.6046C128.093 15.8366 128.034 16.0887 128.033 16.361L128.033 16.9824C128.033 17.347 128.097 17.6572 128.225 17.9129C128.355 18.1686 128.536 18.3639 128.768 18.4989C129 18.6316 129.271 18.6979 129.581 18.698C129.782 18.698 129.966 18.6697 130.132 18.6129C130.297 18.5537 130.441 18.4662 130.561 18.3502C130.682 18.2342 130.775 18.091 130.839 17.9206L131.843 18.1019C131.763 18.3979 131.618 18.657 131.41 18.8795C131.204 19.0997 130.945 19.2712 130.632 19.3943C130.322 19.5149 129.968 19.5752 129.57 19.5751ZM141.916 19.5781C141.379 19.5779 140.916 19.463 140.528 19.2333C140.142 19.0012 139.844 18.6756 139.633 18.2565C139.425 17.8351 139.321 17.3414 139.321 16.7756C139.321 16.2169 139.426 15.7245 139.634 15.2984C139.845 14.8723 140.139 14.5398 140.515 14.3008C140.894 14.0617 141.337 13.9423 141.843 13.9424C142.151 13.9425 142.449 13.9934 142.738 14.0953C143.027 14.1972 143.286 14.357 143.516 14.5749C143.745 14.7928 143.926 15.0757 144.059 15.4238C144.191 15.7694 144.257 16.1897 144.257 16.6845L144.257 17.0609L139.921 17.0598L139.922 16.2644L143.217 16.2652C143.217 15.9858 143.16 15.7384 143.047 15.5229C142.933 15.3051 142.773 15.1334 142.567 15.0079C142.364 14.8824 142.125 14.8196 141.85 14.8195C141.552 14.8195 141.291 14.8928 141.069 15.0395C140.849 15.1839 140.678 15.3732 140.557 15.6076C140.439 15.8396 140.38 16.0917 140.38 16.3639L140.379 16.9854C140.379 17.35 140.443 17.6601 140.571 17.9158C140.701 18.1715 140.882 18.3669 141.114 18.5019C141.346 18.6345 141.617 18.7009 141.927 18.7009C142.129 18.701 142.312 18.6726 142.478 18.6159C142.644 18.5567 142.787 18.4691 142.908 18.3532C143.028 18.2372 143.121 18.094 143.185 17.9235L144.19 18.1049C144.109 18.4008 143.965 18.66 143.756 18.8825C143.55 19.1026 143.291 19.2742 142.978 19.3972C142.668 19.5179 142.314 19.5782 141.916 19.5781ZM149.573 15.347L148.611 15.5172C148.571 15.3941 148.507 15.2769 148.419 15.1656C148.334 15.0543 148.218 14.9631 148.071 14.892C147.924 14.821 147.741 14.7854 147.521 14.7854C147.22 14.7853 146.969 14.8527 146.768 14.9876C146.567 15.1201 146.466 15.2918 146.466 15.5025C146.466 15.6848 146.533 15.8315 146.668 15.9428C146.803 16.0542 147.021 16.1453 147.321 16.2164L148.188 16.4155C148.69 16.5316 149.064 16.7105 149.31 16.952C149.556 17.1935 149.679 17.5073 149.679 17.8931C149.679 18.2198 149.584 18.511 149.395 18.7667C149.208 19.0199 148.946 19.2187 148.61 19.3631C148.276 19.5074 147.889 19.5795 147.449 19.5794C146.838 19.5793 146.339 19.4489 145.954 19.1884C145.568 18.9255 145.331 18.5526 145.244 18.0696L146.27 17.9136C146.334 18.1812 146.465 18.3836 146.664 18.521C146.863 18.656 147.122 18.7235 147.442 18.7236C147.79 18.7237 148.068 18.6515 148.276 18.5072C148.485 18.3604 148.589 18.1817 148.589 17.971C148.589 17.8006 148.525 17.6573 148.397 17.5413C148.272 17.4252 148.079 17.3376 147.818 17.2784L146.895 17.0757C146.386 16.9596 146.01 16.7748 145.766 16.5215C145.525 16.2681 145.404 15.9473 145.404 15.559C145.404 15.2371 145.494 14.9554 145.674 14.7139C145.854 14.4725 146.103 14.2843 146.42 14.1495C146.737 14.0122 147.101 13.9437 147.51 13.9438C148.1 13.9439 148.564 14.0719 148.902 14.3276C149.241 14.581 149.464 14.9208 149.573 15.347ZM153.247 19.5808C152.71 19.5807 152.247 19.4657 151.859 19.236C151.473 19.0039 151.174 18.6783 150.964 18.2592C150.756 17.8378 150.652 17.3441 150.652 16.7783C150.652 16.2196 150.756 15.7272 150.965 15.3011C151.175 14.875 151.469 14.5425 151.845 14.3035C152.224 14.0644 152.667 13.945 153.174 13.9451C153.481 13.9452 153.78 13.9962 154.069 14.098C154.357 14.1999 154.617 14.3598 154.846 14.5776C155.076 14.7955 155.257 15.0784 155.389 15.4265C155.522 15.7721 155.588 16.1924 155.588 16.6872L155.588 17.0636L151.252 17.0626L151.252 16.2671L154.547 16.2679C154.548 15.9885 154.491 15.7411 154.377 15.5257C154.264 15.3078 154.104 15.1362 153.898 15.0106C153.694 14.8851 153.455 14.8223 153.181 14.8222C152.882 14.8222 152.622 14.8955 152.399 15.0422C152.179 15.1866 152.009 15.3759 151.888 15.6103C151.769 15.8423 151.71 16.0944 151.71 16.3666L151.71 16.9881C151.71 17.3527 151.774 17.6628 151.901 17.9185C152.032 18.1742 152.213 18.3696 152.445 18.5046C152.677 18.6372 152.948 18.7036 153.258 18.7037C153.459 18.7037 153.643 18.6753 153.808 18.6186C153.974 18.5594 154.117 18.4719 154.238 18.3559C154.359 18.2399 154.451 18.0967 154.515 17.9263L155.52 18.1076C155.439 18.4035 155.295 18.6627 155.087 18.8852C154.881 19.1053 154.621 19.2769 154.309 19.3999C153.999 19.5206 153.645 19.5809 153.247 19.5808ZM156.815 19.4716L156.817 14.017L157.843 14.0173L157.843 14.8837L157.899 14.8837C157.999 14.5902 158.174 14.3594 158.425 14.1914C158.679 14.021 158.965 13.9358 159.285 13.9359C159.351 13.9359 159.429 13.9383 159.519 13.9431C159.611 13.9478 159.684 13.9538 159.736 13.9609L159.735 14.9765C159.693 14.9647 159.617 14.9516 159.508 14.9374C159.399 14.9208 159.29 14.9125 159.181 14.9125C158.93 14.9124 158.707 14.9656 158.51 15.0721C158.316 15.1762 158.162 15.3218 158.048 15.5088C157.935 15.6934 157.878 15.9041 157.878 16.1408L157.877 19.4718L156.815 19.4716ZM165.537 14.0191L163.557 19.4732L162.421 19.4729L160.441 14.0179L161.581 14.0182L162.961 18.2159L163.018 18.2159L164.397 14.0188L165.537 14.0191ZM168.749 19.5845C168.211 19.5844 167.748 19.4694 167.36 19.2397C166.974 19.0076 166.676 18.682 166.465 18.2629C166.257 17.8415 166.153 17.3478 166.153 16.782C166.153 16.2233 166.258 15.7309 166.466 15.3048C166.677 14.8787 166.971 14.5462 167.347 14.3072C167.726 14.0682 168.169 13.9487 168.675 13.9488C168.983 13.9489 169.281 13.9999 169.57 14.1017C169.859 14.2036 170.118 14.3635 170.348 14.5813C170.577 14.7992 170.758 15.0821 170.891 15.4302C171.023 15.7759 171.09 16.1961 171.089 16.6909L171.089 17.0673L166.753 17.0663L166.754 16.2708L170.049 16.2716C170.049 15.9922 169.992 15.7448 169.879 15.5294C169.765 15.3115 169.605 15.1399 169.399 15.0143C169.196 14.8888 168.957 14.826 168.682 14.826C168.384 14.8259 168.123 14.8992 167.901 15.0459C167.681 15.1903 167.51 15.3797 167.389 15.614C167.271 15.846 167.212 16.0981 167.212 16.3704L167.211 16.9918C167.211 17.3564 167.275 17.6665 167.403 17.9222C167.533 18.178 167.714 18.3733 167.946 18.5083C168.178 18.6409 168.449 18.7073 168.759 18.7074C168.961 18.7074 169.144 18.6791 169.31 18.6223C169.476 18.5631 169.619 18.4756 169.74 18.3596C169.86 18.2436 169.953 18.1004 170.017 17.93L171.022 18.1113C170.941 18.4072 170.797 18.6664 170.588 18.8889C170.382 19.109 170.123 19.2806 169.81 19.4036C169.5 19.5243 169.146 19.5846 168.749 19.5845ZM174.359 19.5823C173.918 19.5822 173.525 19.4696 173.18 19.2447C172.837 19.0173 172.567 18.6941 172.37 18.275C172.176 17.8535 172.079 17.3481 172.08 16.7586C172.08 16.1691 172.178 15.6649 172.375 15.2459C172.574 14.8269 172.846 14.5062 173.192 14.2837C173.537 14.0613 173.929 13.9501 174.367 13.9502C174.706 13.9503 174.978 14.0072 175.184 14.1208C175.392 14.2322 175.553 14.3624 175.667 14.5116C175.783 14.6608 175.873 14.7922 175.937 14.9058L176 14.9058L176.001 12.2034L177.063 12.2037L177.061 19.4764L176.024 19.4762L176.024 18.6274L175.936 18.6274C175.872 18.7434 175.779 18.876 175.659 19.0251C175.54 19.1742 175.377 19.3044 175.168 19.4156C174.96 19.5268 174.69 19.5824 174.359 19.5823ZM174.593 18.6768C174.899 18.6769 175.157 18.5965 175.367 18.4355C175.581 18.2722 175.742 18.0462 175.851 17.7574C175.962 17.4686 176.018 17.1324 176.018 16.7489C176.018 16.3701 175.963 16.0386 175.855 15.7545C175.746 15.4704 175.586 15.249 175.375 15.0903C175.165 14.9317 174.904 14.8523 174.594 14.8522C174.275 14.8522 174.008 14.935 173.795 15.1006C173.582 15.2663 173.421 15.4923 173.312 15.7788C173.205 16.0652 173.152 16.3883 173.152 16.7482C173.152 17.1128 173.206 17.4407 173.315 17.7319C173.424 18.0231 173.585 18.254 173.798 18.4245C174.013 18.5926 174.278 18.6767 174.593 18.6768Z" fill="white"/>
<path d="M211.542 19.4847L211.544 12.2119L214.136 12.2126C214.702 12.2127 215.171 12.3158 215.542 12.5219C215.914 12.7279 216.192 13.0097 216.377 13.3672C216.561 13.7224 216.654 14.1225 216.654 14.5676C216.653 15.015 216.56 15.4175 216.373 15.7749C216.188 16.13 215.909 16.4116 215.534 16.6199C215.163 16.8257 214.695 16.9286 214.132 16.9285L212.349 16.928L212.349 15.9976L214.032 15.9981C214.39 15.9981 214.68 15.9367 214.903 15.8136C215.125 15.6882 215.288 15.5178 215.393 15.3024C215.497 15.0869 215.549 14.8419 215.549 14.5673C215.549 14.2927 215.497 14.0488 215.393 13.8357C215.289 13.6226 215.124 13.4557 214.9 13.3349C214.677 13.2141 214.383 13.1537 214.019 13.1536L212.641 13.1533L212.64 19.4849L211.542 19.4847ZM239.224 19.4913L239.226 12.2186L241.818 12.2192C242.381 12.2193 242.849 12.3165 243.221 12.5107C243.595 12.7049 243.874 12.9737 244.058 13.317C244.243 13.658 244.335 14.0522 244.335 14.4996C244.335 14.9447 244.241 15.3365 244.054 15.675C243.87 16.0111 243.59 16.2726 243.216 16.4596C242.844 16.6465 242.377 16.7399 241.813 16.7398L239.85 16.7393L239.85 15.7947L241.714 15.7952C242.069 15.7952 242.358 15.7444 242.581 15.6427C242.806 15.5409 242.97 15.393 243.074 15.1989C243.179 15.0048 243.231 14.7716 243.231 14.4994C243.231 14.2247 243.178 13.9868 243.071 13.7855C242.967 13.5843 242.803 13.4304 242.578 13.3238C242.355 13.2148 242.063 13.1603 241.701 13.1602L240.323 13.1599L240.321 19.4916L239.224 19.4913ZM242.815 16.2109L244.611 19.4926L243.361 19.4923L241.6 16.2106L242.815 16.2109Z" fill="#AC04FF"/>
<path d="M217.904 19.4862L217.905 14.0316L218.931 14.0319L218.931 14.8984L218.988 14.8984C219.087 14.6048 219.262 14.3741 219.513 14.206C219.767 14.0356 220.053 13.9505 220.373 13.9506C220.439 13.9506 220.517 13.953 220.607 13.9577C220.7 13.9625 220.772 13.9684 220.824 13.9755L220.824 14.9912C220.781 14.9793 220.705 14.9663 220.596 14.952C220.487 14.9354 220.379 14.9271 220.27 14.9271C220.019 14.927 219.795 14.9803 219.598 15.0867C219.404 15.1909 219.25 15.3364 219.137 15.5234C219.023 15.7081 218.966 15.9187 218.966 16.1555L218.965 19.4864L217.904 19.4862ZM221.791 19.4871L221.793 14.0326L222.855 14.0328L222.853 19.4874L221.791 19.4871ZM222.329 13.1911C222.144 13.191 221.986 13.1295 221.853 13.0063C221.723 12.8808 221.658 12.7316 221.658 12.5588C221.658 12.3836 221.723 12.2345 221.854 12.1114C221.986 11.986 222.145 11.9233 222.329 11.9233C222.514 11.9234 222.672 11.9862 222.802 12.1117C222.934 12.2348 223 12.384 223 12.5591C223 12.732 222.934 12.8811 222.801 13.0065C222.671 13.1296 222.514 13.1911 222.329 13.1911ZM224.332 19.4877L224.333 14.0332L225.352 14.0334L225.352 14.9212L225.419 14.9212C225.533 14.6206 225.719 14.3863 225.977 14.2182C226.235 14.0478 226.544 13.9627 226.904 13.9628C227.269 13.9629 227.574 14.0482 227.82 14.2187C228.069 14.3892 228.252 14.6236 228.37 14.9219L228.427 14.922C228.557 14.6308 228.765 14.3988 229.049 14.2261C229.333 14.051 229.672 13.9634 230.064 13.9635C230.559 13.9637 230.963 14.1188 231.275 14.429C231.59 14.7392 231.747 15.2068 231.747 15.8318L231.746 19.4895L230.685 19.4893L230.685 15.931C230.686 15.5617 230.585 15.2942 230.384 15.1284C230.183 14.9626 229.942 14.8797 229.663 14.8796C229.317 14.8796 229.049 14.986 228.857 15.199C228.665 15.4097 228.569 15.6807 228.569 16.0122L228.568 19.4887L227.51 19.4885L227.511 15.8628C227.511 15.5669 227.419 15.3289 227.234 15.1489C227.049 14.969 226.809 14.879 226.513 14.8789C226.312 14.8788 226.126 14.9321 225.956 15.0385C225.787 15.1427 225.651 15.2882 225.547 15.4752C225.445 15.6622 225.394 15.8788 225.394 16.1251L225.393 19.488L224.332 19.4877ZM235.57 19.6005C235.033 19.6004 234.57 19.4855 234.182 19.2557C233.796 19.0236 233.498 18.698 233.287 18.2789C233.079 17.8575 232.975 17.3639 232.975 16.798C232.975 16.2393 233.08 15.7469 233.288 15.3208C233.499 14.8948 233.792 14.5622 234.169 14.3232C234.548 14.0842 234.991 13.9647 235.497 13.9648C235.805 13.9649 236.103 14.0159 236.392 14.1178C236.681 14.2196 236.94 14.3795 237.17 14.5973C237.399 14.8152 237.58 15.0981 237.713 15.4462C237.845 15.7919 237.911 16.2121 237.911 16.7069L237.911 17.0833L233.575 17.0823L233.575 16.2868L236.871 16.2876C236.871 16.0083 236.814 15.7608 236.701 15.5454C236.587 15.3276 236.427 15.1559 236.221 15.0304C236.018 14.9048 235.779 14.842 235.504 14.842C235.206 14.8419 234.945 14.9152 234.723 15.062C234.503 15.2063 234.332 15.3957 234.211 15.63C234.093 15.862 234.034 16.1141 234.033 16.3864L234.033 17.0078C234.033 17.3724 234.097 17.6825 234.225 17.9383C234.355 18.194 234.536 18.3893 234.768 18.5243C235 18.657 235.271 18.7233 235.581 18.7234C235.782 18.7234 235.966 18.6951 236.132 18.6383C236.297 18.5791 236.441 18.4916 236.561 18.3756C236.682 18.2596 236.775 18.1164 236.839 17.946L237.843 18.1273C237.763 18.4232 237.618 18.6824 237.41 18.9049C237.204 19.125 236.945 19.2966 236.632 19.4197C236.322 19.5403 235.968 19.6006 235.57 19.6005ZM247.916 19.6035C247.379 19.6033 246.916 19.4884 246.528 19.2587C246.142 19.0266 245.844 18.701 245.633 18.2819C245.425 17.8604 245.321 17.3668 245.321 16.801C245.321 16.2423 245.426 15.7499 245.634 15.3238C245.845 14.8977 246.139 14.5652 246.515 14.3261C246.894 14.0871 247.337 13.9677 247.843 13.9678C248.151 13.9679 248.449 14.0188 248.738 14.1207C249.027 14.2226 249.286 14.3824 249.516 14.6003C249.745 14.8182 249.926 15.1011 250.059 15.4491C250.191 15.7948 250.257 16.2151 250.257 16.7099L250.257 17.0863L245.921 17.0852L245.922 16.2898L249.217 16.2906C249.217 16.0112 249.16 15.7638 249.047 15.5483C248.933 15.3305 248.773 15.1588 248.567 15.0333C248.364 14.9078 248.125 14.845 247.85 14.8449C247.552 14.8449 247.291 14.9182 247.069 15.0649C246.849 15.2093 246.678 15.3986 246.557 15.633C246.439 15.8649 246.38 16.1171 246.38 16.3893L246.379 17.0108C246.379 17.3754 246.443 17.6855 246.571 17.9412C246.701 18.1969 246.882 18.3923 247.114 18.5273C247.346 18.6599 247.617 18.7263 247.927 18.7263C248.129 18.7264 248.312 18.698 248.478 18.6412C248.644 18.5821 248.787 18.4945 248.908 18.3786C249.028 18.2626 249.121 18.1194 249.185 17.9489L250.19 18.1303C250.109 18.4262 249.965 18.6854 249.756 18.9079C249.55 19.128 249.291 19.2996 248.978 19.4226C248.668 19.5433 248.314 19.6036 247.916 19.6035ZM255.573 15.3723L254.611 15.5426C254.571 15.4195 254.507 15.3022 254.419 15.191C254.334 15.0797 254.218 14.9885 254.071 14.9174C253.924 14.8464 253.741 14.8108 253.521 14.8108C253.22 14.8107 252.969 14.8781 252.768 15.013C252.567 15.1455 252.466 15.3171 252.466 15.5279C252.466 15.7101 252.533 15.8569 252.668 15.9682C252.803 16.0795 253.021 16.1707 253.321 16.2418L254.188 16.4409C254.69 16.557 255.064 16.7359 255.31 16.9774C255.556 17.2189 255.679 17.5326 255.679 17.9185C255.679 18.2452 255.584 18.5364 255.395 18.792C255.208 19.0453 254.946 19.2441 254.61 19.3884C254.276 19.5328 253.889 19.6049 253.449 19.6048C252.838 19.6046 252.339 19.4743 251.954 19.2138C251.568 18.9509 251.331 18.578 251.244 18.095L252.27 17.939C252.334 18.2066 252.465 18.409 252.664 18.5464C252.863 18.6814 253.122 18.7489 253.442 18.749C253.79 18.749 254.068 18.6769 254.276 18.5325C254.485 18.3858 254.589 18.2071 254.589 17.9964C254.589 17.8259 254.525 17.6827 254.397 17.5667C254.272 17.4506 254.079 17.363 253.818 17.3037L252.895 17.1011C252.386 16.985 252.01 16.8002 251.766 16.5469C251.525 16.2935 251.404 15.9727 251.404 15.5844C251.404 15.2624 251.494 14.9807 251.674 14.7393C251.854 14.4979 252.103 14.3097 252.42 14.1749C252.737 14.0376 253.101 13.9691 253.51 13.9692C254.1 13.9693 254.564 14.0972 254.902 14.353C255.241 14.6064 255.464 14.9462 255.573 15.3723ZM259.247 19.6062C258.71 19.6061 258.247 19.4911 257.859 19.2614C257.473 19.0293 257.174 18.7037 256.964 18.2846C256.756 17.8632 256.652 17.3695 256.652 16.8037C256.652 16.245 256.756 15.7526 256.965 15.3265C257.175 14.9004 257.469 14.5679 257.845 14.3289C258.224 14.0898 258.667 13.9704 259.174 13.9705C259.481 13.9706 259.78 14.0216 260.069 14.1234C260.357 14.2253 260.617 14.3852 260.846 14.603C261.076 14.8209 261.257 15.1038 261.389 15.4519C261.522 15.7975 261.588 16.2178 261.588 16.7126L261.588 17.089L257.252 17.0879L257.252 16.2925L260.547 16.2933C260.548 16.0139 260.491 15.7665 260.377 15.5511C260.264 15.3332 260.104 15.1615 259.898 15.036C259.694 14.9105 259.455 14.8477 259.181 14.8476C258.882 14.8476 258.622 14.9209 258.399 15.0676C258.179 15.212 258.009 15.4013 257.888 15.6357C257.769 15.8677 257.71 16.1198 257.71 16.392L257.71 17.0135C257.71 17.3781 257.774 17.6882 257.901 17.9439C258.032 18.1996 258.213 18.395 258.445 18.53C258.677 18.6626 258.948 18.729 259.258 18.7291C259.459 18.7291 259.643 18.7007 259.808 18.644C259.974 18.5848 260.117 18.4972 260.238 18.3813C260.359 18.2653 260.451 18.1221 260.515 17.9517L261.52 18.133C261.439 18.4289 261.295 18.6881 261.087 18.9106C260.881 19.1307 260.621 19.3023 260.309 19.4253C259.999 19.546 259.645 19.6063 259.247 19.6062ZM262.815 19.4969L262.817 14.0424L263.843 14.0426L263.843 14.9091L263.899 14.9091C263.999 14.6156 264.174 14.3848 264.425 14.2168C264.679 14.0464 264.965 13.9612 265.285 13.9613C265.351 13.9613 265.429 13.9637 265.519 13.9685C265.611 13.9732 265.684 13.9792 265.736 13.9863L265.735 15.0019C265.693 14.9901 265.617 14.977 265.508 14.9628C265.399 14.9462 265.29 14.9379 265.181 14.9379C264.93 14.9378 264.707 14.991 264.51 15.0975C264.316 15.2016 264.162 15.3472 264.048 15.5342C263.935 15.7188 263.878 15.9295 263.878 16.1662L263.877 19.4972L262.815 19.4969ZM271.537 14.0445L269.557 19.4986L268.421 19.4983L266.441 14.0433L267.581 14.0435L268.961 18.2413L269.018 18.2413L270.397 14.0442L271.537 14.0445ZM274.749 19.6099C274.211 19.6098 273.748 19.4948 273.36 19.2651C272.974 19.033 272.676 18.7074 272.465 18.2883C272.257 17.8669 272.153 17.3732 272.153 16.8074C272.153 16.2487 272.258 15.7563 272.466 15.3302C272.677 14.9041 272.971 14.5716 273.347 14.3326C273.726 14.0935 274.169 13.9741 274.675 13.9742C274.983 13.9743 275.281 14.0253 275.57 14.1271C275.859 14.229 276.118 14.3889 276.348 14.6067C276.577 14.8246 276.758 15.1075 276.891 15.4556C277.023 15.8012 277.09 16.2215 277.089 16.7163L277.089 17.0927L272.753 17.0917L272.754 16.2962L276.049 16.297C276.049 16.0176 275.992 15.7702 275.879 15.5548C275.765 15.3369 275.605 15.1653 275.399 15.0397C275.196 14.9142 274.957 14.8514 274.682 14.8514C274.384 14.8513 274.123 14.9246 273.901 15.0713C273.681 15.2157 273.51 15.405 273.389 15.6394C273.271 15.8714 273.212 16.1235 273.212 16.3957L273.211 17.0172C273.211 17.3818 273.275 17.6919 273.403 17.9476C273.533 18.2033 273.714 18.3987 273.946 18.5337C274.178 18.6663 274.449 18.7327 274.759 18.7328C274.961 18.7328 275.144 18.7044 275.31 18.6477C275.476 18.5885 275.619 18.501 275.74 18.385C275.86 18.269 275.953 18.1258 276.017 17.9554L277.022 18.1367C276.941 18.4326 276.797 18.6918 276.588 18.9143C276.382 19.1344 276.123 19.306 275.81 19.429C275.5 19.5497 275.146 19.61 274.749 19.6099ZM280.359 19.6077C279.918 19.6076 279.525 19.495 279.18 19.27C278.837 19.0427 278.567 18.7195 278.37 18.3004C278.176 17.8789 278.079 17.3735 278.08 16.784C278.08 16.1945 278.178 15.6903 278.375 15.2713C278.574 14.8523 278.846 14.5316 279.192 14.3091C279.537 14.0867 279.929 13.9755 280.367 13.9756C280.706 13.9757 280.978 14.0325 281.184 14.1462C281.392 14.2576 281.553 14.3878 281.667 14.537C281.783 14.6861 281.873 14.8176 281.937 14.9312L282 14.9312L282.001 12.2288L283.063 12.2291L283.061 19.5018L282.024 19.5015L282.024 18.6528L281.936 18.6528C281.872 18.7688 281.779 18.9013 281.659 19.0505C281.54 19.1996 281.377 19.3298 281.168 19.441C280.96 19.5522 280.69 19.6078 280.359 19.6077ZM280.593 18.7022C280.899 18.7023 281.157 18.6218 281.367 18.4609C281.581 18.2976 281.742 18.0716 281.851 17.7828C281.962 17.494 282.018 17.1578 282.018 16.7743C282.018 16.3955 281.963 16.064 281.855 15.7799C281.746 15.4958 281.586 15.2744 281.375 15.1157C281.165 14.9571 280.904 14.8777 280.594 14.8776C280.275 14.8775 280.008 14.9603 279.795 15.126C279.582 15.2917 279.421 15.5177 279.312 15.8042C279.205 16.0906 279.152 16.4137 279.152 16.7736C279.152 17.1382 279.206 17.4661 279.315 17.7573C279.424 18.0485 279.585 18.2794 279.798 18.4499C280.013 18.618 280.278 18.7021 280.593 18.7022Z" fill="white"/>
<path d="M317.542 19.5101L317.544 12.2373L320.136 12.238C320.702 12.2381 321.171 12.3412 321.542 12.5472C321.914 12.7533 322.192 13.0351 322.377 13.3926C322.561 13.7478 322.654 14.1479 322.654 14.593C322.653 15.0404 322.56 15.4428 322.373 15.8003C322.188 16.1554 321.909 16.437 321.534 16.6453C321.163 16.8511 320.695 16.954 320.132 16.9539L318.349 16.9534L318.349 16.023L320.032 16.0234C320.39 16.0235 320.68 15.962 320.903 15.839C321.125 15.7136 321.288 15.5432 321.393 15.3277C321.497 15.1123 321.549 14.8673 321.549 14.5927C321.549 14.3181 321.497 14.0742 321.393 13.8611C321.289 13.648 321.124 13.4811 320.9 13.3603C320.677 13.2395 320.383 13.1791 320.019 13.179L318.641 13.1786L318.64 19.5103L317.542 19.5101ZM345.224 19.5167L345.226 12.244L347.818 12.2446C348.381 12.2447 348.849 12.3419 349.221 12.5361C349.595 12.7303 349.874 12.9991 350.058 13.3424C350.243 13.6834 350.335 14.0776 350.335 14.525C350.335 14.9701 350.241 15.3619 350.054 15.7004C349.87 16.0365 349.59 16.298 349.216 16.485C348.844 16.6719 348.377 16.7653 347.813 16.7652L345.85 16.7647L345.85 15.8201L347.714 15.8206C348.069 15.8206 348.358 15.7698 348.581 15.6681C348.806 15.5663 348.97 15.4184 349.074 15.2243C349.179 15.0302 349.231 14.797 349.231 14.5248C349.231 14.2501 349.178 14.0122 349.071 13.8109C348.967 13.6097 348.803 13.4558 348.578 13.3492C348.355 13.2402 348.063 13.1857 347.701 13.1856L346.323 13.1853L346.321 19.517L345.224 19.5167ZM348.815 16.2363L350.611 19.518L349.361 19.5177L347.6 16.236L348.815 16.2363Z" fill="#AC04FF"/>
<path d="M323.904 19.5116L323.905 14.057L324.931 14.0573L324.931 14.9238L324.988 14.9238C325.087 14.6302 325.262 14.3995 325.513 14.2314C325.767 14.061 326.053 13.9759 326.373 13.976C326.439 13.976 326.517 13.9784 326.607 13.9831C326.7 13.9879 326.772 13.9938 326.824 14.0009L326.824 15.0165C326.781 15.0047 326.705 14.9917 326.596 14.9774C326.487 14.9608 326.379 14.9525 326.27 14.9525C326.019 14.9524 325.795 15.0056 325.598 15.1121C325.404 15.2163 325.25 15.3618 325.137 15.5488C325.023 15.7334 324.966 15.9441 324.966 16.1809L324.965 19.5118L323.904 19.5116ZM327.791 19.5125L327.793 14.058L328.855 14.0582L328.853 19.5128L327.791 19.5125ZM328.329 13.2165C328.144 13.2164 327.986 13.1548 327.853 13.0317C327.723 12.9062 327.658 12.757 327.658 12.5842C327.658 12.409 327.723 12.2599 327.854 12.1368C327.986 12.0114 328.145 11.9487 328.329 11.9487C328.514 11.9488 328.672 12.0115 328.802 12.137C328.934 12.2602 329 12.4093 329 12.5845C329 12.7574 328.934 12.9065 328.801 13.0319C328.671 13.155 328.514 13.2165 328.329 13.2165ZM330.332 19.5131L330.333 14.0586L331.352 14.0588L331.352 14.9466L331.419 14.9466C331.533 14.646 331.719 14.4117 331.977 14.2436C332.235 14.0732 332.544 13.9881 332.904 13.9882C333.269 13.9883 333.574 14.0736 333.82 14.2441C334.069 14.4146 334.252 14.649 334.37 14.9473L334.427 14.9473C334.557 14.6562 334.765 14.4242 335.049 14.2515C335.333 14.0763 335.672 13.9888 336.064 13.9889C336.559 13.989 336.963 14.1442 337.275 14.4544C337.59 14.7646 337.747 15.2322 337.747 15.8572L337.746 19.5149L336.685 19.5146L336.685 15.9564C336.686 15.5871 336.585 15.3195 336.384 15.1538C336.183 14.988 335.942 14.9051 335.663 14.905C335.317 14.9049 335.049 15.0114 334.857 15.2244C334.665 15.4351 334.569 15.7061 334.569 16.0376L334.568 19.5141L333.51 19.5139L333.511 15.8882C333.511 15.5922 333.419 15.3543 333.234 15.1743C333.049 14.9944 332.809 14.9043 332.513 14.9043C332.312 14.9042 332.126 14.9574 331.956 15.0639C331.787 15.1681 331.651 15.3136 331.547 15.5006C331.445 15.6876 331.394 15.9042 331.394 16.1505L331.393 19.5134L330.332 19.5131ZM341.57 19.6259C341.033 19.6258 340.57 19.5108 340.182 19.2811C339.796 19.049 339.498 18.7234 339.287 18.3043C339.079 17.8829 338.975 17.3892 338.975 16.8234C338.975 16.2647 339.08 15.7723 339.288 15.3462C339.499 14.9201 339.792 14.5876 340.169 14.3486C340.548 14.1096 340.991 13.9901 341.497 13.9902C341.805 13.9903 342.103 14.0413 342.392 14.1431C342.681 14.245 342.94 14.4049 343.17 14.6227C343.399 14.8406 343.58 15.1235 343.713 15.4716C343.845 15.8173 343.911 16.2375 343.911 16.7323L343.911 17.1087L339.575 17.1077L339.575 16.3122L342.871 16.313C342.871 16.0336 342.814 15.7862 342.701 15.5708C342.587 15.3529 342.427 15.1813 342.221 15.0557C342.018 14.9302 341.779 14.8674 341.504 14.8674C341.206 14.8673 340.945 14.9406 340.723 15.0873C340.503 15.2317 340.332 15.4211 340.211 15.6554C340.093 15.8874 340.034 16.1395 340.033 16.4118L340.033 17.0332C340.033 17.3978 340.097 17.7079 340.225 17.9636C340.355 18.2194 340.536 18.4147 340.768 18.5497C341 18.6823 341.271 18.7487 341.581 18.7488C341.782 18.7488 341.966 18.7205 342.132 18.6637C342.297 18.6045 342.441 18.517 342.561 18.401C342.682 18.285 342.775 18.1418 342.839 17.9714L343.843 18.1527C343.763 18.4486 343.618 18.7078 343.41 18.9303C343.204 19.1504 342.945 19.322 342.632 19.445C342.322 19.5657 341.968 19.626 341.57 19.6259ZM353.916 19.6289C353.379 19.6287 352.916 19.5138 352.528 19.2841C352.142 19.052 351.844 18.7264 351.633 18.3073C351.425 17.8858 351.321 17.3922 351.321 16.8264C351.321 16.2677 351.426 15.7753 351.634 15.3492C351.845 14.9231 352.139 14.5906 352.515 14.3515C352.894 14.1125 353.337 13.9931 353.843 13.9932C354.151 13.9933 354.449 14.0442 354.738 14.1461C355.027 14.248 355.286 14.4078 355.516 14.6257C355.745 14.8435 355.926 15.1265 356.059 15.4745C356.191 15.8202 356.257 16.2404 356.257 16.7352L356.257 17.1117L351.921 17.1106L351.922 16.3152L355.217 16.316C355.217 16.0366 355.16 15.7892 355.047 15.5737C354.933 15.3559 354.773 15.1842 354.567 15.0587C354.364 14.9332 354.125 14.8704 353.85 14.8703C353.552 14.8702 353.291 14.9436 353.069 15.0903C352.849 15.2347 352.678 15.424 352.557 15.6584C352.439 15.8903 352.38 16.1425 352.38 16.4147L352.379 17.0362C352.379 17.4007 352.443 17.7109 352.571 17.9666C352.701 18.2223 352.882 18.4177 353.114 18.5527C353.346 18.6853 353.617 18.7517 353.927 18.7517C354.129 18.7518 354.312 18.7234 354.478 18.6666C354.644 18.6075 354.787 18.5199 354.908 18.404C355.028 18.288 355.121 18.1448 355.185 17.9743L356.19 18.1557C356.109 18.4516 355.965 18.7108 355.756 18.9333C355.55 19.1534 355.291 19.325 354.978 19.448C354.668 19.5687 354.314 19.629 353.916 19.6289ZM361.573 15.3977L360.611 15.568C360.571 15.4448 360.507 15.3276 360.419 15.2164C360.334 15.1051 360.218 15.0139 360.071 14.9428C359.924 14.8718 359.741 14.8362 359.521 14.8362C359.22 14.8361 358.969 14.9035 358.768 15.0384C358.567 15.1709 358.466 15.3425 358.466 15.5532C358.466 15.7355 358.533 15.8823 358.668 15.9936C358.803 16.1049 359.021 16.1961 359.321 16.2672L360.188 16.4663C360.69 16.5824 361.064 16.7612 361.31 17.0028C361.556 17.2443 361.679 17.558 361.679 17.9439C361.679 18.2706 361.584 18.5618 361.395 18.8174C361.208 19.0707 360.946 19.2695 360.61 19.4138C360.276 19.5582 359.889 19.6303 359.449 19.6302C358.838 19.63 358.339 19.4997 357.954 19.2392C357.568 18.9763 357.331 18.6034 357.244 18.1204L358.27 17.9644C358.334 18.2319 358.465 18.4344 358.664 18.5718C358.863 18.7067 359.122 18.7743 359.442 18.7744C359.79 18.7744 360.068 18.7023 360.276 18.5579C360.485 18.4112 360.589 18.2325 360.589 18.0218C360.589 17.8513 360.525 17.7081 360.397 17.5921C360.272 17.476 360.079 17.3884 359.818 17.3291L358.895 17.1265C358.386 17.0104 358.01 16.8256 357.766 16.5722C357.525 16.3189 357.404 15.9981 357.404 15.6098C357.404 15.2878 357.494 15.0061 357.674 14.7647C357.854 14.5233 358.103 14.3351 358.42 14.2002C358.737 14.063 359.101 13.9944 359.51 13.9945C360.1 13.9947 360.564 14.1226 360.902 14.3784C361.241 14.6318 361.464 14.9716 361.573 15.3977ZM365.247 19.6316C364.71 19.6314 364.247 19.5165 363.859 19.2868C363.473 19.0547 363.174 18.7291 362.964 18.31C362.756 17.8885 362.652 17.3949 362.652 16.8291C362.652 16.2704 362.756 15.778 362.965 15.3519C363.175 14.9258 363.469 14.5933 363.845 14.3542C364.224 14.1152 364.667 13.9958 365.174 13.9959C365.481 13.996 365.78 14.0469 366.069 14.1488C366.357 14.2507 366.617 14.4105 366.846 14.6284C367.076 14.8463 367.257 15.1292 367.389 15.4773C367.522 15.8229 367.588 16.2432 367.588 16.738L367.588 17.1144L363.252 17.1133L363.252 16.3179L366.547 16.3187C366.548 16.0393 366.491 15.7919 366.377 15.5764C366.264 15.3586 366.104 15.1869 365.898 15.0614C365.694 14.9359 365.455 14.8731 365.181 14.873C364.882 14.873 364.622 14.9463 364.399 15.093C364.179 15.2374 364.009 15.4267 363.888 15.6611C363.769 15.8931 363.71 16.1452 363.71 16.4174L363.71 17.0389C363.71 17.4035 363.774 17.7136 363.901 17.9693C364.032 18.225 364.213 18.4204 364.445 18.5554C364.677 18.688 364.948 18.7544 365.258 18.7544C365.459 18.7545 365.643 18.7261 365.808 18.6693C365.974 18.6102 366.117 18.5226 366.238 18.4067C366.359 18.2907 366.451 18.1475 366.515 17.977L367.52 18.1584C367.439 18.4543 367.295 18.7135 367.087 18.936C366.881 19.1561 366.621 19.3277 366.309 19.4507C365.999 19.5714 365.645 19.6317 365.247 19.6316ZM368.815 19.5223L368.817 14.0678L369.843 14.068L369.843 14.9345L369.899 14.9345C369.999 14.641 370.174 14.4102 370.425 14.2422C370.679 14.0718 370.965 13.9866 371.285 13.9867C371.351 13.9867 371.429 13.9891 371.519 13.9939C371.611 13.9986 371.684 14.0046 371.736 14.0117L371.735 15.0273C371.693 15.0155 371.617 15.0024 371.508 14.9882C371.399 14.9716 371.29 14.9633 371.181 14.9632C370.93 14.9632 370.707 15.0164 370.51 15.1229C370.316 15.227 370.162 15.3726 370.048 15.5596C369.935 15.7442 369.878 15.9549 369.878 16.1916L369.877 19.5226L368.815 19.5223ZM377.537 14.0699L375.557 19.524L374.421 19.5237L372.441 14.0687L373.581 14.0689L374.961 18.2667L375.018 18.2667L376.397 14.0696L377.537 14.0699ZM380.749 19.6353C380.211 19.6352 379.748 19.5202 379.36 19.2905C378.974 19.0584 378.676 18.7328 378.465 18.3137C378.257 17.8923 378.153 17.3986 378.153 16.8328C378.153 16.2741 378.258 15.7817 378.466 15.3556C378.677 14.9295 378.971 14.597 379.347 14.358C379.726 14.1189 380.169 13.9995 380.675 13.9996C380.983 13.9997 381.281 14.0507 381.57 14.1525C381.859 14.2544 382.118 14.4143 382.348 14.6321C382.577 14.85 382.758 15.1329 382.891 15.481C383.023 15.8266 383.09 16.2469 383.089 16.7417L383.089 17.1181L378.753 17.117L378.754 16.3216L382.049 16.3224C382.049 16.043 381.992 15.7956 381.879 15.5802C381.765 15.3623 381.605 15.1906 381.399 15.0651C381.196 14.9396 380.957 14.8768 380.682 14.8767C380.384 14.8767 380.123 14.95 379.901 15.0967C379.681 15.2411 379.51 15.4304 379.389 15.6648C379.271 15.8968 379.212 16.1489 379.212 16.4211L379.211 17.0426C379.211 17.4072 379.275 17.7173 379.403 17.973C379.533 18.2287 379.714 18.4241 379.946 18.5591C380.178 18.6917 380.449 18.7581 380.759 18.7582C380.961 18.7582 381.144 18.7298 381.31 18.6731C381.476 18.6139 381.619 18.5264 381.74 18.4104C381.86 18.2944 381.953 18.1512 382.017 17.9808L383.022 18.1621C382.941 18.458 382.797 18.7172 382.588 18.9397C382.382 19.1598 382.123 19.3314 381.81 19.4544C381.5 19.5751 381.146 19.6354 380.749 19.6353ZM386.359 19.6331C385.918 19.633 385.525 19.5204 385.18 19.2954C384.837 19.0681 384.567 18.7449 384.37 18.3258C384.176 17.9043 384.079 17.3989 384.08 16.8094C384.08 16.2199 384.178 15.7156 384.375 15.2967C384.574 14.8777 384.846 14.557 385.192 14.3345C385.537 14.112 385.929 14.0009 386.367 14.001C386.706 14.0011 386.978 14.0579 387.184 14.1716C387.392 14.2829 387.553 14.4132 387.667 14.5624C387.783 14.7115 387.873 14.843 387.937 14.9566L388 14.9566L388.001 12.2542L389.063 12.2545L389.061 19.5272L388.024 19.5269L388.024 18.6782L387.936 18.6782C387.872 18.7942 387.779 18.9267 387.659 19.0759C387.54 19.225 387.377 19.3551 387.168 19.4664C386.96 19.5776 386.69 19.6332 386.359 19.6331ZM386.593 18.7276C386.899 18.7277 387.157 18.6472 387.367 18.4863C387.581 18.323 387.742 18.0969 387.851 17.8081C387.962 17.5193 388.018 17.1832 388.018 16.7997C388.018 16.4209 387.963 16.0894 387.855 15.8053C387.746 15.5212 387.586 15.2998 387.375 15.1411C387.165 14.9825 386.904 14.9031 386.594 14.903C386.275 14.9029 386.008 14.9857 385.795 15.1514C385.582 15.3171 385.421 15.5431 385.312 15.8296C385.205 16.116 385.152 16.4391 385.152 16.799C385.152 17.1636 385.206 17.4915 385.315 17.7827C385.424 18.0739 385.585 18.3048 385.798 18.4753C386.013 18.6434 386.278 18.7275 386.593 18.7276Z" fill="white"/>
</g>
<g clip-path="url(#clip1_438_2499)">
<rect width="378.306" height="28.6356" transform="matrix(-0.996303 -0.0859105 -0.0875129 0.996163 380 40.6689)" fill="#0E0014"/>
<path d="M-2.94411 25.0435L-2.25803 17.8032L0.457462 18.0561C1.01376 18.1079 1.47066 18.2551 1.82816 18.4976C2.18801 18.7403 2.44739 19.0522 2.60629 19.4332C2.76776 19.812 2.82673 20.2312 2.78318 20.6908C2.73918 21.1551 2.60227 21.5584 2.37246 21.9008C2.14264 22.2432 1.82697 22.5003 1.42545 22.6722C1.02416 22.8416 0.54418 22.9004 -0.0144758 22.8483L-1.8142 22.6807L-1.71202 21.6024L-0.0890907 21.7536C0.236202 21.7839 0.507925 21.7521 0.726079 21.6583C0.944232 21.5645 1.11219 21.4232 1.22995 21.2345C1.35007 21.0459 1.4223 20.8232 1.44665 20.5663C1.47099 20.3094 1.44175 20.0784 1.35893 19.8734C1.27846 19.6685 1.13847 19.5021 0.938952 19.3742C0.742016 19.2441 0.479722 19.1638 0.152072 19.1333L-1.0501 19.0213L-1.63233 25.1657L-2.94411 25.0435ZM25.0944 27.6549L25.7805 20.4145L28.496 20.6674C29.0523 20.7192 29.5098 20.8593 29.8687 21.0877C30.2299 21.3163 30.4906 21.6141 30.6508 21.9809C30.8136 22.3456 30.8732 22.7589 30.8294 23.2208C30.7854 23.6851 30.6482 24.0789 30.4178 24.4023C30.19 24.7234 29.8763 24.9593 29.4768 25.11C29.0775 25.2582 28.5998 25.3065 28.0435 25.2546L26.1094 25.0745L26.2126 23.9856L27.9698 24.1493C28.2951 24.1796 28.5657 24.1596 28.7817 24.0894C28.9978 24.0168 29.1636 23.8979 29.2792 23.7327C29.3973 23.5654 29.4685 23.3533 29.4929 23.0964C29.5172 22.8394 29.4873 22.6155 29.4031 22.4246C29.3192 22.2313 29.178 22.0779 28.9795 21.9643C28.7812 21.8484 28.5182 21.7751 28.1906 21.7446L26.9884 21.6326L26.4062 27.7771L25.0944 27.6549ZM29.1461 24.7225L30.6279 28.1703L29.1641 28.0339L27.7141 24.5891L29.1461 24.7225Z" fill="#AC04FF"/>
<path d="M3.45685 25.6397L3.97141 20.2094L5.21247 20.325L5.12671 21.23L5.18328 21.2353C5.31199 20.9311 5.5046 20.7053 5.76111 20.558C6.02021 20.4085 6.30533 20.3483 6.61648 20.3773C6.6872 20.3839 6.76583 20.3948 6.85237 20.41C6.9415 20.423 7.01497 20.4382 7.07278 20.4555L6.96123 21.6327C6.9088 21.6088 6.82433 21.5843 6.70781 21.5592C6.59387 21.5319 6.48268 21.5133 6.37425 21.5032C6.14089 21.4814 5.9263 21.5126 5.73047 21.5966C5.53723 21.6784 5.3792 21.8028 5.25638 21.9697C5.13355 22.1366 5.0612 22.3355 5.03931 22.5665L4.73681 25.7589L3.45685 25.6397ZM7.45435 26.012L7.96891 20.5817L9.24887 20.7009L8.73431 26.1312L7.45435 26.012ZM8.68545 19.8709C8.48273 19.8521 8.31467 19.7686 8.18125 19.6207C8.04806 19.4704 7.9905 19.2998 8.00859 19.1089C8.02691 18.9156 8.1155 18.7586 8.27438 18.6379C8.43348 18.5148 8.61439 18.4627 8.81711 18.4816C9.02218 18.5007 9.19014 18.5852 9.32097 18.7353C9.45439 18.8833 9.51194 19.0539 9.49363 19.2472C9.47554 19.4381 9.38694 19.5951 9.22784 19.7182C9.07133 19.8391 8.89053 19.89 8.68545 19.8709ZM10.1003 26.2584L10.6148 20.8281L11.8382 20.9421L11.7508 21.8648L11.8144 21.8707C11.9571 21.5702 12.1675 21.3449 12.4456 21.1948C12.724 21.0424 13.0447 20.9831 13.4078 21.0169C13.7755 21.0512 14.077 21.1696 14.3122 21.3722C14.55 21.5727 14.7063 21.831 14.781 22.147L14.8375 22.1523C14.9864 21.8618 15.2119 21.6403 15.514 21.4877C15.8188 21.333 16.168 21.274 16.5617 21.3107C17.0614 21.3572 17.4542 21.5531 17.7402 21.8983C18.0261 22.2436 18.1404 22.7191 18.083 23.3248L17.7376 26.9697L16.4541 26.8502L16.7807 23.4032C16.8127 23.0662 16.7464 22.8116 16.582 22.6393C16.4178 22.4647 16.2061 22.3653 15.9468 22.3412C15.638 22.3124 15.3873 22.3866 15.1945 22.5636C15.0043 22.7385 14.8947 22.9791 14.8657 23.2855L14.5448 26.6724L13.2896 26.5555L13.6212 23.0555C13.6478 22.775 13.5842 22.5432 13.4303 22.36C13.2788 22.1771 13.0675 22.073 12.7964 22.0478C12.6126 22.0307 12.4407 22.0622 12.2809 22.1424C12.1214 22.2203 11.9888 22.3399 11.8831 22.5013C11.7777 22.6603 11.7144 22.8517 11.6931 23.0756L11.3802 26.3776L10.1003 26.2584ZM21.4802 27.4253C20.9357 27.3746 20.4762 27.2176 20.1016 26.9545C19.7296 26.6892 19.4573 26.3381 19.2847 25.9012C19.1123 25.4619 19.053 24.9582 19.1068 24.3902C19.1597 23.8317 19.3123 23.3513 19.5644 22.9492C19.8191 22.5449 20.1497 22.2428 20.5563 22.0429C20.9631 21.8407 21.4257 21.7637 21.9443 21.812C22.2791 21.8432 22.5898 21.9268 22.8765 22.0629C23.1658 22.1968 23.4142 22.3864 23.6216 22.6316C23.8314 22.877 23.9859 23.1791 24.0851 23.5378C24.1845 23.8942 24.2116 24.3105 24.1665 24.7866L24.1293 25.179L19.6778 24.7644L19.7595 23.9018L22.9841 24.2021C23.005 23.9568 22.9726 23.7338 22.887 23.5332C22.8016 23.3303 22.671 23.1648 22.4953 23.0367C22.3219 22.9088 22.1127 22.8334 21.8675 22.8106C21.6059 22.7862 21.37 22.8285 21.16 22.9373C20.9501 23.0438 20.7801 23.1944 20.6499 23.3891C20.5222 23.5817 20.4457 23.7993 20.4204 24.0418L20.349 24.7948C20.3191 25.1106 20.3512 25.3871 20.4452 25.6241C20.5395 25.8587 20.6847 26.0458 20.8807 26.1854C21.077 26.3225 21.3142 26.4041 21.5924 26.43C21.7786 26.4473 21.9496 26.4371 22.1053 26.3993C22.2613 26.3591 22.3996 26.2923 22.5203 26.199C22.6409 26.1056 22.7367 25.9849 22.8078 25.837L23.9902 26.0826C23.8848 26.3914 23.7149 26.6538 23.4804 26.8697C23.2485 27.0835 22.9626 27.24 22.6227 27.3391C22.283 27.4358 21.9021 27.4646 21.4802 27.4253ZM33.8799 28.5801C33.3354 28.5294 32.8759 28.3725 32.5013 28.1093C32.1293 27.8441 31.857 27.493 31.6844 27.056C31.512 26.6167 31.4527 26.1131 31.5065 25.5451C31.5595 24.9865 31.712 24.5061 31.9641 24.104C32.2188 23.6998 32.5494 23.3977 32.956 23.1978C33.3628 22.9955 33.8255 22.9185 34.344 22.9668C34.6788 22.998 34.9895 23.0816 35.2762 23.2177C35.5655 23.3516 35.8139 23.5412 36.0213 23.7864C36.2311 24.0318 36.3856 24.3339 36.4848 24.6927C36.5842 25.0491 36.6113 25.4653 36.5662 25.9414L36.529 26.3338L32.0775 25.9192L32.1592 25.0566L35.3838 25.3569C35.4047 25.1116 35.3723 24.8887 35.2867 24.6881C35.2013 24.4852 35.0707 24.3196 34.895 24.1915C34.7217 24.0636 34.5124 23.9883 34.2673 23.9654C34.0056 23.9411 33.7697 23.9833 33.5597 24.0921C33.3498 24.1986 33.1798 24.3492 33.0496 24.5439C32.922 24.7365 32.8455 24.9541 32.8201 25.1966L32.7487 25.9497C32.7188 26.2655 32.7509 26.5419 32.8449 26.7789C32.9392 27.0136 33.0844 27.2007 33.2804 27.3402C33.4767 27.4774 33.7139 27.5589 33.9921 27.5848C34.1783 27.6021 34.3493 27.5919 34.5051 27.5541C34.6611 27.514 34.7994 27.4472 34.92 27.3538C35.0406 27.2604 35.1364 27.1398 35.2075 26.9918L36.3899 27.2375C36.2845 27.5463 36.1146 27.8086 35.8801 28.0246C35.6482 28.2384 35.3623 28.3948 35.0224 28.4939C34.6827 28.5907 34.3019 28.6194 33.8799 28.5801ZM42.1085 25.2093L40.9297 25.2279C40.9078 25.107 40.8606 24.9908 40.7879 24.8795C40.7176 24.7683 40.6171 24.6745 40.4864 24.5981C40.3557 24.5218 40.1914 24.4744 39.9934 24.4559C39.727 24.4311 39.4976 24.468 39.3051 24.5666C39.1151 24.6654 39.0125 24.8068 38.9974 24.9909C38.9801 25.1486 39.0257 25.2824 39.1342 25.3924C39.245 25.5026 39.4353 25.6023 39.7051 25.6916L40.6127 25.9759C41.116 26.1345 41.4813 26.3457 41.7084 26.6094C41.9378 26.8732 42.0353 27.1997 42.0008 27.5889C41.966 27.9304 41.8373 28.2227 41.6145 28.4659C41.3943 28.7069 41.1028 28.8843 40.7401 28.9979C40.3774 29.1116 39.9697 29.1473 39.5171 29.1051C38.8524 29.0432 38.3305 28.8543 37.9514 28.5385C37.5726 28.2202 37.3679 27.8077 37.3375 27.3008L38.597 27.2968C38.6303 27.5472 38.733 27.7434 38.905 27.8854C39.0771 28.0275 39.3104 28.1122 39.6051 28.1397C39.9091 28.168 40.159 28.1283 40.3547 28.0205C40.5528 27.9129 40.6605 27.7672 40.6779 27.5833C40.6927 27.4278 40.6447 27.2937 40.5341 27.1812C40.4259 27.0689 40.2494 26.974 40.0047 26.8965L39.0967 26.6158C38.586 26.4588 38.2179 26.2403 37.9924 25.9601C37.7671 25.6776 37.6744 25.3385 37.7143 24.9427C37.7436 24.6078 37.8619 24.3264 38.069 24.0984C38.2786 23.8682 38.5548 23.7014 38.8976 23.5978C39.2429 23.492 39.6324 23.4593 40.0661 23.4997C40.7026 23.559 41.1906 23.7412 41.5303 24.0463C41.8724 24.3516 42.0651 24.7392 42.1085 25.2093ZM45.3462 29.648C44.8017 29.5973 44.3421 29.4404 43.9676 29.1772C43.5956 28.912 43.3233 28.5609 43.1507 28.1239C42.9783 27.6846 42.919 27.181 42.9728 26.613C43.0257 26.0544 43.1783 25.574 43.4304 25.1719C43.6851 24.7677 44.0157 24.4656 44.4223 24.2657C44.829 24.0634 45.2917 23.9864 45.8103 24.0347C46.145 24.0659 46.4558 24.1495 46.7425 24.2856C47.0318 24.4195 47.2802 24.6091 47.4876 24.8543C47.6974 25.0997 47.8519 25.4018 47.9511 25.7606C48.0505 26.117 48.0776 26.5332 48.0325 27.0093L47.9953 27.4017L43.5437 26.9871L43.6255 26.1245L46.8501 26.4249C46.871 26.1795 46.8386 25.9566 46.753 25.756C46.6676 25.5531 46.537 25.3875 46.3613 25.2594C46.1879 25.1315 45.9787 25.0562 45.7335 25.0333C45.4719 25.009 45.236 25.0512 45.026 25.16C44.8161 25.2665 44.6461 25.4171 44.5159 25.6118C44.3882 25.8044 44.3117 26.022 44.2864 26.2645L44.215 27.0176C44.1851 27.3334 44.2172 27.6098 44.3112 27.8468C44.4055 28.0815 44.5507 28.2686 44.7467 28.4081C44.943 28.5453 45.1802 28.6268 45.4583 28.6527C45.6446 28.6701 45.8155 28.6598 45.9713 28.622C46.1273 28.5819 46.2656 28.5151 46.3862 28.4217C46.5069 28.3283 46.6027 28.2077 46.6738 28.0597L47.8562 28.3054C47.7508 28.6142 47.5809 28.8765 47.3464 29.0925C47.1145 29.3063 46.8286 29.4627 46.4887 29.5618C46.1489 29.6586 45.7681 29.6873 45.3462 29.648ZM48.9038 29.8724L49.4184 24.4421L50.6594 24.5577L50.5737 25.4627L50.6302 25.468C50.7589 25.1637 50.9516 24.938 51.2081 24.7907C51.4672 24.6412 51.7523 24.581 52.0634 24.61C52.1342 24.6166 52.2128 24.6275 52.2993 24.6426C52.3885 24.6557 52.4619 24.6709 52.5197 24.6881L52.4082 25.8654C52.3558 25.8415 52.2713 25.817 52.1548 25.7919C52.0408 25.7646 51.9296 25.7459 51.8212 25.7358C51.5878 25.7141 51.3733 25.7452 51.1774 25.8292C50.9842 25.9111 50.8262 26.0355 50.7033 26.2024C50.5805 26.3693 50.5082 26.5682 50.4863 26.7992L50.1838 29.9916L48.9038 29.8724ZM58.4323 25.2816L55.9836 30.5317L54.5693 30.4L53.1498 24.7896L54.5146 24.9167L55.3805 29.0668L55.4371 29.0721L57.071 25.1548L58.4323 25.2816ZM61.0628 31.1118C60.5182 31.0611 60.0587 30.9041 59.6841 30.641C59.3121 30.3757 59.0398 30.0246 58.8672 29.5877C58.6948 29.1484 58.6355 28.6448 58.6894 28.0767C58.7423 27.5182 58.8948 27.0378 59.1469 26.6357C59.4017 26.2314 59.7323 25.9293 60.1388 25.7294C60.5456 25.5272 61.0083 25.4502 61.5269 25.4985C61.8616 25.5297 62.1723 25.6133 62.4591 25.7494C62.7484 25.8833 62.9968 26.0729 63.2042 26.3181C63.414 26.5635 63.5685 26.8656 63.6676 27.2243C63.767 27.5807 63.7942 27.997 63.7491 28.4731L63.7119 28.8655L59.2603 28.4509L59.342 27.5883L62.5667 27.8886C62.5876 27.6433 62.5552 27.4203 62.4696 27.2198C62.3841 27.0168 62.2536 26.8513 62.0779 26.7232C61.9045 26.5953 61.6952 26.5199 61.4501 26.4971C61.1884 26.4727 60.9526 26.515 60.7425 26.6238C60.5327 26.7303 60.3627 26.8809 60.2324 27.0756C60.1048 27.2682 60.0283 27.4858 60.0029 27.7283L59.9316 28.4813C59.9017 28.7971 59.9337 29.0736 60.0278 29.3106C60.1221 29.5453 60.2672 29.7323 60.4633 29.8719C60.6595 30.009 60.8968 30.0906 61.1749 30.1165C61.3611 30.1338 61.5321 30.1236 61.6879 30.0858C61.8439 30.0456 61.9822 29.9789 62.1028 29.8855C62.2234 29.7921 62.3193 29.6714 62.3904 29.5235L63.5727 29.7691C63.4674 30.0779 63.2975 30.3403 63.063 30.5562C62.8311 30.77 62.5452 30.9265 62.2052 31.0256C61.8655 31.1224 61.4847 31.1511 61.0628 31.1118ZM66.6267 31.6193C66.2001 31.5796 65.8286 31.4344 65.5123 31.1838C65.196 30.9332 64.9598 30.5902 64.8037 30.1548C64.6475 29.7194 64.5977 29.2036 64.6542 28.6073C64.7114 28.0039 64.8586 27.5041 65.096 27.1077C65.3359 26.7092 65.6356 26.4197 65.9951 26.2392C66.3549 26.0563 66.7434 25.9843 67.1606 26.0232C67.4788 26.0528 67.7353 26.1314 67.9301 26.2589C68.1251 26.3841 68.2756 26.5277 68.3815 26.6897C68.4877 26.8494 68.5675 26.9983 68.621 27.1364L68.674 27.1414L68.9306 24.4333L70.2141 24.5528L69.5281 31.7932L68.2693 31.676L68.3504 30.8204L68.2726 30.8132C68.1941 30.939 68.0853 31.0704 67.9463 31.2072C67.8076 31.3417 67.6307 31.4512 67.4158 31.5358C67.2009 31.6205 66.9379 31.6483 66.6267 31.6193ZM67.0833 30.6026C67.3544 30.6278 67.5924 30.5762 67.7971 30.4479C68.0021 30.3172 68.1666 30.1245 68.2907 29.8697C68.4147 29.615 68.4933 29.312 68.5266 28.9608C68.5599 28.6097 68.5393 28.2998 68.4649 28.0313C68.3928 27.7631 68.2681 27.5482 68.0908 27.3866C67.9158 27.2253 67.6905 27.1318 67.4147 27.1061C67.1294 27.0795 66.8843 27.1316 66.6793 27.2623C66.4743 27.393 66.3111 27.5847 66.1897 27.8373C66.0682 28.0899 65.9915 28.3847 65.9596 28.7218C65.9275 29.0611 65.9471 29.3685 66.0185 29.6438C66.0925 29.917 66.2177 30.1391 66.3941 30.3101C66.5731 30.4789 66.8028 30.5764 67.0833 30.6026Z" fill="white"/>
<path d="M103.594 34.9654L104.28 27.725L106.996 27.9779C107.552 28.0298 108.009 28.1769 108.366 28.4195C108.726 28.6622 108.985 28.9741 109.144 29.355C109.306 29.7339 109.365 30.1531 109.321 30.6127C109.277 31.077 109.14 31.4803 108.911 31.8227C108.681 32.1651 108.365 32.4222 107.964 32.594C107.562 32.7635 107.082 32.8222 106.524 32.7702L104.724 32.6026L104.826 31.5243L106.449 31.6755C106.774 31.7058 107.046 31.674 107.264 31.5802C107.482 31.4864 107.65 31.3451 107.768 31.1563C107.888 30.9678 107.96 30.7451 107.985 30.4882C108.009 30.2313 107.98 30.0003 107.897 29.7952C107.817 29.5904 107.677 29.424 107.477 29.296C107.28 29.1659 107.018 29.0856 106.69 29.0551L105.488 28.9432L104.906 35.0876L103.594 34.9654ZM131.632 37.5768L132.319 30.3364L135.034 30.5893C135.59 30.6411 136.048 30.7812 136.407 31.0096C136.768 31.2382 137.029 31.5359 137.189 31.9027C137.352 32.2674 137.411 32.6808 137.367 33.1427C137.323 33.607 137.186 34.0008 136.956 34.3241C136.728 34.6453 136.414 34.8812 136.015 35.0318C135.616 35.1801 135.138 35.2283 134.582 35.1765L132.647 34.9964L132.751 33.9075L134.508 34.0712C134.833 34.1015 135.104 34.0815 135.32 34.0113C135.536 33.9387 135.702 33.8198 135.817 33.6546C135.935 33.4872 136.007 33.2751 136.031 33.0182C136.055 32.7613 136.025 32.5374 135.941 32.3465C135.857 32.1532 135.716 31.9998 135.518 31.8862C135.319 31.7702 135.056 31.697 134.729 31.6665L133.526 31.5545L132.944 37.6989L131.632 37.5768ZM135.684 34.6444L137.166 38.0921L135.702 37.9558L134.252 34.511L135.684 34.6444Z" fill="#AC04FF"/>
<path d="M109.995 35.5616L110.509 30.1313L111.751 30.2469L111.665 31.1519L111.721 31.1572C111.85 30.8529 112.043 30.6272 112.299 30.4799C112.558 30.3304 112.843 30.2702 113.155 30.2992C113.225 30.3058 113.304 30.3166 113.39 30.3318C113.48 30.3449 113.553 30.3601 113.611 30.3773L113.499 31.5546C113.447 31.5307 113.362 31.5062 113.246 31.4811C113.132 31.4538 113.021 31.4351 112.912 31.425C112.679 31.4033 112.464 31.4344 112.269 31.5184C112.075 31.6003 111.917 31.7247 111.794 31.8916C111.672 32.0585 111.599 32.2574 111.577 32.4884L111.275 35.6808L109.995 35.5616ZM113.992 35.9339L114.507 30.5036L115.787 30.6228L115.272 36.0531L113.992 35.9339ZM115.224 29.7928C115.021 29.7739 114.853 29.6905 114.719 29.5426C114.586 29.3923 114.529 29.2216 114.547 29.0307C114.565 28.8375 114.654 28.6805 114.812 28.5597C114.972 28.4367 115.152 28.3845 115.355 28.4034C115.56 28.4225 115.728 28.5071 115.859 28.6572C115.992 28.8052 116.05 28.9758 116.032 29.169C116.014 29.36 115.925 29.517 115.766 29.64C115.609 29.761 115.429 29.8119 115.224 29.7928ZM116.638 36.1803L117.153 30.75L118.376 30.864L118.289 31.7867L118.353 31.7926C118.495 31.492 118.706 31.2667 118.984 31.1167C119.262 30.9643 119.583 30.905 119.946 30.9388C120.314 30.973 120.615 31.0915 120.85 31.2941C121.088 31.4946 121.244 31.7528 121.319 32.0689L121.376 32.0742C121.524 31.7837 121.75 31.5622 122.052 31.4096C122.357 31.2549 122.706 31.1959 123.1 31.2325C123.599 31.2791 123.992 31.475 124.278 31.8202C124.564 32.1655 124.678 32.6409 124.621 33.2467L124.276 36.8916L122.992 36.7721L123.319 33.3251C123.351 32.9881 123.285 32.7334 123.12 32.5612C122.956 32.3866 122.744 32.2872 122.485 32.2631C122.176 32.2343 121.925 32.3084 121.733 32.4855C121.542 32.6603 121.433 32.901 121.404 33.2074L121.083 36.5942L119.828 36.4773L120.159 32.9773C120.186 32.6969 120.122 32.4651 119.968 32.2819C119.817 32.099 119.606 31.9949 119.335 31.9697C119.151 31.9525 118.979 31.9841 118.819 32.0643C118.659 32.1422 118.527 32.2618 118.421 32.4231C118.316 32.5821 118.252 32.7736 118.231 32.9975L117.918 36.2995L116.638 36.1803ZM128.018 37.3472C127.474 37.2964 127.014 37.1395 126.64 36.8764C126.268 36.6111 125.995 36.26 125.823 35.8231C125.65 35.3838 125.591 34.8801 125.645 34.3121C125.698 33.7535 125.85 33.2732 126.102 32.871C126.357 32.4668 126.688 32.1647 127.094 31.9648C127.501 31.7625 127.964 31.6856 128.482 31.7339C128.817 31.765 129.128 31.8487 129.415 31.9847C129.704 32.1187 129.952 32.3082 130.16 32.5534C130.37 32.7989 130.524 33.101 130.623 33.4597C130.723 33.8161 130.75 34.2324 130.705 34.7084L130.667 35.1009L126.216 34.6863L126.298 33.8237L129.522 34.124C129.543 33.8786 129.511 33.6557 129.425 33.4551C129.34 33.2522 129.209 33.0867 129.033 32.9586C128.86 32.8307 128.651 32.7553 128.406 32.7325C128.144 32.7081 127.908 32.7503 127.698 32.8592C127.488 32.9656 127.318 33.1162 127.188 33.311C127.06 33.5036 126.984 33.7211 126.958 33.9637L126.887 34.7167C126.857 35.0325 126.889 35.3089 126.983 35.546C127.078 35.7806 127.223 35.9677 127.419 36.1072C127.615 36.2444 127.852 36.3259 128.13 36.3518C128.317 36.3692 128.488 36.359 128.643 36.3212C128.799 36.281 128.938 36.2142 129.058 36.1208C129.179 36.0275 129.275 35.9068 129.346 35.7589L130.528 36.0045C130.423 36.3133 130.253 36.5757 130.019 36.7916C129.787 37.0054 129.501 37.1619 129.161 37.261C128.821 37.3577 128.44 37.3865 128.018 37.3472ZM140.418 38.502C139.873 38.4513 139.414 38.2944 139.039 38.0312C138.667 37.7659 138.395 37.4148 138.222 36.9779C138.05 36.5386 137.991 36.035 138.045 35.467C138.098 34.9084 138.25 34.428 138.502 34.0259C138.757 33.6216 139.088 33.3195 139.494 33.1196C139.901 32.9174 140.364 32.8404 140.882 32.8887C141.217 32.9199 141.528 33.0035 141.814 33.1396C142.104 33.2735 142.352 33.4631 142.559 33.7083C142.769 33.9537 142.924 34.2558 143.023 34.6146C143.122 34.971 143.149 35.3872 143.104 35.8633L143.067 36.2557L138.616 35.8411L138.697 34.9785L141.922 35.2788C141.943 35.0335 141.91 34.8105 141.825 34.61C141.739 34.407 141.609 34.2415 141.433 34.1134C141.26 33.9855 141.05 33.9101 140.805 33.8873C140.544 33.8629 140.308 33.9052 140.098 34.014C139.888 34.1205 139.718 34.2711 139.588 34.4658C139.46 34.6584 139.384 34.876 139.358 35.1185L139.287 35.8715C139.257 36.1874 139.289 36.4638 139.383 36.7008C139.477 36.9355 139.622 37.1226 139.819 37.2621C140.015 37.3992 140.252 37.4808 140.53 37.5067C140.716 37.524 140.887 37.5138 141.043 37.476C141.199 37.4358 141.337 37.3691 141.458 37.2757C141.579 37.1823 141.675 37.0616 141.746 36.9137L142.928 37.1594C142.823 37.4682 142.653 37.7305 142.418 37.9464C142.186 38.1602 141.9 38.3167 141.56 38.4158C141.221 38.5126 140.84 38.5413 140.418 38.502ZM148.647 35.1312L147.468 35.1498C147.446 35.0289 147.399 34.9127 147.326 34.8013C147.256 34.6902 147.155 34.5964 147.024 34.52C146.894 34.4437 146.729 34.3962 146.531 34.3778C146.265 34.353 146.036 34.3899 145.843 34.4885C145.653 34.5873 145.551 34.7287 145.535 34.9128C145.518 35.0705 145.564 35.2043 145.672 35.3142C145.783 35.4244 145.973 35.5242 146.243 35.6135L147.151 35.8978C147.654 36.0564 148.019 36.2676 148.246 36.5312C148.476 36.7951 148.573 37.1216 148.539 37.5107C148.504 37.8523 148.375 38.1446 148.153 38.3878C147.932 38.6288 147.641 38.8062 147.278 38.9198C146.915 39.0334 146.508 39.0692 146.055 39.027C145.39 38.9651 144.869 38.7762 144.49 38.4603C144.111 38.1421 143.906 37.7295 143.876 37.2226L145.135 37.2187C145.168 37.4691 145.271 37.6653 145.443 37.8073C145.615 37.9494 145.848 38.0341 146.143 38.0615C146.447 38.0899 146.697 38.0501 146.893 37.9423C147.091 37.8348 147.199 37.6891 147.216 37.5052C147.231 37.3497 147.183 37.2156 147.072 37.1031C146.964 36.9908 146.787 36.8959 146.543 36.8184L145.635 36.5376C145.124 36.3807 144.756 36.1622 144.531 35.882C144.305 35.5995 144.212 35.2603 144.252 34.8646C144.282 34.5297 144.4 34.2482 144.607 34.0203C144.817 33.7901 145.093 33.6233 145.436 33.5196C145.781 33.4139 146.17 33.3812 146.604 33.4216C147.241 33.4809 147.729 33.6631 148.068 33.9681C148.41 34.2734 148.603 34.6611 148.647 35.1312ZM151.884 39.5699C151.34 39.5192 150.88 39.3623 150.506 39.0991C150.134 38.8338 149.861 38.4827 149.689 38.0458C149.516 37.6065 149.457 37.1029 149.511 36.5349C149.564 35.9763 149.716 35.4959 149.968 35.0938C150.223 34.6895 150.554 34.3875 150.96 34.1875C151.367 33.9853 151.83 33.9083 152.348 33.9566C152.683 33.9878 152.994 34.0714 153.281 34.2075C153.57 34.3414 153.818 34.531 154.026 34.7762C154.235 35.0216 154.39 35.3237 154.489 35.6825C154.589 36.0389 154.616 36.4551 154.571 36.9312L154.533 37.3236L150.082 36.909L150.164 36.0464L153.388 36.3467C153.409 36.1014 153.377 35.8784 153.291 35.6779C153.206 35.4749 153.075 35.3094 152.899 35.1813C152.726 35.0534 152.517 34.978 152.272 34.9552C152.01 34.9308 151.774 34.9731 151.564 35.0819C151.354 35.1884 151.184 35.339 151.054 35.5337C150.926 35.7263 150.85 35.9439 150.824 36.1864L150.753 36.9394C150.723 37.2553 150.755 37.5317 150.849 37.7687C150.944 38.0034 151.089 38.1905 151.285 38.33C151.481 38.4671 151.718 38.5487 151.996 38.5746C152.183 38.5919 152.354 38.5817 152.509 38.5439C152.665 38.5037 152.804 38.437 152.924 38.3436C153.045 38.2502 153.141 38.1295 153.212 37.9816L154.394 38.2273C154.289 38.5361 154.119 38.7984 153.884 39.0144C153.653 39.2281 153.367 39.3846 153.027 39.4837C152.687 39.5805 152.306 39.6092 151.884 39.5699ZM155.442 39.7942L155.956 34.364L157.198 34.4796L157.112 35.3846L157.168 35.3899C157.297 35.0856 157.49 34.8598 157.746 34.7125C158.005 34.5631 158.29 34.5029 158.602 34.5318C158.672 34.5384 158.751 34.5493 158.837 34.5645C158.927 34.5776 159 34.5927 159.058 34.61L158.946 35.7873C158.894 35.7634 158.809 35.7389 158.693 35.7137C158.579 35.6865 158.468 35.6678 158.359 35.6577C158.126 35.636 157.911 35.6671 157.716 35.7511C157.522 35.833 157.364 35.9574 157.241 36.1242C157.119 36.2911 157.046 36.4901 157.024 36.721L156.722 39.9135L155.442 39.7942ZM164.97 35.2035L162.522 40.4536L161.107 40.3219L159.688 34.7115L161.053 34.8386L161.919 38.9887L161.975 38.9939L163.609 35.0767L164.97 35.2035ZM167.601 41.0337C167.056 40.9829 166.597 40.826 166.222 40.5629C165.85 40.2976 165.578 39.9465 165.405 39.5096C165.233 39.0703 165.174 38.5666 165.227 37.9986C165.28 37.44 165.433 36.9597 165.685 36.5576C165.94 36.1533 166.27 35.8512 166.677 35.6513C167.084 35.449 167.546 35.3721 168.065 35.4204C168.4 35.4515 168.71 35.5352 168.997 35.6712C169.286 35.8052 169.535 35.9947 169.742 36.2399C169.952 36.4854 170.107 36.7875 170.206 37.1462C170.305 37.5026 170.332 37.9189 170.287 38.395L170.25 38.7874L165.798 38.3728L165.88 37.5102L169.105 37.8105C169.126 37.5651 169.093 37.3422 169.008 37.1416C168.922 36.9387 168.792 36.7732 168.616 36.6451C168.443 36.5172 168.233 36.4418 167.988 36.419C167.727 36.3946 167.491 36.4368 167.281 36.5457C167.071 36.6521 166.901 36.8027 166.771 36.9975C166.643 37.1901 166.566 37.4076 166.541 37.6502L166.47 38.4032C166.44 38.719 166.472 38.9954 166.566 39.2325C166.66 39.4671 166.805 39.6542 167.001 39.7937C167.198 39.9309 167.435 40.0124 167.713 40.0383C167.899 40.0557 168.07 40.0455 168.226 40.0077C168.382 39.9675 168.52 39.9007 168.641 39.8073C168.762 39.714 168.857 39.5933 168.928 39.4454L170.111 39.691C170.005 39.9998 169.836 40.2622 169.601 40.4781C169.369 40.6919 169.083 40.8484 168.743 40.9475C168.404 41.0442 168.023 41.073 167.601 41.0337ZM173.165 41.5412C172.738 41.5014 172.367 41.3563 172.05 41.1057C171.734 40.8551 171.498 40.5121 171.342 40.0767C171.186 39.6413 171.136 39.1255 171.192 38.5292C171.249 37.9258 171.397 37.426 171.634 37.0296C171.874 36.6311 172.174 36.3416 172.533 36.1611C172.893 35.9782 173.281 35.9062 173.699 35.945C174.017 35.9747 174.273 36.0533 174.468 36.1808C174.663 36.3059 174.814 36.4495 174.92 36.6116C175.026 36.7713 175.106 36.9202 175.159 37.0583L175.212 37.0632L175.469 34.3552L176.752 34.4747L176.066 41.7151L174.807 41.5978L174.888 40.7423L174.811 40.735C174.732 40.8609 174.623 40.9922 174.484 41.1291C174.346 41.2636 174.169 41.3731 173.954 41.4577C173.739 41.5423 173.476 41.5701 173.165 41.5412ZM173.621 40.5244C173.893 40.5497 174.13 40.4981 174.335 40.3698C174.54 40.2391 174.705 40.0463 174.829 39.7916C174.953 39.5368 175.031 39.2339 175.065 38.8827C175.098 38.5315 175.077 38.2217 175.003 37.9532C174.931 37.685 174.806 37.4701 174.629 37.3085C174.454 37.1472 174.229 37.0537 173.953 37.028C173.668 37.0014 173.422 37.0535 173.217 37.1842C173.012 37.3149 172.849 37.5065 172.728 37.7592C172.606 38.0118 172.53 38.3066 172.498 38.6436C172.466 38.983 172.485 39.2904 172.557 39.5657C172.631 39.8389 172.756 40.061 172.932 40.232C173.111 40.4008 173.341 40.4983 173.621 40.5244Z" fill="white"/>
<path d="M210.132 44.8883L210.818 37.6479L213.533 37.9008C214.089 37.9526 214.546 38.0998 214.904 38.3423C215.264 38.5851 215.523 38.8969 215.682 39.2779C215.843 39.6567 215.902 40.0759 215.859 40.5355C215.815 40.9998 215.678 41.4032 215.448 41.7455C215.218 42.0879 214.903 42.345 214.501 42.5169C214.1 42.6864 213.62 42.7451 213.061 42.6931L211.261 42.5255L211.364 41.4472L212.987 41.5983C213.312 41.6286 213.584 41.5969 213.802 41.5031C214.02 41.4092 214.188 41.268 214.306 41.0792C214.426 40.8907 214.498 40.6679 214.522 40.411C214.547 40.1541 214.517 39.9232 214.435 39.7181C214.354 39.5132 214.214 39.3468 214.015 39.2189C213.818 39.0888 213.555 39.0085 213.228 38.978L212.026 38.866L211.443 45.0104L210.132 44.8883ZM238.17 47.4996L238.856 40.2592L241.572 40.5121C242.128 40.564 242.586 40.7041 242.944 40.9325C243.306 41.1611 243.566 41.4588 243.727 41.8256C243.889 42.1903 243.949 42.6036 243.905 43.0656C243.861 43.5299 243.724 43.9237 243.493 44.247C243.266 44.5682 242.952 44.8041 242.553 44.9547C242.153 45.103 241.675 45.1512 241.119 45.0994L239.185 44.9192L239.288 43.8304L241.046 43.994C241.371 44.0243 241.641 44.0043 241.857 43.9341C242.073 43.8615 242.239 43.7426 242.355 43.5774C242.473 43.4101 242.544 43.198 242.569 42.9411C242.593 42.6842 242.563 42.4603 242.479 42.2693C242.395 42.0761 242.254 41.9226 242.055 41.809C241.857 41.6931 241.594 41.6199 241.266 41.5893L240.064 41.4774L239.482 47.6218L238.17 47.4996ZM242.222 44.5672L243.704 48.015L242.24 47.8786L240.79 44.4339L242.222 44.5672Z" fill="#AC04FF"/>
<path d="M216.533 45.4844L217.047 40.0541L218.288 40.1697L218.202 41.0748L218.259 41.08C218.388 40.7758 218.58 40.55 218.837 40.4027C219.096 40.2533 219.381 40.193 219.692 40.222C219.763 40.2286 219.842 40.2395 219.928 40.2547C220.017 40.2677 220.091 40.2829 220.148 40.3002L220.037 41.4774C219.984 41.4535 219.9 41.429 219.783 41.4039C219.67 41.3767 219.558 41.358 219.45 41.3479C219.217 41.3261 219.002 41.3573 218.806 41.4413C218.613 41.5232 218.455 41.6475 218.332 41.8144C218.209 41.9813 218.137 42.1802 218.115 42.4112L217.812 45.6036L216.533 45.4844ZM220.53 45.8567L221.045 40.4264L222.325 40.5456L221.81 45.9759L220.53 45.8567ZM221.761 39.7157C221.558 39.6968 221.39 39.6134 221.257 39.4654C221.124 39.3151 221.066 39.1445 221.084 38.9536C221.103 38.7603 221.191 38.6033 221.35 38.4826C221.509 38.3595 221.69 38.3074 221.893 38.3263C222.098 38.3454 222.266 38.43 222.397 38.5801C222.53 38.728 222.588 38.8986 222.569 39.0919C222.551 39.2828 222.463 39.4398 222.304 39.5629C222.147 39.6838 221.966 39.7348 221.761 39.7157ZM223.176 46.1031L223.691 40.6729L224.914 40.7868L224.826 41.7095L224.89 41.7155C225.033 41.4149 225.243 41.1896 225.521 41.0395C225.8 40.8871 226.12 40.8278 226.483 40.8617C226.851 40.8959 227.153 41.0143 227.388 41.2169C227.626 41.4174 227.782 41.6757 227.857 41.9917L227.913 41.997C228.062 41.7065 228.288 41.485 228.59 41.3324C228.895 41.1777 229.244 41.1187 229.637 41.1554C230.137 41.2019 230.53 41.3978 230.816 41.7431C231.102 42.0883 231.216 42.5638 231.159 43.1695L230.813 46.8144L229.53 46.6949L229.856 43.248C229.888 42.9109 229.822 42.6563 229.658 42.484C229.494 42.3094 229.282 42.2101 229.023 42.1859C228.714 42.1572 228.463 42.2313 228.27 42.4083C228.08 42.5832 227.97 42.8238 227.941 43.1302L227.62 46.5171L226.365 46.4002L226.697 42.9002C226.723 42.6197 226.66 42.3879 226.506 42.2048C226.354 42.0218 226.143 41.9178 225.872 41.8925C225.688 41.8754 225.516 41.9069 225.357 41.9872C225.197 42.065 225.064 42.1846 224.959 42.346C224.853 42.505 224.79 42.6964 224.769 42.9203L224.456 46.2224L223.176 46.1031ZM234.556 47.27C234.011 47.2193 233.552 47.0624 233.177 46.7992C232.805 46.5339 232.533 46.1828 232.36 45.7459C232.188 45.3066 232.129 44.803 232.182 44.235C232.235 43.6764 232.388 43.196 232.64 42.7939C232.895 42.3896 233.225 42.0876 233.632 41.8876C234.039 41.6854 234.501 41.6084 235.02 41.6567C235.355 41.6879 235.665 41.7715 235.952 41.9076C236.242 42.0415 236.49 42.2311 236.697 42.4763C236.907 42.7217 237.062 43.0238 237.161 43.3826C237.26 43.739 237.287 44.1552 237.242 44.6313L237.205 45.0237L232.753 44.6091L232.835 43.7465L236.06 44.0468C236.081 43.8015 236.048 43.5785 235.963 43.378C235.877 43.175 235.747 43.0095 235.571 42.8814C235.398 42.7535 235.188 42.6781 234.943 42.6553C234.682 42.6309 234.446 42.6732 234.236 42.782C234.026 42.8885 233.856 43.0391 233.726 43.2338C233.598 43.4264 233.521 43.644 233.496 43.8865L233.425 44.6395C233.395 44.9554 233.427 45.2318 233.521 45.4688C233.615 45.7035 233.76 45.8906 233.956 46.0301C234.153 46.1672 234.39 46.2488 234.668 46.2747C234.854 46.292 235.025 46.2818 235.181 46.244C235.337 46.2038 235.475 46.1371 235.596 46.0437C235.717 45.9503 235.812 45.8296 235.883 45.6817L237.066 45.9274C236.961 46.2362 236.791 46.4985 236.556 46.7145C236.324 46.9283 236.038 47.0847 235.698 47.1838C235.359 47.2806 234.978 47.3093 234.556 47.27ZM246.956 48.4249C246.411 48.3741 245.952 48.2172 245.577 47.9541C245.205 47.6888 244.933 47.3377 244.76 46.9008C244.588 46.4615 244.528 45.9578 244.582 45.3898C244.635 44.8312 244.788 44.3509 245.04 43.9487C245.294 43.5445 245.625 43.2424 246.032 43.0425C246.438 42.8402 246.901 42.7632 247.42 42.8115C247.754 42.8427 248.065 42.9263 248.352 43.0624C248.641 43.1964 248.89 43.3859 249.097 43.6311C249.307 43.8766 249.461 44.1786 249.56 44.5374C249.66 44.8938 249.687 45.31 249.642 45.7861L249.605 46.1786L245.153 45.764L245.235 44.9013L248.46 45.2017C248.48 44.9563 248.448 44.7334 248.362 44.5328C248.277 44.3299 248.146 44.1644 247.971 44.0363C247.797 43.9084 247.588 43.833 247.343 43.8102C247.081 43.7858 246.845 43.828 246.635 43.9369C246.426 44.0433 246.255 44.1939 246.125 44.3887C245.998 44.5813 245.921 44.7988 245.896 45.0414L245.824 45.7944C245.795 46.1102 245.827 46.3866 245.921 46.6237C246.015 46.8583 246.16 47.0454 246.356 47.1849C246.552 47.3221 246.79 47.4036 247.068 47.4295C247.254 47.4469 247.425 47.4366 247.581 47.3988C247.737 47.3587 247.875 47.2919 247.996 47.1985C248.116 47.1051 248.212 46.9845 248.283 46.8366L249.466 47.0822C249.36 47.391 249.19 47.6534 248.956 47.8693C248.724 48.0831 248.438 48.2395 248.098 48.3387C247.758 48.4354 247.378 48.4641 246.956 48.4249ZM255.184 45.054L254.005 45.0726C253.984 44.9517 253.936 44.8356 253.864 44.7242C253.793 44.613 253.693 44.5192 253.562 44.4429C253.431 44.3665 253.267 44.3191 253.069 44.3007C252.803 44.2759 252.573 44.3127 252.381 44.4113C252.191 44.5101 252.088 44.6516 252.073 44.8356C252.056 44.9933 252.101 45.1271 252.21 45.2371C252.321 45.3473 252.511 45.447 252.781 45.5364L253.688 45.8206C254.192 45.9793 254.557 46.1904 254.784 46.4541C255.013 46.718 255.111 47.0445 255.076 47.4336C255.042 47.7751 254.913 48.0675 254.69 48.3106C254.47 48.5517 254.178 48.729 253.816 48.8426C253.453 48.9563 253.045 48.992 252.593 48.9499C251.928 48.888 251.406 48.6991 251.027 48.3832C250.648 48.065 250.444 47.6524 250.413 47.1455L251.673 47.1415C251.706 47.3919 251.809 47.5881 251.981 47.7302C252.153 47.8722 252.386 47.957 252.681 47.9844C252.985 48.0127 253.235 47.973 253.43 47.8652C253.628 47.7576 253.736 47.6119 253.754 47.4281C253.768 47.2725 253.72 47.1385 253.61 47.0259C253.502 46.9136 253.325 46.8187 253.08 46.7412L252.172 46.4605C251.662 46.3036 251.294 46.085 251.068 45.8048C250.843 45.5223 250.75 45.1832 250.79 44.7874C250.819 44.4525 250.938 44.1711 251.145 43.9431C251.354 43.713 251.631 43.5461 251.973 43.4425C252.319 43.3368 252.708 43.3041 253.142 43.3445C253.778 43.4037 254.266 43.5859 254.606 43.891C254.948 44.1963 255.141 44.584 255.184 45.054ZM258.422 49.4928C257.877 49.442 257.418 49.2851 257.043 49.022C256.671 48.7567 256.399 48.4056 256.226 47.9687C256.054 47.5294 255.995 47.0257 256.048 46.4577C256.101 45.8991 256.254 45.4188 256.506 45.0166C256.761 44.6124 257.091 44.3103 257.498 44.1104C257.905 43.9081 258.367 43.8312 258.886 43.8795C259.221 43.9106 259.531 43.9943 259.818 44.1303C260.107 44.2643 260.356 44.4538 260.563 44.699C260.773 44.9445 260.928 45.2466 261.027 45.6053C261.126 45.9617 261.153 46.378 261.108 46.854L261.071 47.2465L256.619 46.8319L256.701 45.9693L259.926 46.2696C259.947 46.0242 259.914 45.8013 259.829 45.6007C259.743 45.3978 259.613 45.2323 259.437 45.1042C259.264 44.9763 259.054 44.9009 258.809 44.8781C258.548 44.8537 258.312 44.8959 258.102 45.0048C257.892 45.1112 257.722 45.2618 257.592 45.4566C257.464 45.6492 257.387 45.8667 257.362 46.1093L257.291 46.8623C257.261 47.1781 257.293 47.4545 257.387 47.6916C257.481 47.9262 257.626 48.1133 257.822 48.2528C258.019 48.39 258.256 48.4715 258.534 48.4974C258.72 48.5148 258.891 48.5046 259.047 48.4668C259.203 48.4266 259.341 48.3598 259.462 48.2664C259.583 48.1731 259.678 48.0524 259.749 47.9045L260.932 48.1501C260.826 48.4589 260.657 48.7213 260.422 48.9372C260.19 49.151 259.904 49.3075 259.564 49.4066C259.225 49.5033 258.844 49.5321 258.422 49.4928ZM261.979 49.7171L262.494 44.2868L263.735 44.4024L263.649 45.3074L263.706 45.3127C263.835 45.0085 264.027 44.7827 264.284 44.6354C264.543 44.486 264.828 44.4257 265.139 44.4547C265.21 44.4613 265.288 44.4722 265.375 44.4874C265.464 44.5004 265.538 44.5156 265.595 44.5329L265.484 45.7101C265.431 45.6862 265.347 45.6617 265.23 45.6366C265.117 45.6093 265.005 45.5907 264.897 45.5806C264.664 45.5588 264.449 45.59 264.253 45.674C264.06 45.7558 263.902 45.8802 263.779 46.0471C263.656 46.214 263.584 46.4129 263.562 46.6439L263.259 49.8363L261.979 49.7171ZM271.508 45.1263L269.059 50.3765L267.645 50.2448L266.225 44.6343L267.59 44.7615L268.456 48.9115L268.513 48.9168L270.147 44.9995L271.508 45.1263ZM274.138 50.9565C273.594 50.9058 273.134 50.7489 272.76 50.4857C272.388 50.2204 272.116 49.8693 271.943 49.4324C271.771 48.9931 271.711 48.4895 271.765 47.9215C271.818 47.3629 271.971 46.8825 272.223 46.4804C272.477 46.0761 272.808 45.7741 273.215 45.5742C273.621 45.3719 274.084 45.2949 274.603 45.3432C274.937 45.3744 275.248 45.458 275.535 45.5941C275.824 45.728 276.072 45.9176 276.28 46.1628C276.49 46.4082 276.644 46.7103 276.743 47.0691C276.843 47.4255 276.87 47.8417 276.825 48.3178L276.788 48.7102L272.336 48.2956L272.418 47.433L275.642 47.7333C275.663 47.488 275.631 47.265 275.545 47.0645C275.46 46.8616 275.329 46.696 275.154 46.5679C274.98 46.44 274.771 46.3647 274.526 46.3418C274.264 46.3175 274.028 46.3597 273.818 46.4685C273.608 46.575 273.438 46.7256 273.308 46.9203C273.18 47.1129 273.104 47.3305 273.079 47.573L273.007 48.3261C272.977 48.6419 273.009 48.9183 273.103 49.1553C273.198 49.39 273.343 49.5771 273.539 49.7166C273.735 49.8538 273.972 49.9353 274.251 49.9612C274.437 49.9785 274.608 49.9683 274.764 49.9305C274.92 49.8903 275.058 49.8236 275.178 49.7302C275.299 49.6368 275.395 49.5162 275.466 49.3682L276.648 49.6139C276.543 49.9227 276.373 50.185 276.139 50.401C275.907 50.6148 275.621 50.7712 275.281 50.8703C274.941 50.9671 274.56 50.9958 274.138 50.9565ZM279.702 51.464C279.276 51.4243 278.904 51.2791 278.588 51.0285C278.272 50.7779 278.035 50.435 277.879 49.9996C277.723 49.5642 277.673 49.0483 277.73 48.452C277.787 47.8487 277.934 47.3488 278.172 46.9524C278.412 46.5539 278.711 46.2644 279.071 46.0839C279.431 45.901 279.819 45.829 280.236 45.8679C280.554 45.8975 280.811 45.9761 281.006 46.1036C281.201 46.2288 281.351 46.3724 281.457 46.5344C281.563 46.6941 281.643 46.843 281.697 46.9811L281.75 46.9861L282.006 44.278L283.29 44.3976L282.604 51.6379L281.345 51.5207L281.426 50.6651L281.348 50.6579C281.27 50.7837 281.161 50.9151 281.022 51.0519C280.883 51.1864 280.706 51.296 280.492 51.3806C280.277 51.4652 280.014 51.493 279.702 51.464ZM280.159 50.4473C280.43 50.4725 280.668 50.421 280.873 50.2926C281.078 50.1619 281.242 49.9692 281.366 49.7144C281.49 49.4597 281.569 49.1567 281.602 48.8056C281.636 48.4544 281.615 48.1446 281.541 47.8761C281.468 47.6078 281.344 47.3929 281.166 47.2314C280.992 47.07 280.766 46.9765 280.49 46.9508C280.205 46.9243 279.96 46.9763 279.755 47.107C279.55 47.2377 279.387 47.4294 279.265 47.682C279.144 47.9346 279.067 48.2294 279.035 48.5665C279.003 48.9059 279.023 49.2132 279.094 49.4886C279.168 49.7618 279.293 49.9838 279.47 50.1548C279.649 50.3237 279.879 50.4212 280.159 50.4473Z" fill="white"/>
<path d="M316.669 54.8101L317.355 47.5698L320.071 47.8227C320.627 47.8745 321.084 48.0217 321.441 48.2642C321.801 48.5069 322.061 48.8188 322.22 49.1998C322.381 49.5786 322.44 49.9978 322.396 50.4574C322.352 50.9217 322.216 51.325 321.986 51.6674C321.756 52.0098 321.44 52.2669 321.039 52.4388C320.637 52.6082 320.157 52.667 319.599 52.6149L317.799 52.4473L317.901 51.369L319.524 51.5202C319.849 51.5505 320.121 51.5187 320.339 51.4249C320.558 51.3311 320.725 51.1898 320.843 51.0011C320.963 50.8125 321.036 50.5898 321.06 50.3329C321.084 50.076 321.055 49.845 320.972 49.64C320.892 49.4351 320.752 49.2687 320.552 49.1408C320.355 49.0107 320.093 48.9304 319.765 48.8999L318.563 48.7879L317.981 54.9323L316.669 54.8101ZM344.708 57.4215L345.394 50.1811L348.109 50.434C348.666 50.4858 349.123 50.6259 349.482 50.8543C349.843 51.0829 350.104 51.3807 350.264 51.7475C350.427 52.1122 350.486 52.5255 350.443 52.9874C350.399 53.4517 350.261 53.8455 350.031 54.1689C349.803 54.49 349.49 54.7259 349.09 54.8766C348.691 55.0248 348.213 55.0731 347.657 55.0212L345.723 54.8411L345.826 53.7522L347.583 53.9159C347.908 53.9462 348.179 53.9262 348.395 53.856C348.611 53.7834 348.777 53.6645 348.892 53.4993C349.011 53.332 349.082 53.1199 349.106 52.863C349.13 52.6061 349.101 52.3821 349.016 52.1912C348.932 51.9979 348.791 51.8445 348.593 51.7309C348.394 51.615 348.132 51.5417 347.804 51.5112L346.602 51.3992L346.019 57.5437L344.708 57.4215ZM348.759 54.4891L350.241 57.9369L348.777 57.8005L347.327 54.3557L348.759 54.4891Z" fill="#AC04FF"/>
<path d="M323.07 55.4063L323.585 49.976L324.826 50.0916L324.74 50.9966L324.797 51.0019C324.925 50.6977 325.118 50.4719 325.374 50.3246C325.633 50.1751 325.919 50.1149 326.23 50.1439C326.3 50.1505 326.379 50.1614 326.466 50.1766C326.555 50.1896 326.628 50.2048 326.686 50.2221L326.575 51.3993C326.522 51.3754 326.438 51.3509 326.321 51.3258C326.207 51.2985 326.096 51.2799 325.988 51.2698C325.754 51.248 325.54 51.2792 325.344 51.3632C325.151 51.445 324.992 51.5694 324.87 51.7363C324.747 51.9032 324.674 52.1021 324.653 52.3331L324.35 55.5255L323.07 55.4063ZM327.068 55.7786L327.582 50.3483L328.862 50.4675L328.348 55.8978L327.068 55.7786ZM328.299 49.6375C328.096 49.6187 327.928 49.5352 327.795 49.3873C327.661 49.237 327.604 49.0664 327.622 48.8755C327.64 48.6822 327.729 48.5252 327.888 48.4045C328.047 48.2814 328.228 48.2293 328.43 48.2482C328.635 48.2673 328.803 48.3519 328.934 48.5019C329.068 48.6499 329.125 48.8205 329.107 49.0138C329.089 49.2047 329 49.3617 328.841 49.4848C328.685 49.6057 328.504 49.6566 328.299 49.6375ZM329.714 56.025L330.228 50.5947L331.452 50.7087L331.364 51.6314L331.428 51.6373C331.57 51.3368 331.781 51.1115 332.059 50.9614C332.337 50.809 332.658 50.7497 333.021 50.7835C333.389 50.8178 333.69 50.9362 333.925 51.1388C334.163 51.3393 334.32 51.5976 334.394 51.9136L334.451 51.9189C334.6 51.6284 334.825 51.4069 335.127 51.2543C335.432 51.0996 335.781 51.0406 336.175 51.0773C336.675 51.1238 337.068 51.3197 337.353 51.6649C337.639 52.0102 337.754 52.4857 337.696 53.0914L337.351 56.7363L336.067 56.6168L336.394 53.1698C336.426 52.8328 336.36 52.5782 336.195 52.4059C336.031 52.2313 335.819 52.1319 335.56 52.1078C335.251 52.079 335.001 52.1532 334.808 52.3302C334.618 52.5051 334.508 52.7457 334.479 53.0521L334.158 56.439L332.903 56.3221L333.235 52.8221C333.261 52.5416 333.197 52.3098 333.044 52.1266C332.892 51.9437 332.681 51.8396 332.41 51.8144C332.226 51.7973 332.054 51.8288 331.894 51.909C331.735 51.9869 331.602 52.1065 331.496 52.2679C331.391 52.4269 331.328 52.6183 331.306 52.8422L330.994 56.1442L329.714 56.025ZM341.093 57.1919C340.549 57.1412 340.089 56.9842 339.715 56.7211C339.343 56.4558 339.071 56.1047 338.898 55.6678C338.726 55.2285 338.666 54.7248 338.72 54.1568C338.773 53.5983 338.926 53.1179 339.178 52.7158C339.432 52.3115 339.763 52.0094 340.17 51.8095C340.576 51.6073 341.039 51.5303 341.558 51.5786C341.892 51.6098 342.203 51.6934 342.49 51.8295C342.779 51.9634 343.027 52.153 343.235 52.3982C343.445 52.6436 343.599 52.9457 343.698 53.3044C343.798 53.6608 343.825 54.0771 343.78 54.5532L343.743 54.9456L339.291 54.531L339.373 53.6684L342.597 53.9687C342.618 53.7234 342.586 53.5004 342.5 53.2998C342.415 53.0969 342.284 52.9314 342.109 52.8033C341.935 52.6754 341.726 52.6 341.481 52.5772C341.219 52.5528 340.983 52.5951 340.773 52.7039C340.563 52.8104 340.393 52.961 340.263 53.1557C340.136 53.3483 340.059 53.5659 340.034 53.8084L339.962 54.5614C339.932 54.8772 339.964 55.1537 340.059 55.3907C340.153 55.6253 340.298 55.8124 340.494 55.952C340.69 56.0891 340.927 56.1707 341.206 56.1966C341.392 56.2139 341.563 56.2037 341.719 56.1659C341.875 56.1257 342.013 56.0589 342.134 55.9656C342.254 55.8722 342.35 55.7515 342.421 55.6036L343.603 55.8492C343.498 56.158 343.328 56.4204 343.094 56.6363C342.862 56.8501 342.576 57.0066 342.236 57.1057C341.896 57.2024 341.515 57.2312 341.093 57.1919ZM353.493 58.3467C352.949 58.296 352.489 58.1391 352.115 57.8759C351.743 57.6107 351.47 57.2596 351.298 56.8226C351.125 56.3833 351.066 55.8797 351.12 55.3117C351.173 54.7531 351.325 54.2727 351.577 53.8706C351.832 53.4664 352.163 53.1643 352.569 52.9644C352.976 52.7621 353.439 52.6851 353.957 52.7334C354.292 52.7646 354.603 52.8482 354.89 52.9843C355.179 53.1182 355.427 53.3078 355.635 53.553C355.844 53.7984 355.999 54.1005 356.098 54.4593C356.197 54.8157 356.225 55.2319 356.179 55.708L356.142 56.1004L351.691 55.6858L351.772 54.8232L354.997 55.1235C355.018 54.8782 354.986 54.6553 354.9 54.4547C354.815 54.2518 354.684 54.0862 354.508 53.9581C354.335 53.8302 354.126 53.7549 353.881 53.732C353.619 53.7077 353.383 53.7499 353.173 53.8587C352.963 53.9652 352.793 54.1158 352.663 54.3105C352.535 54.5031 352.459 54.7207 352.433 54.9632L352.362 55.7163C352.332 56.0321 352.364 56.3085 352.458 56.5455C352.553 56.7802 352.698 56.9673 352.894 57.1068C353.09 57.244 353.327 57.3255 353.605 57.3514C353.792 57.3687 353.963 57.3585 354.118 57.3207C354.274 57.2806 354.413 57.2138 354.533 57.1204C354.654 57.027 354.75 56.9064 354.821 56.7584L356.003 57.0041C355.898 57.3129 355.728 57.5752 355.493 57.7912C355.262 58.005 354.976 58.1614 354.636 58.2605C354.296 58.3573 353.915 58.386 353.493 58.3467ZM361.722 54.9759L360.543 54.9945C360.521 54.8736 360.474 54.7574 360.401 54.6461C360.331 54.5349 360.23 54.4411 360.1 54.3647C359.969 54.2884 359.805 54.241 359.607 54.2225C359.34 54.1977 359.111 54.2346 358.918 54.3332C358.728 54.432 358.626 54.5734 358.611 54.7575C358.593 54.9152 358.639 55.049 358.747 55.159C358.858 55.2692 359.049 55.3689 359.318 55.4582L360.226 55.7425C360.729 55.9011 361.095 56.1123 361.322 56.376C361.551 56.6398 361.649 56.9663 361.614 57.3555C361.579 57.697 361.451 57.9893 361.228 58.2325C361.008 58.4735 360.716 58.6509 360.353 58.7645C359.991 58.8782 359.583 58.9139 359.13 58.8717C358.466 58.8098 357.944 58.6209 357.565 58.3051C357.186 57.9868 356.981 57.5743 356.951 57.0674L358.21 57.0634C358.244 57.3138 358.346 57.51 358.518 57.652C358.69 57.7941 358.924 57.8788 359.218 57.9063C359.522 57.9346 359.772 57.8949 359.968 57.7871C360.166 57.6795 360.274 57.5338 360.291 57.3499C360.306 57.1944 360.258 57.0603 360.147 56.9478C360.039 56.8355 359.863 56.7406 359.618 56.6631L358.71 56.3824C358.199 56.2254 357.831 56.0069 357.606 55.7267C357.38 55.4442 357.288 55.1051 357.328 54.7093C357.357 54.3744 357.475 54.093 357.682 53.865C357.892 53.6348 358.168 53.468 358.511 53.3644C358.856 53.2586 359.246 53.226 359.679 53.2663C360.316 53.3256 360.804 53.5078 361.144 53.8129C361.486 54.1182 361.678 54.5058 361.722 54.9759ZM364.959 59.4146C364.415 59.3639 363.955 59.207 363.581 58.9438C363.209 58.6786 362.937 58.3275 362.764 57.8905C362.592 57.4512 362.532 56.9476 362.586 56.3796C362.639 55.821 362.792 55.3406 363.044 54.9385C363.298 54.5343 363.629 54.2322 364.036 54.0323C364.442 53.83 364.905 53.753 365.424 53.8013C365.758 53.8325 366.069 53.9161 366.356 54.0522C366.645 54.1861 366.893 54.3757 367.101 54.6209C367.311 54.8663 367.465 55.1684 367.564 55.5272C367.664 55.8836 367.691 56.2998 367.646 56.7759L367.609 57.1683L363.157 56.7537L363.239 55.8911L366.463 56.1915C366.484 55.9461 366.452 55.7232 366.366 55.5226C366.281 55.3197 366.15 55.1542 365.975 55.026C365.801 54.8981 365.592 54.8228 365.347 54.7999C365.085 54.7756 364.849 54.8178 364.639 54.9266C364.429 55.0331 364.259 55.1837 364.129 55.3784C364.002 55.571 363.925 55.7886 363.9 56.0311L363.828 56.7842C363.798 57.1 363.83 57.3764 363.924 57.6134C364.019 57.8481 364.164 58.0352 364.36 58.1747C364.556 58.3119 364.793 58.3934 365.072 58.4193C365.258 58.4367 365.429 58.4264 365.585 58.3886C365.741 58.3485 365.879 58.2817 366 58.1883C366.12 58.0949 366.216 57.9743 366.287 57.8263L367.469 58.072C367.364 58.3808 367.194 58.6432 366.96 58.8591C366.728 59.0729 366.442 59.2293 366.102 59.3284C365.762 59.4252 365.381 59.4539 364.959 59.4146ZM368.517 59.639L369.032 54.2087L370.273 54.3243L370.187 55.2293L370.244 55.2346C370.372 54.9303 370.565 54.7046 370.821 54.5573C371.08 54.4078 371.366 54.3476 371.677 54.3766C371.747 54.3832 371.826 54.3941 371.913 54.4092C372.002 54.4223 372.075 54.4375 372.133 54.4547L372.021 55.632C371.969 55.6081 371.885 55.5836 371.768 55.5585C371.654 55.5312 371.543 55.5125 371.434 55.5024C371.201 55.4807 370.987 55.5118 370.791 55.5958C370.597 55.6777 370.439 55.8021 370.317 55.969C370.194 56.1359 370.121 56.3348 370.1 56.5658L369.797 59.7582L368.517 59.639ZM378.046 55.0482L375.597 60.2983L374.183 60.1666L372.763 54.5562L374.128 54.6833L374.994 58.8334L375.05 58.8387L376.684 54.9214L378.046 55.0482ZM380.676 60.8784C380.132 60.8277 379.672 60.6707 379.297 60.4076C378.925 60.1423 378.653 59.7912 378.481 59.3543C378.308 58.915 378.249 58.4114 378.303 57.8433C378.356 57.2848 378.508 56.8044 378.76 56.4023C379.015 55.998 379.346 55.6959 379.752 55.496C380.159 55.2938 380.622 55.2168 381.14 55.2651C381.475 55.2963 381.786 55.3799 382.072 55.516C382.362 55.6499 382.61 55.8395 382.817 56.0847C383.027 56.3301 383.182 56.6322 383.281 56.9909C383.38 57.3473 383.407 57.7636 383.362 58.2397L383.325 58.6321L378.874 58.2175L378.955 57.3549L382.18 57.6552C382.201 57.4099 382.168 57.1869 382.083 56.9864C381.997 56.7834 381.867 56.6179 381.691 56.4898C381.518 56.3619 381.309 56.2865 381.063 56.2637C380.802 56.2393 380.566 56.2816 380.356 56.3904C380.146 56.4969 379.976 56.6475 379.846 56.8422C379.718 57.0348 379.642 57.2524 379.616 57.4949L379.545 58.2479C379.515 58.5638 379.547 58.8402 379.641 59.0772C379.735 59.3119 379.881 59.4989 380.077 59.6385C380.273 59.7756 380.51 59.8572 380.788 59.8831C380.974 59.9004 381.145 59.8902 381.301 59.8524C381.457 59.8122 381.595 59.7455 381.716 59.6521C381.837 59.5587 381.933 59.438 382.004 59.2901L383.186 59.5357C383.081 59.8445 382.911 60.1069 382.676 60.3228C382.444 60.5366 382.158 60.6931 381.819 60.7922C381.479 60.889 381.098 60.9177 380.676 60.8784ZM386.24 61.3859C385.813 61.3462 385.442 61.201 385.126 60.9504C384.809 60.6998 384.573 60.3568 384.417 59.9214C384.261 59.4861 384.211 58.9702 384.268 58.3739C384.325 57.7705 384.472 57.2707 384.709 56.8743C384.949 56.4758 385.249 56.1863 385.608 56.0058C385.968 55.8229 386.357 55.7509 386.774 55.7898C387.092 55.8194 387.349 55.898 387.543 56.0255C387.738 56.1507 387.889 56.2943 387.995 56.4563C388.101 56.616 388.181 56.7649 388.234 56.903L388.287 56.908L388.544 54.1999L389.827 54.3194L389.141 61.5598L387.883 61.4426L387.964 60.587L387.886 60.5798C387.807 60.7056 387.699 60.837 387.56 60.9738C387.421 61.1083 387.244 61.2178 387.029 61.3025C386.814 61.3871 386.551 61.4149 386.24 61.3859ZM386.697 60.3692C386.968 60.3944 387.206 60.3428 387.41 60.2145C387.615 60.0838 387.78 59.8911 387.904 59.6363C388.028 59.3816 388.107 59.0786 388.14 58.7274C388.173 58.3763 388.153 58.0664 388.078 57.7979C388.006 57.5297 387.881 57.3148 387.704 57.1532C387.529 56.9919 387.304 56.8984 387.028 56.8727C386.743 56.8461 386.498 56.8982 386.293 57.0289C386.088 57.1596 385.924 57.3513 385.803 57.6039C385.682 57.8565 385.605 58.1513 385.573 58.4884C385.541 58.8277 385.56 59.1351 385.632 59.4104C385.706 59.6836 385.831 59.9057 386.007 60.0767C386.186 60.2455 386.416 60.343 386.697 60.3692Z" fill="white"/>
</g>
<defs>
<clipPath id="clip0_438_2499">
<rect width="461.828" height="30.8209" fill="white" transform="matrix(-1 0.00023503 0.000239447 1 378.108 1.01855)"/>
</clipPath>
<clipPath id="clip1_438_2499">
<rect width="469.037" height="30.8231" fill="white" transform="matrix(-0.996303 -0.0859105 -0.0875129 0.996163 380 40.6689)"/>
</clipPath>
</defs>
</svg>
