<svg width="365" height="302" viewBox="0 0 365 302" fill="none" xmlns="http://www.w3.org/2000/svg">
<path d="M42.1817 256.659L72.8152 255.166L77.3638 290.326L78.2764 290.183L73.78 255.428L108.465 270.413L96.1701 291.586L96.9476 292.13L109.471 270.565L138.43 255.779L118.741 292.871L119.537 293.38L139.587 255.611L153.159 278.882L153.163 278.879C153.168 278.889 153.17 278.9 153.175 278.91L162.085 292.161L162.827 291.56L154.158 278.668L170.753 261.163L200.848 292.229L201.478 291.491L172.548 261.625L215.312 276.592L226.435 294.425L227.195 293.852L216.343 276.455L248.121 266.467L245.862 301.698L246.781 301.77L249.059 266.244L319.045 258.802L296.337 291.553L297.071 292.166L320.158 258.866L364.498 290.512L365 289.663L320.601 257.974L335.06 210.307L364.53 227.91L364.969 227.021L335.301 209.298L339.114 181.444L364.778 179.696L364.722 178.685L338.953 180.438L324.326 155.957L360.013 115.403L359.35 114.698L324.2 154.645V98.3583L364.61 112.578L364.89 111.613L324.896 97.539L363.13 74.3072L362.684 73.4207L323.788 97.0558L301.353 77.0578L363.25 1.28421L362.564 0.607788L300.427 76.6755L261.405 91.0994L261.401 91.1008L261.383 91.1078C261.373 91.112 261.366 91.1204 261.358 91.1246C261.323 91.1401 261.289 91.1526 261.259 91.1779C261.249 91.1863 261.244 91.1975 261.235 91.2059C261.219 91.2213 261.206 91.2381 261.192 91.2563C261.164 91.2913 261.141 91.3291 261.122 91.3698C261.117 91.3824 261.106 91.3893 261.101 91.4019L230.746 176.311L195.1 199.413C181.909 196.001 148.001 187.139 146.535 186.333C146.525 186.328 146.503 186.326 146.489 186.322C146.403 186.286 146.311 186.269 146.22 186.294C146.208 186.297 146.199 186.309 146.187 186.314C141.026 186.907 86.6587 211.115 69.6634 218.724C69.6366 218.736 69.6188 218.762 69.5959 218.779C69.5704 218.797 69.5487 218.811 69.527 218.835C69.513 218.849 69.4939 218.855 69.4824 218.871L41.7228 255.781L0 287.983L0.516144 288.822L42.1817 256.659ZM43.047 255.604L69.9196 219.877L101.077 243.682L73.1236 254.139L43.047 255.604ZM102.763 244.556L138.215 254.775L109.448 269.464L102.763 244.556ZM136.891 223.271L194.815 245.13L170.827 259.837L136.891 223.271ZM197.856 245.236L294.829 230.291L248.56 265.217L197.856 245.236ZM323.277 154.726L262.405 91.7983L300.593 77.6839L323.278 97.9059L323.277 154.726ZM261.568 92.8641L284.879 147.068L276.859 173.136L231.809 176.107L261.568 92.8641ZM230.941 177.362L249.979 215.513L217.892 220.937L195.957 200.03L230.941 177.362ZM72.6176 218.498C83.8561 213.477 96.9616 207.684 108.981 202.46L117.067 215.454L72.6176 218.498ZM117.041 216.47L101.955 243.119L71.1839 219.611L117.041 216.47ZM109.861 202.078C127.396 194.465 142.43 188.15 145.658 187.357L134.828 221.429L118.196 215.475L109.861 202.078ZM295.95 228.745L251.01 215.471L231.87 177.118L276.887 174.15L295.95 228.745ZM294.4 229.335L197.26 244.305L217.969 221.95L250.675 216.421L294.4 229.335ZM195.983 244.266L176.012 216.751L195.154 200.606L217.073 221.496L195.983 244.266ZM194.594 243.976L137.156 222.299L175.158 217.199L194.594 243.976ZM135.793 221.462L146.529 187.688L174.323 216.292L135.793 221.462ZM148.093 187.91C156.294 190.388 188.059 198.631 194.122 200.201L175.387 216L148.093 187.91ZM285.694 146.592L262.985 93.7884L322.227 155.032L285.694 146.592ZM323.105 156.268L296.714 228.109L277.686 173.611L285.681 147.624L323.105 156.268ZM134.7 222.45L139.009 253.957L102.811 243.523L118.105 216.509L134.7 222.45ZM334.378 209.233L297.575 228.476L323.835 156.985L338.232 181.08L334.378 209.233ZM319.865 257.198L297.457 229.658L334.017 210.541L319.865 257.198ZM250.359 265.089L296.63 230.161L319.102 257.778L250.359 265.089ZM247.123 265.727L215.609 275.633L171.904 260.337L195.983 245.574L247.123 265.727ZM153.632 277.818L140.01 254.459L135.775 223.485L170.088 260.46L153.632 277.818ZM108.447 269.32L74.5511 254.676L101.784 244.487L108.447 269.32Z" fill="#AC04FF"/>
</svg>
