<svg width="365" height="302" viewBox="0 0 365 302" fill="none" xmlns="http://www.w3.org/2000/svg">
<path d="M322.818 45.1107L292.185 46.6036L287.636 11.4436L286.724 11.5865L291.22 46.3417L256.535 31.3562L268.83 10.1832L268.052 9.63976L255.529 31.2049L226.57 45.9902L246.259 8.89889L245.463 8.3891L225.413 46.1583L211.841 22.8873L211.837 22.8901C211.832 22.8803 211.83 22.8691 211.825 22.8593L202.915 9.60895L202.173 10.2098L210.842 23.1015L194.247 40.6066L164.152 9.54033L163.522 10.2784L192.452 40.1444L149.688 25.1771L138.565 7.34432L137.805 7.91713L148.657 25.3144L116.879 35.3029L119.138 0.0714259L118.219 0L115.941 35.5255L45.9554 42.9679L68.6629 10.2168L67.9288 9.60335L44.8415 42.9035L0.502147 11.2574L0 12.1061L44.3993 43.7956L29.9402 91.4622L0.470285 73.8591L0.0305873 74.7484L29.6993 92.472L25.8861 120.325L0.22176 122.073L0.277838 123.085L26.0467 121.331L40.6739 145.812L4.98706 186.367L5.6498 187.071L40.8001 147.124V203.411L0.389992 189.192L0.109606 190.157L40.1042 204.231L1.86967 227.462L2.31574 228.349L41.2118 204.714L63.6465 224.712L1.74987 300.485L2.43554 301.162L64.5731 225.094L103.595 210.67C103.597 210.67 103.598 210.669 103.599 210.669L103.617 210.662C103.627 210.658 103.634 210.649 103.642 210.645C103.677 210.629 103.711 210.617 103.741 210.592C103.751 210.583 103.756 210.572 103.765 210.564C103.781 210.548 103.794 210.531 103.808 210.513C103.836 210.478 103.859 210.44 103.878 210.4C103.883 210.387 103.894 210.38 103.899 210.368L134.254 125.458L169.9 102.357C183.091 105.769 216.999 114.631 218.465 115.436C218.475 115.442 218.497 115.443 218.511 115.447C218.597 115.484 218.689 115.501 218.78 115.476C218.792 115.473 218.801 115.46 218.813 115.456C223.974 114.862 278.341 90.6541 295.337 83.0451C295.363 83.0339 295.381 83.0073 295.404 82.9905C295.43 82.9723 295.451 82.9583 295.473 82.9345C295.487 82.9205 295.506 82.9149 295.518 82.898L323.277 45.9888L365 13.7867L364.484 12.9478L322.818 45.1107ZM321.953 46.1653L295.08 81.8925L263.923 58.0879L291.876 47.6302L321.953 46.1653ZM262.237 57.214L226.785 46.9944L255.552 32.3057L262.237 57.214ZM228.109 78.499L170.185 56.6397L194.173 41.9329L228.109 78.499ZM167.144 56.5333L70.1706 71.4782L116.44 36.5521L167.144 56.5333ZM41.7228 147.043L102.595 209.971L64.4074 224.086L41.7216 203.864L41.7228 147.043ZM103.432 208.905L80.1206 154.701L88.1409 128.633L133.191 125.663L103.432 208.905ZM134.059 124.408L115.021 86.2565L147.108 80.8323L169.043 101.739L134.059 124.408ZM292.382 83.272C281.144 88.2928 268.038 94.0854 256.019 99.3093L247.933 86.3153L292.382 83.272ZM247.959 85.2999L263.045 58.6509L293.816 82.1586L247.959 85.2999ZM255.139 99.6917C237.604 107.305 222.57 113.62 219.342 114.413L230.172 80.3407L246.804 86.2943L255.139 99.6917ZM69.0504 73.0244L113.99 86.2985L133.13 124.652L88.1129 127.619L69.0504 73.0244ZM70.6001 72.4348L167.74 57.4646L147.031 79.8197L114.325 85.349L70.6001 72.4348ZM169.017 57.5039L188.988 85.0184L169.846 101.164L147.927 80.2735L169.017 57.5039ZM170.406 57.7938L227.844 79.471L189.842 84.5703L170.406 57.7938ZM229.207 80.3071L218.471 114.082L190.677 85.4778L229.207 80.3071ZM216.907 113.859C208.706 111.382 176.941 103.138 170.878 101.568L189.613 85.7691L216.907 113.859ZM79.3062 155.177L102.015 207.981L42.773 146.738L79.3062 155.177ZM41.8949 145.501L68.2857 73.6602L87.3138 128.159L79.3189 154.145L41.8949 145.501ZM230.3 79.3197L225.991 47.8123L262.189 58.2461L246.895 85.2607L230.3 79.3197ZM30.6221 92.5364L67.4254 73.2933L41.1646 144.784L26.768 120.69L30.6221 92.5364ZM45.1346 44.5715L67.5426 72.1113L30.9827 91.2283L45.1346 44.5715ZM114.641 36.681L68.3698 71.6085L45.8981 43.9917L114.641 36.681ZM117.877 36.0423L149.391 26.1365L193.096 41.4329L169.017 56.1958L117.877 36.0423ZM211.368 23.9517L224.99 47.3109L229.225 78.2847L194.912 41.3097L211.368 23.9517ZM256.553 32.45L290.449 47.0938L263.216 57.2826L256.553 32.45Z" fill="#AC04FF"/>
</svg>
